%TF.GenerationSoftware,KiCad,Pcbnew,7.0.10*%
%TF.CreationDate,2024-02-08T12:53:37+00:00*%
%TF.ProjectId,USB-tester,5553422d-7465-4737-9465-722e6b696361,rev?*%
%TF.SameCoordinates,Original*%
%TF.FileFunction,Copper,L1,Top*%
%TF.FilePolarity,Positive*%
%FSLAX46Y46*%
G04 Gerber Fmt 4.6, Leading zero omitted, Abs format (unit mm)*
G04 Created by KiCad (PCBNEW 7.0.10) date 2024-02-08 12:53:37*
%MOMM*%
%LPD*%
G01*
G04 APERTURE LIST*
G04 Aperture macros list*
%AMRoundRect*
0 Rectangle with rounded corners*
0 $1 Rounding radius*
0 $2 $3 $4 $5 $6 $7 $8 $9 X,Y pos of 4 corners*
0 Add a 4 corners polygon primitive as box body*
4,1,4,$2,$3,$4,$5,$6,$7,$8,$9,$2,$3,0*
0 Add four circle primitives for the rounded corners*
1,1,$1+$1,$2,$3*
1,1,$1+$1,$4,$5*
1,1,$1+$1,$6,$7*
1,1,$1+$1,$8,$9*
0 Add four rect primitives between the rounded corners*
20,1,$1+$1,$2,$3,$4,$5,0*
20,1,$1+$1,$4,$5,$6,$7,0*
20,1,$1+$1,$6,$7,$8,$9,0*
20,1,$1+$1,$8,$9,$2,$3,0*%
G04 Aperture macros list end*
%TA.AperFunction,ComponentPad*%
%ADD10O,0.900000X2.000000*%
%TD*%
%TA.AperFunction,ComponentPad*%
%ADD11O,0.900000X1.700000*%
%TD*%
%TA.AperFunction,SMDPad,CuDef*%
%ADD12RoundRect,0.200000X0.200000X0.275000X-0.200000X0.275000X-0.200000X-0.275000X0.200000X-0.275000X0*%
%TD*%
%TA.AperFunction,SMDPad,CuDef*%
%ADD13RoundRect,0.218750X0.218750X0.256250X-0.218750X0.256250X-0.218750X-0.256250X0.218750X-0.256250X0*%
%TD*%
%TA.AperFunction,ComponentPad*%
%ADD14C,0.700000*%
%TD*%
%TA.AperFunction,ComponentPad*%
%ADD15O,1.600000X1.000000*%
%TD*%
%TA.AperFunction,SMDPad,CuDef*%
%ADD16R,1.010000X0.300000*%
%TD*%
%TA.AperFunction,ComponentPad*%
%ADD17C,0.600000*%
%TD*%
%TA.AperFunction,SMDPad,CuDef*%
%ADD18RoundRect,0.200000X-0.200000X-0.275000X0.200000X-0.275000X0.200000X0.275000X-0.200000X0.275000X0*%
%TD*%
%TA.AperFunction,SMDPad,CuDef*%
%ADD19RoundRect,0.218750X-0.218750X-0.256250X0.218750X-0.256250X0.218750X0.256250X-0.218750X0.256250X0*%
%TD*%
%TA.AperFunction,ViaPad*%
%ADD20C,0.800000*%
%TD*%
%TA.AperFunction,Conductor*%
%ADD21C,0.250000*%
%TD*%
G04 APERTURE END LIST*
D10*
%TO.P,J1,S1,SHIELD*%
%TO.N,BAT-*%
X151213200Y-117115000D03*
%TO.P,J1,S2,SHIELD*%
X142563200Y-117115000D03*
D11*
%TO.P,J1,S3,SHIELD*%
X151213200Y-121285000D03*
%TO.P,J1,S4,SHIELD*%
X142563200Y-121285000D03*
%TD*%
D12*
%TO.P,R9,1*%
%TO.N,Net-(B9-A)*%
X148373600Y-94107800D03*
%TO.P,R9,2*%
%TO.N,B4_A*%
X146723600Y-94107800D03*
%TD*%
D13*
%TO.P,B2,1,K*%
%TO.N,BAT-*%
X158749900Y-115110000D03*
%TO.P,B2,2,A*%
%TO.N,Net-(B2-A)*%
X157174900Y-115110000D03*
%TD*%
D12*
%TO.P,R6,1*%
%TO.N,Net-(B6-A)*%
X148373600Y-103107800D03*
%TO.P,R6,2*%
%TO.N,B7_A*%
X146723600Y-103107800D03*
%TD*%
D14*
%TO.P,USB1,*%
%TO.N,*%
X193655400Y-105123800D03*
X193655400Y-97773800D03*
D15*
%TO.P,USB1,1,EP*%
%TO.N,SHELL_A*%
X194905400Y-105653800D03*
%TO.P,USB1,2,EP*%
X199295400Y-106013800D03*
%TO.P,USB1,3,EP*%
X199295400Y-97033800D03*
%TO.P,USB1,4,EP*%
X194905400Y-97393800D03*
D16*
%TO.P,USB1,A1,GND*%
%TO.N,A1_A*%
X193095400Y-104273800D03*
%TO.P,USB1,A2,SSTXP1*%
%TO.N,A2_A*%
X193095400Y-103773800D03*
%TO.P,USB1,A3,SSTXn1*%
%TO.N,A3_A*%
X193095400Y-103273800D03*
%TO.P,USB1,A4,VBUS*%
%TO.N,A4_A*%
X193095400Y-102773800D03*
%TO.P,USB1,A5,CC1*%
%TO.N,A5_A*%
X193095400Y-102273800D03*
%TO.P,USB1,A6,DP1*%
%TO.N,A6_A*%
X193095400Y-101773800D03*
%TO.P,USB1,A7,DN1*%
%TO.N,A7_A*%
X193095400Y-101273800D03*
%TO.P,USB1,A8,SUB1*%
%TO.N,A8_A*%
X193095400Y-100773800D03*
%TO.P,USB1,A9,VBUS*%
%TO.N,A9_A*%
X193095400Y-100273800D03*
%TO.P,USB1,A10,SSRXn2*%
%TO.N,A10_A*%
X193095400Y-99773800D03*
%TO.P,USB1,A11,SSRXp2*%
%TO.N,A11_A*%
X193095400Y-99273800D03*
%TO.P,USB1,A12,GND*%
%TO.N,A12_A*%
X193095400Y-98773800D03*
D17*
%TO.P,USB1,B1,GND*%
%TO.N,B1_A*%
X194305400Y-98723800D03*
%TO.P,USB1,B2,SSTXp2*%
%TO.N,B2_A*%
X195005400Y-99123800D03*
%TO.P,USB1,B3,SSTXn2*%
%TO.N,B3_A*%
X195005400Y-99923800D03*
%TO.P,USB1,B4,VBUS*%
%TO.N,B4_A*%
X194305400Y-100323800D03*
%TO.P,USB1,B5,CC2*%
%TO.N,B5_A*%
X195005400Y-100723800D03*
%TO.P,USB1,B6,DP2*%
%TO.N,B6_A*%
X194305400Y-101123800D03*
%TO.P,USB1,B7,DN2*%
%TO.N,B7_A*%
X194305400Y-101923800D03*
%TO.P,USB1,B8,SUB2*%
%TO.N,B8_A*%
X195005400Y-102323800D03*
%TO.P,USB1,B9,VBUS*%
%TO.N,B9_A*%
X194305400Y-102723800D03*
%TO.P,USB1,B10,SSRXn1*%
%TO.N,B10_A*%
X195005400Y-103123800D03*
%TO.P,USB1,B11,SSRXp1*%
%TO.N,B11_A*%
X195005400Y-103923800D03*
%TO.P,USB1,B12,GND*%
%TO.N,B12_A*%
X194305400Y-104323800D03*
%TD*%
D12*
%TO.P,R28,1*%
%TO.N,+5V*%
X140296400Y-108864400D03*
%TO.P,R28,2*%
%TO.N,Net-(D2-A)*%
X138646400Y-108864400D03*
%TD*%
D13*
%TO.P,B8,1,K*%
%TO.N,BAT-*%
X158749900Y-97110000D03*
%TO.P,B8,2,A*%
%TO.N,Net-(B8-A)*%
X157174900Y-97110000D03*
%TD*%
%TO.P,D25,1,K*%
%TO.N,BAT-*%
X199009100Y-91262200D03*
%TO.P,D25,2,A*%
%TO.N,Net-(D25-A)*%
X197434100Y-91262200D03*
%TD*%
D18*
%TO.P,R19,1*%
%TO.N,Net-(A7-A)*%
X185153800Y-103158900D03*
%TO.P,R19,2*%
%TO.N,A6_A*%
X186803800Y-103158900D03*
%TD*%
D19*
%TO.P,A4,1,K*%
%TO.N,BAT-*%
X175463000Y-94161200D03*
%TO.P,A4,2,A*%
%TO.N,Net-(A4-A)*%
X177038000Y-94161200D03*
%TD*%
D12*
%TO.P,R3,1*%
%TO.N,Net-(B3-A)*%
X148373500Y-112107800D03*
%TO.P,R3,2*%
%TO.N,B10_A*%
X146723500Y-112107800D03*
%TD*%
%TO.P,R7,1*%
%TO.N,Net-(B7-A)*%
X148373600Y-100107800D03*
%TO.P,R7,2*%
%TO.N,B6_A*%
X146723600Y-100107800D03*
%TD*%
D19*
%TO.P,A10,1,K*%
%TO.N,BAT-*%
X175463100Y-112161200D03*
%TO.P,A10,2,A*%
%TO.N,Net-(A10-A)*%
X177038100Y-112161200D03*
%TD*%
%TO.P,A9,1,K*%
%TO.N,BAT-*%
X175463000Y-109161200D03*
%TO.P,A9,2,A*%
%TO.N,Net-(A9-A)*%
X177038000Y-109161200D03*
%TD*%
D14*
%TO.P,USB2,*%
%TO.N,*%
X139389400Y-97085600D03*
X139389400Y-104435600D03*
D15*
%TO.P,USB2,1,EP*%
%TO.N,A10_B*%
X138139400Y-96555600D03*
%TO.P,USB2,2,EP*%
X133749400Y-96195600D03*
%TO.P,USB2,3,EP*%
X133749400Y-105175600D03*
%TO.P,USB2,4,EP*%
X138139400Y-104815600D03*
D16*
%TO.P,USB2,A1,GND*%
X139949400Y-97935600D03*
%TO.P,USB2,A2,SSTXP1*%
X139949400Y-98435600D03*
%TO.P,USB2,A3,SSTXn1*%
X139949400Y-98935600D03*
%TO.P,USB2,A4,VBUS*%
X139949400Y-99435600D03*
%TO.P,USB2,A5,CC1*%
X139949400Y-99935600D03*
%TO.P,USB2,A6,DP1*%
X139949400Y-100435600D03*
%TO.P,USB2,A7,DN1*%
X139949400Y-100935600D03*
%TO.P,USB2,A8,SUB1*%
X139949400Y-101435600D03*
%TO.P,USB2,A9,VBUS*%
X139949400Y-101935600D03*
%TO.P,USB2,A10,SSRXn2*%
X139949400Y-102435600D03*
%TO.P,USB2,A11,SSRXp2*%
X139949400Y-102935600D03*
%TO.P,USB2,A12,GND*%
X139949400Y-103435600D03*
D17*
%TO.P,USB2,B1,GND*%
X138739400Y-103485600D03*
%TO.P,USB2,B2,SSTXp2*%
X138039400Y-103085600D03*
%TO.P,USB2,B3,SSTXn2*%
X138039400Y-102285600D03*
%TO.P,USB2,B4,VBUS*%
X138739400Y-101885600D03*
%TO.P,USB2,B5,CC2*%
X138039400Y-101485600D03*
%TO.P,USB2,B6,DP2*%
X138739400Y-101085600D03*
%TO.P,USB2,B7,DN2*%
X138739400Y-100285600D03*
%TO.P,USB2,B8,SUB2*%
X138039400Y-99885600D03*
%TO.P,USB2,B9,VBUS*%
X138739400Y-99485600D03*
%TO.P,USB2,B10,SSRXn1*%
X138039400Y-99085600D03*
%TO.P,USB2,B11,SSRXp1*%
X138039400Y-98285600D03*
%TO.P,USB2,B12,GND*%
X138739400Y-97885600D03*
%TD*%
D19*
%TO.P,D2,1,K*%
%TO.N,Net-(D2-K)*%
X135356500Y-108864400D03*
%TO.P,D2,2,A*%
%TO.N,Net-(D2-A)*%
X136931500Y-108864400D03*
%TD*%
D12*
%TO.P,R11,1*%
%TO.N,Net-(B11-A)*%
X148373600Y-88107800D03*
%TO.P,R11,2*%
%TO.N,B2_A*%
X146723600Y-88107800D03*
%TD*%
D13*
%TO.P,B12,1,K*%
%TO.N,BAT-*%
X158750000Y-85110000D03*
%TO.P,B12,2,A*%
%TO.N,Net-(B12-A)*%
X157175000Y-85110000D03*
%TD*%
D19*
%TO.P,A2,1,K*%
%TO.N,BAT-*%
X175463100Y-88161200D03*
%TO.P,A2,2,A*%
%TO.N,Net-(A2-A)*%
X177038100Y-88161200D03*
%TD*%
D18*
%TO.P,R15,1*%
%TO.N,Net-(A3-A)*%
X185153900Y-91158900D03*
%TO.P,R15,2*%
%TO.N,A10_A*%
X186803900Y-91158900D03*
%TD*%
D13*
%TO.P,B1,1,K*%
%TO.N,BAT-*%
X158750000Y-118110000D03*
%TO.P,B1,2,A*%
%TO.N,Net-(B1-A)*%
X157175000Y-118110000D03*
%TD*%
D18*
%TO.P,R25,1*%
%TO.N,Net-(D25-A)*%
X197422000Y-93319600D03*
%TO.P,R25,2*%
%TO.N,SHELL_A*%
X199072000Y-93319600D03*
%TD*%
D12*
%TO.P,R10,1*%
%TO.N,Net-(B10-A)*%
X148373600Y-91107800D03*
%TO.P,R10,2*%
%TO.N,B3_A*%
X146723600Y-91107800D03*
%TD*%
D18*
%TO.P,R24,1*%
%TO.N,Net-(A12-A)*%
X185153800Y-118158900D03*
%TO.P,R24,2*%
%TO.N,A1_A*%
X186803800Y-118158900D03*
%TD*%
D19*
%TO.P,A3,1,K*%
%TO.N,BAT-*%
X175463000Y-91161200D03*
%TO.P,A3,2,A*%
%TO.N,Net-(A3-A)*%
X177038000Y-91161200D03*
%TD*%
D13*
%TO.P,B6,1,K*%
%TO.N,BAT-*%
X158750000Y-103110000D03*
%TO.P,B6,2,A*%
%TO.N,Net-(B6-A)*%
X157175000Y-103110000D03*
%TD*%
D12*
%TO.P,R2,1*%
%TO.N,Net-(B2-A)*%
X148373600Y-115107800D03*
%TO.P,R2,2*%
%TO.N,B11_A*%
X146723600Y-115107800D03*
%TD*%
D18*
%TO.P,R13,1*%
%TO.N,Net-(A1-A)*%
X185153800Y-85158900D03*
%TO.P,R13,2*%
%TO.N,A12_A*%
X186803800Y-85158900D03*
%TD*%
%TO.P,R14,1*%
%TO.N,Net-(A2-A)*%
X185153800Y-88158900D03*
%TO.P,R14,2*%
%TO.N,A11_A*%
X186803800Y-88158900D03*
%TD*%
D12*
%TO.P,R8,1*%
%TO.N,Net-(B8-A)*%
X148373600Y-97107800D03*
%TO.P,R8,2*%
%TO.N,B5_A*%
X146723600Y-97107800D03*
%TD*%
D13*
%TO.P,B5,1,K*%
%TO.N,BAT-*%
X158750000Y-106110000D03*
%TO.P,B5,2,A*%
%TO.N,Net-(B5-A)*%
X157175000Y-106110000D03*
%TD*%
D19*
%TO.P,A1,1,K*%
%TO.N,BAT-*%
X175463100Y-85161200D03*
%TO.P,A1,2,A*%
%TO.N,Net-(A1-A)*%
X177038100Y-85161200D03*
%TD*%
D18*
%TO.P,R21,1*%
%TO.N,Net-(A9-A)*%
X185153900Y-109158900D03*
%TO.P,R21,2*%
%TO.N,A4_A*%
X186803900Y-109158900D03*
%TD*%
D19*
%TO.P,A7,1,K*%
%TO.N,BAT-*%
X175463000Y-103161200D03*
%TO.P,A7,2,A*%
%TO.N,Net-(A7-A)*%
X177038000Y-103161200D03*
%TD*%
D18*
%TO.P,R16,1*%
%TO.N,Net-(A4-A)*%
X185153900Y-94158900D03*
%TO.P,R16,2*%
%TO.N,A9_A*%
X186803900Y-94158900D03*
%TD*%
%TO.P,R17,1*%
%TO.N,Net-(A5-A)*%
X185153900Y-97158900D03*
%TO.P,R17,2*%
%TO.N,A8_A*%
X186803900Y-97158900D03*
%TD*%
D13*
%TO.P,B10,1,K*%
%TO.N,BAT-*%
X158750000Y-91110000D03*
%TO.P,B10,2,A*%
%TO.N,Net-(B10-A)*%
X157175000Y-91110000D03*
%TD*%
%TO.P,B9,1,K*%
%TO.N,BAT-*%
X158750000Y-94110000D03*
%TO.P,B9,2,A*%
%TO.N,Net-(B9-A)*%
X157175000Y-94110000D03*
%TD*%
D12*
%TO.P,R4,1*%
%TO.N,Net-(B4-A)*%
X148373600Y-109107800D03*
%TO.P,R4,2*%
%TO.N,B9_A*%
X146723600Y-109107800D03*
%TD*%
D19*
%TO.P,A11,1,K*%
%TO.N,BAT-*%
X175463000Y-115161200D03*
%TO.P,A11,2,A*%
%TO.N,Net-(A11-A)*%
X177038000Y-115161200D03*
%TD*%
D18*
%TO.P,R18,1*%
%TO.N,Net-(A6-A)*%
X185153900Y-100158900D03*
%TO.P,R18,2*%
%TO.N,A7_A*%
X186803900Y-100158900D03*
%TD*%
D19*
%TO.P,A6,1,K*%
%TO.N,BAT-*%
X175463000Y-100161200D03*
%TO.P,A6,2,A*%
%TO.N,Net-(A6-A)*%
X177038000Y-100161200D03*
%TD*%
%TO.P,A12,1,K*%
%TO.N,BAT-*%
X175463100Y-118161200D03*
%TO.P,A12,2,A*%
%TO.N,Net-(A12-A)*%
X177038100Y-118161200D03*
%TD*%
D12*
%TO.P,R12,1*%
%TO.N,Net-(B12-A)*%
X148373600Y-85107800D03*
%TO.P,R12,2*%
%TO.N,B1_A*%
X146723600Y-85107800D03*
%TD*%
D18*
%TO.P,R20,1*%
%TO.N,Net-(A8-A)*%
X185153900Y-106158900D03*
%TO.P,R20,2*%
%TO.N,A5_A*%
X186803900Y-106158900D03*
%TD*%
D19*
%TO.P,D1,1,K*%
%TO.N,Net-(D1-K)*%
X135356500Y-110693200D03*
%TO.P,D1,2,A*%
%TO.N,Net-(D1-A)*%
X136931500Y-110693200D03*
%TD*%
D13*
%TO.P,B11,1,K*%
%TO.N,BAT-*%
X158750000Y-88110000D03*
%TO.P,B11,2,A*%
%TO.N,Net-(B11-A)*%
X157175000Y-88110000D03*
%TD*%
D12*
%TO.P,R26,1*%
%TO.N,+5V*%
X140321800Y-110718600D03*
%TO.P,R26,2*%
%TO.N,Net-(D1-A)*%
X138671800Y-110718600D03*
%TD*%
D13*
%TO.P,B3,1,K*%
%TO.N,BAT-*%
X158750000Y-112110000D03*
%TO.P,B3,2,A*%
%TO.N,Net-(B3-A)*%
X157175000Y-112110000D03*
%TD*%
D19*
%TO.P,A5,1,K*%
%TO.N,BAT-*%
X175463000Y-97161200D03*
%TO.P,A5,2,A*%
%TO.N,Net-(A5-A)*%
X177038000Y-97161200D03*
%TD*%
%TO.P,A8,1,K*%
%TO.N,BAT-*%
X175463000Y-106161200D03*
%TO.P,A8,2,A*%
%TO.N,Net-(A8-A)*%
X177038000Y-106161200D03*
%TD*%
D12*
%TO.P,R1,1*%
%TO.N,Net-(B1-A)*%
X148373600Y-118107700D03*
%TO.P,R1,2*%
%TO.N,B12_A*%
X146723600Y-118107700D03*
%TD*%
D13*
%TO.P,B4,1,K*%
%TO.N,BAT-*%
X158750000Y-109110000D03*
%TO.P,B4,2,A*%
%TO.N,Net-(B4-A)*%
X157175000Y-109110000D03*
%TD*%
D18*
%TO.P,R23,1*%
%TO.N,Net-(A11-A)*%
X185153800Y-115158900D03*
%TO.P,R23,2*%
%TO.N,A2_A*%
X186803800Y-115158900D03*
%TD*%
%TO.P,R22,1*%
%TO.N,Net-(A10-A)*%
X185153900Y-112158900D03*
%TO.P,R22,2*%
%TO.N,A3_A*%
X186803900Y-112158900D03*
%TD*%
D13*
%TO.P,B7,1,K*%
%TO.N,BAT-*%
X158750000Y-100110000D03*
%TO.P,B7,2,A*%
%TO.N,Net-(B7-A)*%
X157175000Y-100110000D03*
%TD*%
D12*
%TO.P,R5,1*%
%TO.N,Net-(B5-A)*%
X148373500Y-106107800D03*
%TO.P,R5,2*%
%TO.N,B8_A*%
X146723500Y-106107800D03*
%TD*%
D20*
%TO.N,+5V*%
X157048200Y-95859600D03*
X169976800Y-99339400D03*
X168605200Y-96215200D03*
X141681200Y-108788200D03*
%TO.N,BAT-*%
X168960800Y-117576600D03*
X168986200Y-121310400D03*
%TO.N,A10_B*%
X161239200Y-116459000D03*
X161036000Y-101803200D03*
X142240000Y-98171000D03*
%TO.N,BAT-*%
X173685200Y-115138200D03*
X160045400Y-103022400D03*
X175463100Y-101600000D03*
%TO.N,B1_A*%
X144576800Y-85115400D03*
%TO.N,B2_A*%
X144627600Y-87985600D03*
X189763400Y-89001600D03*
%TO.N,B3_A*%
X144602200Y-91033600D03*
X191008000Y-90017600D03*
%TO.N,B4_A*%
X144602200Y-94132400D03*
%TO.N,B5_A*%
X186486800Y-95732600D03*
X191160400Y-92608400D03*
X197891400Y-96469200D03*
X144653000Y-97078800D03*
X181254400Y-95707200D03*
X192684400Y-95275400D03*
%TO.N,B6_A*%
X144780000Y-100152200D03*
%TO.N,B7_A*%
X144780000Y-102920800D03*
%TO.N,B8_A*%
X183591200Y-108000800D03*
X180924200Y-107315000D03*
X193776600Y-109220000D03*
X190982600Y-111328200D03*
X144678400Y-106197400D03*
X197942200Y-109270800D03*
%TO.N,B9_A*%
X144729200Y-109143800D03*
%TO.N,B10_A*%
X144576800Y-112115600D03*
X190322200Y-113233200D03*
X197129400Y-110845600D03*
X194005200Y-110896400D03*
%TO.N,B11_A*%
X143865600Y-114198400D03*
X189052200Y-115849400D03*
%TO.N,B12_A*%
X144881600Y-118110000D03*
%TO.N,Net-(D1-K)*%
X166446200Y-105105200D03*
X166446200Y-102616000D03*
X155397200Y-105232200D03*
%TO.N,Net-(D2-K)*%
X170082395Y-100364540D03*
X155422600Y-110439200D03*
X169418000Y-110464600D03*
%TD*%
D21*
%TO.N,+5V*%
X168605200Y-97967800D02*
X169976800Y-99339400D01*
X168605200Y-96215200D02*
X168605200Y-97967800D01*
X141681200Y-108788200D02*
X142965000Y-107504400D01*
X144846895Y-95859600D02*
X157048200Y-95859600D01*
X142965000Y-97741495D02*
X144846895Y-95859600D01*
X142965000Y-107504400D02*
X142965000Y-97741495D01*
X140296400Y-108864400D02*
X140296400Y-110693200D01*
X140296400Y-110693200D02*
X140321800Y-110718600D01*
X141681200Y-108788200D02*
X140372600Y-108788200D01*
X140372600Y-108788200D02*
X140296400Y-108864400D01*
%TO.N,BAT-*%
X168986200Y-117602000D02*
X168960800Y-117576600D01*
X168986200Y-121310400D02*
X168986200Y-117602000D01*
X151213200Y-117010800D02*
X151282400Y-116941600D01*
X151213200Y-117115000D02*
X151213200Y-117010800D01*
%TO.N,B11_A*%
X144775000Y-115107800D02*
X143865600Y-114198400D01*
X146723600Y-115107800D02*
X144775000Y-115107800D01*
%TO.N,Net-(B1-A)*%
X148373600Y-118107700D02*
X149010900Y-118745000D01*
X149010900Y-118745000D02*
X156540000Y-118745000D01*
X156540000Y-118745000D02*
X157175000Y-118110000D01*
%TO.N,A10_A*%
X186803900Y-91158900D02*
X191719200Y-99771200D01*
X191719200Y-99771200D02*
X193095400Y-99773800D01*
%TO.N,Net-(D25-A)*%
X197422000Y-92989400D02*
X197434100Y-91160600D01*
%TO.N,A1_A*%
X186918600Y-118008400D02*
X193095400Y-104273800D01*
X186803800Y-118158900D02*
X186918600Y-118008400D01*
%TO.N,A2_A*%
X192151000Y-103809800D02*
X193095400Y-103773800D01*
X186803800Y-115158900D02*
X192151000Y-103809800D01*
%TO.N,A3_A*%
X186803900Y-112158900D02*
X191820800Y-103301800D01*
X191820800Y-103301800D02*
X193095400Y-103273800D01*
%TO.N,A4_A*%
X186803900Y-109158900D02*
X191439800Y-102819200D01*
X191439800Y-102819200D02*
X193095400Y-102773800D01*
%TO.N,A5_A*%
X191135000Y-102285800D02*
X193095400Y-102273800D01*
X186803900Y-106158900D02*
X191135000Y-102285800D01*
%TO.N,A6_A*%
X186803800Y-103158900D02*
X190779400Y-101777800D01*
X190779400Y-101777800D02*
X193095400Y-101773800D01*
%TO.N,A7_A*%
X186803900Y-100158900D02*
X190830200Y-101244400D01*
X190830200Y-101244400D02*
X193095400Y-101273800D01*
%TO.N,A8_A*%
X191211200Y-100736400D02*
X193095400Y-100773800D01*
X186803900Y-97158900D02*
X191211200Y-100736400D01*
%TO.N,A9_A*%
X186803900Y-94158900D02*
X191465200Y-100253800D01*
X191465200Y-100253800D02*
X193095400Y-100273800D01*
%TO.N,A10_B*%
X142240000Y-98171000D02*
X139949400Y-97935600D01*
X139949400Y-97935600D02*
X139949400Y-103435600D01*
X161239200Y-116459000D02*
X161036000Y-101803200D01*
X138739400Y-97885600D02*
X139949400Y-97935600D01*
%TO.N,A11_A*%
X186803800Y-88158900D02*
X192049400Y-99263200D01*
X192049400Y-99263200D02*
X193095400Y-99273800D01*
%TO.N,A12_A*%
X186803800Y-85158900D02*
X193095400Y-98773800D01*
%TO.N,SHELL_A*%
X199072000Y-92989400D02*
X199295400Y-97033800D01*
%TO.N,BAT-*%
X158750000Y-85110000D02*
X175463100Y-85161200D01*
X175333900Y-88290400D02*
X175463100Y-88161200D01*
X160045400Y-103022400D02*
X158837600Y-103022400D01*
X158750000Y-118110000D02*
X158750000Y-101574600D01*
X158837600Y-103022400D02*
X158750000Y-103110000D01*
X173685200Y-115138200D02*
X175463000Y-115161200D01*
X158750000Y-101574600D02*
X158750000Y-85110000D01*
X198145400Y-90170000D02*
X193522600Y-90297000D01*
X188087000Y-83515200D02*
X175971200Y-83464400D01*
X175971200Y-83464400D02*
X175463100Y-85161200D01*
X193522600Y-90297000D02*
X188087000Y-83515200D01*
X199009100Y-91160600D02*
X198145400Y-90170000D01*
X175463100Y-101600000D02*
X175463100Y-118161200D01*
X175463100Y-85161200D02*
X175463100Y-101600000D01*
%TO.N,Net-(A1-A)*%
X177038100Y-85161200D02*
X185153800Y-85158900D01*
%TO.N,Net-(A2-A)*%
X177038100Y-88161200D02*
X185153800Y-88158900D01*
%TO.N,Net-(A3-A)*%
X177038000Y-91161200D02*
X185153900Y-91158900D01*
%TO.N,Net-(A4-A)*%
X177038000Y-94161200D02*
X185153900Y-94158900D01*
%TO.N,Net-(A5-A)*%
X177038000Y-97161200D02*
X185153900Y-97158900D01*
%TO.N,Net-(A6-A)*%
X177038000Y-100161200D02*
X185153900Y-100158900D01*
%TO.N,Net-(A7-A)*%
X177038000Y-103161200D02*
X185153800Y-103158900D01*
%TO.N,Net-(A8-A)*%
X177038000Y-106161200D02*
X185153900Y-106158900D01*
%TO.N,Net-(A9-A)*%
X177038000Y-109161200D02*
X185153900Y-109158900D01*
%TO.N,Net-(A10-A)*%
X177038100Y-112161200D02*
X185153900Y-112158900D01*
%TO.N,Net-(A11-A)*%
X177038000Y-115161200D02*
X185153800Y-115158900D01*
%TO.N,Net-(A12-A)*%
X177038100Y-118161200D02*
X185153800Y-118158900D01*
%TO.N,Net-(B2-A)*%
X148373600Y-115107800D02*
X157174900Y-115110000D01*
%TO.N,Net-(B3-A)*%
X148373500Y-112107800D02*
X157175000Y-112110000D01*
%TO.N,Net-(B4-A)*%
X148373600Y-109107800D02*
X157175000Y-109110000D01*
%TO.N,Net-(B5-A)*%
X148373500Y-106107800D02*
X157175000Y-106110000D01*
%TO.N,Net-(B6-A)*%
X148373600Y-103107800D02*
X157175000Y-103110000D01*
%TO.N,Net-(B7-A)*%
X148373600Y-100107800D02*
X157175000Y-100110000D01*
%TO.N,Net-(B8-A)*%
X148373600Y-97107800D02*
X157174900Y-97110000D01*
%TO.N,Net-(B9-A)*%
X148373600Y-94107800D02*
X157175000Y-94110000D01*
%TO.N,Net-(B10-A)*%
X148373600Y-91107800D02*
X157175000Y-91110000D01*
%TO.N,Net-(B11-A)*%
X148373600Y-88107800D02*
X157175000Y-88110000D01*
%TO.N,Net-(B12-A)*%
X148373600Y-85107800D02*
X157175000Y-85110000D01*
%TO.N,B1_A*%
X144576800Y-85115400D02*
X146723600Y-85107800D01*
%TO.N,B2_A*%
X144627600Y-87985600D02*
X146723600Y-88107800D01*
X189763400Y-89992200D02*
X189763400Y-89001600D01*
X196240400Y-96469200D02*
X189763400Y-89992200D01*
X195005400Y-99123800D02*
X196240400Y-98272600D01*
X196240400Y-98272600D02*
X196240400Y-96469200D01*
%TO.N,B3_A*%
X191008000Y-90017600D02*
X196850000Y-95199200D01*
X195005400Y-99923800D02*
X196850000Y-98729800D01*
X196850000Y-95199200D02*
X196850000Y-98729800D01*
X146723600Y-91107800D02*
X144602200Y-91033600D01*
%TO.N,B4_A*%
X144602200Y-94132400D02*
X146723600Y-94107800D01*
%TO.N,B5_A*%
X197891400Y-96469200D02*
X197739000Y-99263200D01*
X197739000Y-99263200D02*
X195005400Y-100723800D01*
X146723600Y-97107800D02*
X144653000Y-97078800D01*
X192684400Y-94132400D02*
X192684400Y-95275400D01*
X191160400Y-92608400D02*
X192684400Y-94132400D01*
X181254400Y-95707200D02*
X186486800Y-95732600D01*
%TO.N,B6_A*%
X146723600Y-100107800D02*
X144780000Y-100152200D01*
%TO.N,B7_A*%
X144780000Y-102920800D02*
X146723600Y-103107800D01*
%TO.N,B8_A*%
X146723500Y-106107800D02*
X144678400Y-106197400D01*
X195005400Y-102323800D02*
X198018400Y-104343200D01*
X180924200Y-107315000D02*
X183591200Y-108000800D01*
X190982600Y-111328200D02*
X193776600Y-109220000D01*
X197942200Y-109270800D02*
X198018400Y-104343200D01*
%TO.N,B9_A*%
X144729200Y-109143800D02*
X146723600Y-109107800D01*
%TO.N,B10_A*%
X190322200Y-113233200D02*
X194005200Y-110896400D01*
X197231000Y-104622600D02*
X197104000Y-108864400D01*
X195005400Y-103123800D02*
X197231000Y-104622600D01*
X146723500Y-112107800D02*
X144576800Y-112115600D01*
X197129400Y-110845600D02*
X197104000Y-108864400D01*
%TO.N,B11_A*%
X196469000Y-104952800D02*
X196431626Y-107569000D01*
X195005400Y-103923800D02*
X196469000Y-104952800D01*
X196367400Y-110490000D02*
X196431626Y-107569000D01*
X189052200Y-115849400D02*
X196367400Y-110490000D01*
%TO.N,B12_A*%
X144881600Y-118110000D02*
X146723600Y-118107700D01*
%TO.N,Net-(D1-K)*%
X136181900Y-111518600D02*
X140744804Y-111518600D01*
X140744804Y-111518600D02*
X143953400Y-108310004D01*
X144618295Y-105232200D02*
X155397200Y-105232200D01*
X135356500Y-110693200D02*
X136181900Y-111518600D01*
X143953400Y-105897095D02*
X144618295Y-105232200D01*
X143953400Y-108310004D02*
X143953400Y-105897095D01*
X166446200Y-105105200D02*
X166446200Y-102616000D01*
%TO.N,Net-(D1-A)*%
X138646400Y-110693200D02*
X138671800Y-110718600D01*
X136931500Y-110693200D02*
X138646400Y-110693200D01*
%TO.N,Net-(D2-K)*%
X135356500Y-108864400D02*
X134594000Y-109626900D01*
X135158800Y-111968600D02*
X143631600Y-111968600D01*
X169418000Y-110464600D02*
X169418000Y-101028935D01*
X134594000Y-109626900D02*
X134594000Y-111403800D01*
X143631600Y-111968600D02*
X145161000Y-110439200D01*
X134594000Y-111403800D02*
X135158800Y-111968600D01*
X145161000Y-110439200D02*
X155422600Y-110439200D01*
X169418000Y-101028935D02*
X170082395Y-100364540D01*
%TO.N,Net-(D2-A)*%
X136931500Y-108864400D02*
X138646400Y-108864400D01*
%TD*%
M02*
