%TF.GenerationSoftware,KiCad,Pcbnew,7.0.10*%
%TF.CreationDate,2024-01-25T20:05:25+00:00*%
%TF.ProjectId,USB-tester,5553422d-7465-4737-9465-722e6b696361,rev?*%
%TF.SameCoordinates,Original*%
%TF.FileFunction,Copper,L1,Top*%
%TF.FilePolarity,Positive*%
%FSLAX46Y46*%
G04 Gerber Fmt 4.6, Leading zero omitted, Abs format (unit mm)*
G04 Created by KiCad (PCBNEW 7.0.10) date 2024-01-25 20:05:25*
%MOMM*%
%LPD*%
G01*
G04 APERTURE LIST*
G04 Aperture macros list*
%AMRoundRect*
0 Rectangle with rounded corners*
0 $1 Rounding radius*
0 $2 $3 $4 $5 $6 $7 $8 $9 X,Y pos of 4 corners*
0 Add a 4 corners polygon primitive as box body*
4,1,4,$2,$3,$4,$5,$6,$7,$8,$9,$2,$3,0*
0 Add four circle primitives for the rounded corners*
1,1,$1+$1,$2,$3*
1,1,$1+$1,$4,$5*
1,1,$1+$1,$6,$7*
1,1,$1+$1,$8,$9*
0 Add four rect primitives between the rounded corners*
20,1,$1+$1,$2,$3,$4,$5,0*
20,1,$1+$1,$4,$5,$6,$7,0*
20,1,$1+$1,$6,$7,$8,$9,0*
20,1,$1+$1,$8,$9,$2,$3,0*%
G04 Aperture macros list end*
%TA.AperFunction,SMDPad,CuDef*%
%ADD10RoundRect,0.200000X0.200000X0.275000X-0.200000X0.275000X-0.200000X-0.275000X0.200000X-0.275000X0*%
%TD*%
%TA.AperFunction,SMDPad,CuDef*%
%ADD11RoundRect,0.218750X0.218750X0.256250X-0.218750X0.256250X-0.218750X-0.256250X0.218750X-0.256250X0*%
%TD*%
%TA.AperFunction,SMDPad,CuDef*%
%ADD12RoundRect,0.200000X-0.200000X-0.275000X0.200000X-0.275000X0.200000X0.275000X-0.200000X0.275000X0*%
%TD*%
%TA.AperFunction,SMDPad,CuDef*%
%ADD13RoundRect,0.218750X-0.218750X-0.256250X0.218750X-0.256250X0.218750X0.256250X-0.218750X0.256250X0*%
%TD*%
%TA.AperFunction,ComponentPad*%
%ADD14O,2.100000X1.000000*%
%TD*%
%TA.AperFunction,ComponentPad*%
%ADD15O,2.600000X1.000000*%
%TD*%
%TA.AperFunction,SMDPad,CuDef*%
%ADD16R,0.800000X0.300000*%
%TD*%
%TA.AperFunction,SMDPad,CuDef*%
%ADD17R,0.700000X1.000000*%
%TD*%
%TA.AperFunction,SMDPad,CuDef*%
%ADD18R,0.700000X0.300000*%
%TD*%
%TA.AperFunction,ViaPad*%
%ADD19C,0.800000*%
%TD*%
%TA.AperFunction,Conductor*%
%ADD20C,0.250000*%
%TD*%
G04 APERTURE END LIST*
D10*
%TO.P,R9,1*%
%TO.N,Net-(B9-A)*%
X148373600Y-94107800D03*
%TO.P,R9,2*%
%TO.N,B9_A*%
X146723600Y-94107800D03*
%TD*%
D11*
%TO.P,B2,2,A*%
%TO.N,Net-(B2-A)*%
X157174900Y-115110000D03*
%TO.P,B2,1,K*%
%TO.N,Net-(A1-K)*%
X158749900Y-115110000D03*
%TD*%
D10*
%TO.P,R6,1*%
%TO.N,Net-(B6-A)*%
X148373600Y-103107800D03*
%TO.P,R6,2*%
%TO.N,B6_A*%
X146723600Y-103107800D03*
%TD*%
D11*
%TO.P,B8,2,A*%
%TO.N,Net-(B8-A)*%
X157174900Y-97110000D03*
%TO.P,B8,1,K*%
%TO.N,Net-(A1-K)*%
X158749900Y-97110000D03*
%TD*%
D12*
%TO.P,R19,1*%
%TO.N,Net-(A7-A)*%
X185153800Y-103158900D03*
%TO.P,R19,2*%
%TO.N,A7_B*%
X186803800Y-103158900D03*
%TD*%
D13*
%TO.P,A4,1,K*%
%TO.N,Net-(A1-K)*%
X175463000Y-94161200D03*
%TO.P,A4,2,A*%
%TO.N,Net-(A4-A)*%
X177038000Y-94161200D03*
%TD*%
D10*
%TO.P,R3,1*%
%TO.N,Net-(B3-A)*%
X148373500Y-112107800D03*
%TO.P,R3,2*%
%TO.N,B3_A*%
X146723500Y-112107800D03*
%TD*%
%TO.P,R7,1*%
%TO.N,Net-(B7-A)*%
X148373600Y-100107800D03*
%TO.P,R7,2*%
%TO.N,B7_A*%
X146723600Y-100107800D03*
%TD*%
D13*
%TO.P,A10,2,A*%
%TO.N,Net-(A10-A)*%
X177038100Y-112161200D03*
%TO.P,A10,1,K*%
%TO.N,Net-(A1-K)*%
X175463100Y-112161200D03*
%TD*%
%TO.P,A9,1,K*%
%TO.N,Net-(A1-K)*%
X175463000Y-109161200D03*
%TO.P,A9,2,A*%
%TO.N,Net-(A9-A)*%
X177038000Y-109161200D03*
%TD*%
D14*
%TO.P,USBC1,0,0*%
%TO.N,SHELL_A*%
X139497900Y-96772000D03*
D15*
X134137900Y-96772000D03*
D14*
X139497900Y-105412000D03*
D15*
X134137900Y-105412000D03*
D16*
%TO.P,USBC1,A1,GND*%
%TO.N,A10_A*%
X139957900Y-98092000D03*
%TO.P,USBC1,A2,TX1+*%
X139957900Y-98592000D03*
%TO.P,USBC1,A3,TX1-*%
X139957900Y-99092000D03*
%TO.P,USBC1,A4,VBUS*%
X139957900Y-99592000D03*
%TO.P,USBC1,A5,CC1*%
X139957900Y-100092000D03*
%TO.P,USBC1,A6,D+*%
X139957900Y-100592000D03*
%TO.P,USBC1,A7,D-*%
X139957900Y-101592000D03*
%TO.P,USBC1,A8,SBU1*%
X139957900Y-102092000D03*
%TO.P,USBC1,A9,VBUS*%
X139957900Y-102592000D03*
%TO.P,USBC1,A10,RX2-*%
X139957900Y-103092000D03*
%TO.P,USBC1,A11,RX2+*%
X139957900Y-103592000D03*
%TO.P,USBC1,A12,GND*%
X139957900Y-104092000D03*
D17*
%TO.P,USBC1,B1,GND*%
%TO.N,B1_A*%
X138607900Y-104192000D03*
D18*
%TO.P,USBC1,B2,TX2+*%
%TO.N,B2_A*%
X138607900Y-103342000D03*
%TO.P,USBC1,B3,TX2-*%
%TO.N,B3_A*%
X138607900Y-102842000D03*
%TO.P,USBC1,B4,VBUS*%
%TO.N,B4_A*%
X138607900Y-102342000D03*
%TO.P,USBC1,B5,CC2*%
%TO.N,B5_A*%
X138607900Y-101842000D03*
%TO.P,USBC1,B6,D+*%
%TO.N,B6_A*%
X138607900Y-101342000D03*
%TO.P,USBC1,B7,D-*%
%TO.N,B7_A*%
X138607900Y-100842000D03*
%TO.P,USBC1,B8,SBU2*%
%TO.N,B8_A*%
X138607900Y-100342000D03*
%TO.P,USBC1,B9,VBUS*%
%TO.N,B9_A*%
X138607900Y-99842000D03*
%TO.P,USBC1,B10,RX1-*%
%TO.N,B10_A*%
X138607900Y-99342000D03*
%TO.P,USBC1,B11,RX1+*%
%TO.N,B11_A*%
X138607900Y-98842000D03*
D17*
%TO.P,USBC1,B12,GND*%
%TO.N,B12_A*%
X138607900Y-97992000D03*
%TD*%
D10*
%TO.P,R11,1*%
%TO.N,Net-(B11-A)*%
X148373600Y-88107800D03*
%TO.P,R11,2*%
%TO.N,B11_A*%
X146723600Y-88107800D03*
%TD*%
D11*
%TO.P,B12,2,A*%
%TO.N,Net-(B12-A)*%
X157175000Y-85110000D03*
%TO.P,B12,1,K*%
%TO.N,Net-(A1-K)*%
X158750000Y-85110000D03*
%TD*%
D13*
%TO.P,A2,1,K*%
%TO.N,Net-(A1-K)*%
X175463100Y-88161200D03*
%TO.P,A2,2,A*%
%TO.N,Net-(A2-A)*%
X177038100Y-88161200D03*
%TD*%
D12*
%TO.P,R15,1*%
%TO.N,Net-(A3-A)*%
X185153900Y-91158900D03*
%TO.P,R15,2*%
%TO.N,A3_B*%
X186803900Y-91158900D03*
%TD*%
D11*
%TO.P,B1,2,A*%
%TO.N,Net-(B1-A)*%
X157175000Y-118110000D03*
%TO.P,B1,1,K*%
%TO.N,Net-(A1-K)*%
X158750000Y-118110000D03*
%TD*%
D10*
%TO.P,R10,1*%
%TO.N,Net-(B10-A)*%
X148373600Y-91107800D03*
%TO.P,R10,2*%
%TO.N,B10_A*%
X146723600Y-91107800D03*
%TD*%
D12*
%TO.P,R24,1*%
%TO.N,Net-(A12-A)*%
X185153800Y-118158900D03*
%TO.P,R24,2*%
%TO.N,A12_B*%
X186803800Y-118158900D03*
%TD*%
D13*
%TO.P,A3,1,K*%
%TO.N,Net-(A1-K)*%
X175463000Y-91161200D03*
%TO.P,A3,2,A*%
%TO.N,Net-(A3-A)*%
X177038000Y-91161200D03*
%TD*%
D11*
%TO.P,B6,2,A*%
%TO.N,Net-(B6-A)*%
X157175000Y-103110000D03*
%TO.P,B6,1,K*%
%TO.N,Net-(A1-K)*%
X158750000Y-103110000D03*
%TD*%
D10*
%TO.P,R2,1*%
%TO.N,Net-(B2-A)*%
X148373600Y-115107800D03*
%TO.P,R2,2*%
%TO.N,B2_A*%
X146723600Y-115107800D03*
%TD*%
D12*
%TO.P,R13,1*%
%TO.N,Net-(A1-A)*%
X185153800Y-85158900D03*
%TO.P,R13,2*%
%TO.N,A1_B*%
X186803800Y-85158900D03*
%TD*%
%TO.P,R14,1*%
%TO.N,Net-(A2-A)*%
X185153800Y-88158900D03*
%TO.P,R14,2*%
%TO.N,A2_B*%
X186803800Y-88158900D03*
%TD*%
D10*
%TO.P,R8,1*%
%TO.N,Net-(B8-A)*%
X148373600Y-97107800D03*
%TO.P,R8,2*%
%TO.N,B8_A*%
X146723600Y-97107800D03*
%TD*%
D11*
%TO.P,B5,2,A*%
%TO.N,Net-(B5-A)*%
X157175000Y-106110000D03*
%TO.P,B5,1,K*%
%TO.N,Net-(A1-K)*%
X158750000Y-106110000D03*
%TD*%
D10*
%TO.P,R25,2*%
%TO.N,SHELL_A*%
X135801500Y-108153200D03*
%TO.P,R25,1*%
%TO.N,Net-(D25-A)*%
X137451500Y-108153200D03*
%TD*%
D13*
%TO.P,A1,2,A*%
%TO.N,Net-(A1-A)*%
X177038100Y-85161200D03*
%TO.P,A1,1,K*%
%TO.N,Net-(A1-K)*%
X175463100Y-85161200D03*
%TD*%
D12*
%TO.P,R21,1*%
%TO.N,Net-(A9-A)*%
X185153900Y-109158900D03*
%TO.P,R21,2*%
%TO.N,A9_B*%
X186803900Y-109158900D03*
%TD*%
D13*
%TO.P,A7,1,K*%
%TO.N,Net-(A1-K)*%
X175463000Y-103161200D03*
%TO.P,A7,2,A*%
%TO.N,Net-(A7-A)*%
X177038000Y-103161200D03*
%TD*%
D12*
%TO.P,R16,1*%
%TO.N,Net-(A4-A)*%
X185153900Y-94158900D03*
%TO.P,R16,2*%
%TO.N,A4_B*%
X186803900Y-94158900D03*
%TD*%
%TO.P,R17,1*%
%TO.N,Net-(A5-A)*%
X185153900Y-97158900D03*
%TO.P,R17,2*%
%TO.N,A5_B*%
X186803900Y-97158900D03*
%TD*%
D11*
%TO.P,B10,2,A*%
%TO.N,Net-(B10-A)*%
X157175000Y-91110000D03*
%TO.P,B10,1,K*%
%TO.N,Net-(A1-K)*%
X158750000Y-91110000D03*
%TD*%
%TO.P,B9,2,A*%
%TO.N,Net-(B9-A)*%
X157175000Y-94110000D03*
%TO.P,B9,1,K*%
%TO.N,Net-(A1-K)*%
X158750000Y-94110000D03*
%TD*%
D10*
%TO.P,R4,1*%
%TO.N,Net-(B4-A)*%
X148373600Y-109107800D03*
%TO.P,R4,2*%
%TO.N,B4_A*%
X146723600Y-109107800D03*
%TD*%
D13*
%TO.P,A11,1,K*%
%TO.N,Net-(A1-K)*%
X175463000Y-115161200D03*
%TO.P,A11,2,A*%
%TO.N,Net-(A11-A)*%
X177038000Y-115161200D03*
%TD*%
D14*
%TO.P,USBC2,0,0*%
%TO.N,A10_A*%
X193572400Y-105798400D03*
D15*
X198932400Y-105798400D03*
D14*
X193572400Y-97158400D03*
D15*
X198932400Y-97158400D03*
D16*
%TO.P,USBC2,A1,GND*%
%TO.N,A1_B*%
X193112400Y-104478400D03*
%TO.P,USBC2,A2,TX1+*%
%TO.N,A2_B*%
X193112400Y-103978400D03*
%TO.P,USBC2,A3,TX1-*%
%TO.N,A3_B*%
X193112400Y-103478400D03*
%TO.P,USBC2,A4,VBUS*%
%TO.N,A4_B*%
X193112400Y-102978400D03*
%TO.P,USBC2,A5,CC1*%
%TO.N,A5_B*%
X193112400Y-102478400D03*
%TO.P,USBC2,A6,D+*%
%TO.N,A6_B*%
X193112400Y-101978400D03*
%TO.P,USBC2,A7,D-*%
%TO.N,A7_B*%
X193112400Y-100978400D03*
%TO.P,USBC2,A8,SBU1*%
%TO.N,A8_B*%
X193112400Y-100478400D03*
%TO.P,USBC2,A9,VBUS*%
%TO.N,A9_B*%
X193112400Y-99978400D03*
%TO.P,USBC2,A10,RX2-*%
%TO.N,A10_B*%
X193112400Y-99478400D03*
%TO.P,USBC2,A11,RX2+*%
%TO.N,A11_B*%
X193112400Y-98978400D03*
%TO.P,USBC2,A12,GND*%
%TO.N,A12_B*%
X193112400Y-98478400D03*
D17*
%TO.P,USBC2,B1,GND*%
%TO.N,A10_A*%
X194462400Y-98378400D03*
D18*
%TO.P,USBC2,B2,TX2+*%
X194462400Y-99228400D03*
%TO.P,USBC2,B3,TX2-*%
X194462400Y-99728400D03*
%TO.P,USBC2,B4,VBUS*%
X194462400Y-100228400D03*
%TO.P,USBC2,B5,CC2*%
X194462400Y-100728400D03*
%TO.P,USBC2,B6,D+*%
X194462400Y-101228400D03*
%TO.P,USBC2,B7,D-*%
X194462400Y-101728400D03*
%TO.P,USBC2,B8,SBU2*%
X194462400Y-102228400D03*
%TO.P,USBC2,B9,VBUS*%
X194462400Y-102728400D03*
%TO.P,USBC2,B10,RX1-*%
X194462400Y-103228400D03*
%TO.P,USBC2,B11,RX1+*%
X194462400Y-103728400D03*
D17*
%TO.P,USBC2,B12,GND*%
X194462400Y-104578400D03*
%TD*%
D12*
%TO.P,R18,1*%
%TO.N,Net-(A6-A)*%
X185153900Y-100158900D03*
%TO.P,R18,2*%
%TO.N,A6_B*%
X186803900Y-100158900D03*
%TD*%
D13*
%TO.P,A6,1,K*%
%TO.N,Net-(A1-K)*%
X175463000Y-100161200D03*
%TO.P,A6,2,A*%
%TO.N,Net-(A6-A)*%
X177038000Y-100161200D03*
%TD*%
%TO.P,A12,1,K*%
%TO.N,Net-(A1-K)*%
X175463100Y-118161200D03*
%TO.P,A12,2,A*%
%TO.N,Net-(A12-A)*%
X177038100Y-118161200D03*
%TD*%
D10*
%TO.P,R12,1*%
%TO.N,Net-(B12-A)*%
X148373600Y-85107800D03*
%TO.P,R12,2*%
%TO.N,B12_A*%
X146723600Y-85107800D03*
%TD*%
D12*
%TO.P,R20,1*%
%TO.N,Net-(A8-A)*%
X185153900Y-106158900D03*
%TO.P,R20,2*%
%TO.N,A8_B*%
X186803900Y-106158900D03*
%TD*%
D11*
%TO.P,B11,2,A*%
%TO.N,Net-(B11-A)*%
X157175000Y-88110000D03*
%TO.P,B11,1,K*%
%TO.N,Net-(A1-K)*%
X158750000Y-88110000D03*
%TD*%
%TO.P,B3,2,A*%
%TO.N,Net-(B3-A)*%
X157175000Y-112110000D03*
%TO.P,B3,1,K*%
%TO.N,Net-(A1-K)*%
X158750000Y-112110000D03*
%TD*%
D13*
%TO.P,A5,1,K*%
%TO.N,Net-(A1-K)*%
X175463000Y-97161200D03*
%TO.P,A5,2,A*%
%TO.N,Net-(A5-A)*%
X177038000Y-97161200D03*
%TD*%
%TO.P,A8,1,K*%
%TO.N,Net-(A1-K)*%
X175463000Y-106161200D03*
%TO.P,A8,2,A*%
%TO.N,Net-(A8-A)*%
X177038000Y-106161200D03*
%TD*%
D10*
%TO.P,R1,1*%
%TO.N,Net-(B1-A)*%
X148373600Y-118107700D03*
%TO.P,R1,2*%
%TO.N,B1_A*%
X146723600Y-118107700D03*
%TD*%
D11*
%TO.P,B4,2,A*%
%TO.N,Net-(B4-A)*%
X157175000Y-109110000D03*
%TO.P,B4,1,K*%
%TO.N,Net-(A1-K)*%
X158750000Y-109110000D03*
%TD*%
D12*
%TO.P,R23,1*%
%TO.N,Net-(A11-A)*%
X185153800Y-115158900D03*
%TO.P,R23,2*%
%TO.N,A11_B*%
X186803800Y-115158900D03*
%TD*%
%TO.P,R22,1*%
%TO.N,Net-(A10-A)*%
X185153900Y-112158900D03*
%TO.P,R22,2*%
%TO.N,A10_B*%
X186803900Y-112158900D03*
%TD*%
D11*
%TO.P,B7,2,A*%
%TO.N,Net-(B7-A)*%
X157175000Y-100110000D03*
%TO.P,B7,1,K*%
%TO.N,Net-(A1-K)*%
X158750000Y-100110000D03*
%TD*%
D13*
%TO.P,D25,2,A*%
%TO.N,Net-(D25-A)*%
X137439400Y-109855000D03*
%TO.P,D25,1,K*%
%TO.N,Net-(A1-K)*%
X135864400Y-109855000D03*
%TD*%
D10*
%TO.P,R5,1*%
%TO.N,Net-(B5-A)*%
X148373500Y-106107800D03*
%TO.P,R5,2*%
%TO.N,B5_A*%
X146723500Y-106107800D03*
%TD*%
D19*
%TO.N,Net-(A1-K)*%
X135940800Y-111861600D03*
%TO.N,B7_A*%
X144932400Y-99974400D03*
X135889571Y-99970216D03*
%TO.N,B6_A*%
X144551400Y-103073200D03*
X135991600Y-100965000D03*
%TO.N,B5_A*%
X144602200Y-106121200D03*
X135915400Y-102006400D03*
%TO.N,B4_A*%
X136652000Y-102895400D03*
X144881600Y-109042200D03*
%TO.N,B3_A*%
X144830800Y-112115600D03*
X136525000Y-105841800D03*
%TO.N,B2_A*%
X144856200Y-115062000D03*
X137388600Y-106629200D03*
%TO.N,B8_A*%
X145059400Y-97205800D03*
X136047900Y-92608400D03*
%TO.N,B9_A*%
X145211800Y-94132400D03*
X137210800Y-91135200D03*
%TO.N,B10_A*%
X145186400Y-91135200D03*
X140127147Y-89301747D03*
%TO.N,B11_A*%
X145313400Y-88315800D03*
X142138400Y-88315800D03*
%TO.N,A8_B*%
X188378000Y-99009200D03*
X188378000Y-104775000D03*
%TO.N,A9_B*%
X189103000Y-97942400D03*
X189103000Y-109143800D03*
%TO.N,A10_B*%
X189509400Y-96901000D03*
X189837400Y-111683800D03*
%TO.N,A11_B*%
X190449200Y-96215200D03*
X190576200Y-112725200D03*
%TO.N,A12_B*%
X191287400Y-95478600D03*
X191312800Y-111175800D03*
%TO.N,A5_B*%
X192628947Y-111028053D03*
X194056000Y-107797600D03*
%TO.N,A4_B*%
X193751200Y-111125000D03*
X194719256Y-108582689D03*
%TO.N,A3_B*%
X195529200Y-109169200D03*
X194945000Y-111099600D03*
%TO.N,A2_B*%
X196480600Y-110783200D03*
X196480600Y-108864400D03*
%TD*%
D20*
%TO.N,Net-(A1-K)*%
X135940800Y-111861600D02*
X135940800Y-109931400D01*
X135940800Y-109931400D02*
X135864400Y-109855000D01*
%TO.N,B1_A*%
X138607900Y-104192000D02*
X138122900Y-104677000D01*
X138122900Y-107601596D02*
X138201900Y-107680596D01*
X138122900Y-104677000D02*
X138122900Y-107601596D01*
X138201900Y-107680596D02*
X138201900Y-109626900D01*
X138201900Y-109626900D02*
X146682700Y-118107700D01*
X146682700Y-118107700D02*
X146723600Y-118107700D01*
%TO.N,A10_A*%
X139957900Y-98092000D02*
X139957900Y-104092000D01*
%TO.N,SHELL_A*%
X134137900Y-96772000D02*
X134137900Y-105412000D01*
X134137900Y-105412000D02*
X134137900Y-106489600D01*
X134137900Y-106489600D02*
X135801500Y-108153200D01*
%TO.N,B7_A*%
X138607900Y-100842000D02*
X136893905Y-100842000D01*
X136022121Y-99970216D02*
X135889571Y-99970216D01*
X136893905Y-100842000D02*
X136022121Y-99970216D01*
X144932400Y-99974400D02*
X146590200Y-99974400D01*
X146590200Y-99974400D02*
X146723600Y-100107800D01*
%TO.N,B6_A*%
X138607900Y-101342000D02*
X136368600Y-101342000D01*
X136368600Y-101342000D02*
X135991600Y-100965000D01*
X144551400Y-103073200D02*
X146689000Y-103073200D01*
X146689000Y-103073200D02*
X146723600Y-103107800D01*
%TO.N,B5_A*%
X144602200Y-106121200D02*
X146710100Y-106121200D01*
X136079800Y-101842000D02*
X135915400Y-102006400D01*
X138607900Y-101842000D02*
X136079800Y-101842000D01*
X146710100Y-106121200D02*
X146723500Y-106107800D01*
%TO.N,B4_A*%
X144881600Y-109042200D02*
X146658000Y-109042200D01*
X146658000Y-109042200D02*
X146723600Y-109107800D01*
X138607900Y-102342000D02*
X137205400Y-102342000D01*
X137205400Y-102342000D02*
X136652000Y-102895400D01*
%TO.N,B3_A*%
X144830800Y-112115600D02*
X146715700Y-112115600D01*
X146715700Y-112115600D02*
X146723500Y-112107800D01*
X136525000Y-105841800D02*
X136525000Y-104138504D01*
X136525000Y-104138504D02*
X137821504Y-102842000D01*
X137821504Y-102842000D02*
X138607900Y-102842000D01*
%TO.N,B2_A*%
X138607900Y-103342000D02*
X137957900Y-103342000D01*
X137957900Y-103342000D02*
X137388600Y-103911300D01*
X144856200Y-115062000D02*
X146677800Y-115062000D01*
X137388600Y-103911300D02*
X137388600Y-106629200D01*
X146677800Y-115062000D02*
X146723600Y-115107800D01*
%TO.N,Net-(D25-A)*%
X137451500Y-108153200D02*
X137451500Y-109842900D01*
X137451500Y-109842900D02*
X137439400Y-109855000D01*
%TO.N,B8_A*%
X136047900Y-98841188D02*
X136047900Y-92608400D01*
X146625600Y-97205800D02*
X146723600Y-97107800D01*
X138607900Y-100342000D02*
X137548712Y-100342000D01*
X137548712Y-100342000D02*
X136047900Y-98841188D01*
X145059400Y-97205800D02*
X146625600Y-97205800D01*
%TO.N,B9_A*%
X138607900Y-99842000D02*
X137685108Y-99842000D01*
X136772900Y-98929792D02*
X136772900Y-91573100D01*
X137685108Y-99842000D02*
X136772900Y-98929792D01*
X136772900Y-91573100D02*
X137210800Y-91135200D01*
X145211800Y-94132400D02*
X146699000Y-94132400D01*
X146699000Y-94132400D02*
X146723600Y-94107800D01*
%TO.N,B10_A*%
X137222900Y-98743396D02*
X137222900Y-92205994D01*
X137222900Y-92205994D02*
X140127147Y-89301747D01*
X138607900Y-99342000D02*
X137821504Y-99342000D01*
X137821504Y-99342000D02*
X137222900Y-98743396D01*
X146696200Y-91135200D02*
X146723600Y-91107800D01*
X145186400Y-91135200D02*
X146696200Y-91135200D01*
%TO.N,B12_A*%
X138607900Y-97992000D02*
X138122900Y-97507000D01*
X138122900Y-97507000D02*
X138122900Y-95887300D01*
X138122900Y-95887300D02*
X144588400Y-89421800D01*
X144588400Y-87243000D02*
X146723600Y-85107800D01*
X144588400Y-89421800D02*
X144588400Y-87243000D01*
%TO.N,B11_A*%
X145313400Y-88315800D02*
X146515600Y-88315800D01*
X138607900Y-98842000D02*
X137957900Y-98842000D01*
X137957900Y-98842000D02*
X137672900Y-98557000D01*
X137672900Y-98557000D02*
X137672900Y-92781300D01*
X137672900Y-92781300D02*
X142138400Y-88315800D01*
X146515600Y-88315800D02*
X146723600Y-88107800D01*
%TO.N,A10_A*%
X194462400Y-104578400D02*
X194462400Y-104908400D01*
X194462400Y-104908400D02*
X193572400Y-105798400D01*
X194462400Y-98378400D02*
X194462400Y-104578400D01*
X193572400Y-97158400D02*
X193572400Y-97488400D01*
X193572400Y-97488400D02*
X194462400Y-98378400D01*
%TO.N,A8_B*%
X188378000Y-99009200D02*
X189847200Y-100478400D01*
X186803900Y-106158900D02*
X186994100Y-106158900D01*
X186994100Y-106158900D02*
X188378000Y-104775000D01*
X189847200Y-100478400D02*
X193112400Y-100478400D01*
%TO.N,A9_B*%
X186803900Y-109158900D02*
X189087900Y-109158900D01*
X189087900Y-109158900D02*
X189103000Y-109143800D01*
X191139000Y-99978400D02*
X193112400Y-99978400D01*
X189103000Y-97942400D02*
X191139000Y-99978400D01*
%TO.N,A10_B*%
X192086800Y-99478400D02*
X193112400Y-99478400D01*
X186803900Y-112158900D02*
X189362300Y-112158900D01*
X189362300Y-112158900D02*
X189837400Y-111683800D01*
X189509400Y-96901000D02*
X192086800Y-99478400D01*
%TO.N,A11_B*%
X192412400Y-98978400D02*
X193112400Y-98978400D01*
X188142500Y-115158900D02*
X190576200Y-112725200D01*
X190449200Y-96215200D02*
X190449200Y-97015200D01*
X186803800Y-115158900D02*
X188142500Y-115158900D01*
X190449200Y-97015200D02*
X192412400Y-98978400D01*
%TO.N,A12_B*%
X191312800Y-113649900D02*
X191312800Y-111175800D01*
X186803800Y-118158900D02*
X191312800Y-113649900D01*
X191287400Y-95478600D02*
X191287400Y-96653400D01*
X191287400Y-96653400D02*
X193112400Y-98478400D01*
%TO.N,A7_B*%
X186803800Y-103158900D02*
X186078900Y-102434000D01*
X186078900Y-102434000D02*
X186078900Y-99660896D01*
X186078900Y-99660896D02*
X186380896Y-99358900D01*
X186380896Y-99358900D02*
X187226904Y-99358900D01*
X187226904Y-99358900D02*
X188909204Y-101041200D01*
X193049600Y-101041200D02*
X193112400Y-100978400D01*
X188909204Y-101041200D02*
X193049600Y-101041200D01*
%TO.N,A6_B*%
X186803900Y-100158900D02*
X188623400Y-101978400D01*
X188623400Y-101978400D02*
X193112400Y-101978400D01*
%TO.N,A5_B*%
X186803900Y-97158900D02*
X189353900Y-94608900D01*
X189353900Y-94608900D02*
X193708216Y-94608900D01*
X193708216Y-94608900D02*
X195405600Y-96306284D01*
X195405600Y-96306284D02*
X195405600Y-106448000D01*
X195405600Y-106448000D02*
X194056000Y-107797600D01*
X192628947Y-111028053D02*
X190376400Y-108775506D01*
X190376400Y-104084404D02*
X191982404Y-102478400D01*
X190376400Y-108775506D02*
X190376400Y-104084404D01*
X191982404Y-102478400D02*
X193112400Y-102478400D01*
%TO.N,A4_B*%
X186803900Y-94158900D02*
X193894612Y-94158900D01*
X193894612Y-94158900D02*
X195855600Y-96119888D01*
X195855600Y-107446345D02*
X194719256Y-108582689D01*
X195855600Y-96119888D02*
X195855600Y-107446345D01*
X193751200Y-111125000D02*
X190826400Y-108200200D01*
X190826400Y-108200200D02*
X190826400Y-104270800D01*
X190826400Y-104270800D02*
X192118800Y-102978400D01*
X192118800Y-102978400D02*
X193112400Y-102978400D01*
%TO.N,A3_B*%
X195529200Y-109169200D02*
X195529200Y-108790495D01*
X196305600Y-95933492D02*
X191531008Y-91158900D01*
X195529200Y-108790495D02*
X196305600Y-108014095D01*
X191531008Y-91158900D02*
X186803900Y-91158900D01*
X196305600Y-108014095D02*
X196305600Y-95933492D01*
%TO.N,A2_B*%
X196480600Y-108864400D02*
X196755600Y-108589400D01*
X196755600Y-108589400D02*
X196755600Y-95747096D01*
X196755600Y-95747096D02*
X189167404Y-88158900D01*
X189167404Y-88158900D02*
X186803800Y-88158900D01*
%TO.N,A1_B*%
X186803800Y-85158900D02*
X197205600Y-95560700D01*
X197205600Y-95560700D02*
X197205600Y-109270800D01*
X197205600Y-109270800D02*
X196551800Y-109924600D01*
X196551800Y-109924600D02*
X194887600Y-109924600D01*
X194887600Y-109924600D02*
X192176400Y-107213400D01*
X192176400Y-107213400D02*
X192176400Y-105414400D01*
X192176400Y-105414400D02*
X193112400Y-104478400D01*
%TO.N,A2_B*%
X192412400Y-103978400D02*
X193112400Y-103978400D01*
X194701204Y-110374600D02*
X191726400Y-107399796D01*
X196480600Y-110783200D02*
X196464505Y-110799295D01*
X196464505Y-110799295D02*
X195670000Y-110799295D01*
X191726400Y-104664400D02*
X192412400Y-103978400D01*
X195670000Y-110799295D02*
X195245305Y-110374600D01*
X195245305Y-110374600D02*
X194701204Y-110374600D01*
X191726400Y-107399796D02*
X191726400Y-104664400D01*
%TO.N,A3_B*%
X191276400Y-104478004D02*
X192276004Y-103478400D01*
X192276004Y-103478400D02*
X193112400Y-103478400D01*
X194945000Y-111099600D02*
X194789808Y-111099600D01*
X194789808Y-111099600D02*
X191276400Y-107586192D01*
X191276400Y-107586192D02*
X191276400Y-104478004D01*
%TO.N,Net-(B1-A)*%
X148373600Y-118107700D02*
X157172700Y-118107700D01*
X157172700Y-118107700D02*
X157175000Y-118110000D01*
%TO.N,Net-(B2-A)*%
X148373600Y-115107800D02*
X157172700Y-115107800D01*
X157172700Y-115107800D02*
X157174900Y-115110000D01*
%TO.N,Net-(B3-A)*%
X148373500Y-112107800D02*
X157172800Y-112107800D01*
X157172800Y-112107800D02*
X157175000Y-112110000D01*
%TO.N,Net-(B4-A)*%
X148373600Y-109107800D02*
X157172800Y-109107800D01*
X157172800Y-109107800D02*
X157175000Y-109110000D01*
%TO.N,Net-(B5-A)*%
X148373500Y-106107800D02*
X157172800Y-106107800D01*
X157172800Y-106107800D02*
X157175000Y-106110000D01*
%TO.N,Net-(B6-A)*%
X148373600Y-103107800D02*
X157172800Y-103107800D01*
X157172800Y-103107800D02*
X157175000Y-103110000D01*
%TO.N,Net-(B7-A)*%
X148373600Y-100107800D02*
X157172800Y-100107800D01*
X157172800Y-100107800D02*
X157175000Y-100110000D01*
%TO.N,Net-(B8-A)*%
X148373600Y-97107800D02*
X157172700Y-97107800D01*
X157172700Y-97107800D02*
X157174900Y-97110000D01*
%TO.N,Net-(B9-A)*%
X148373600Y-94107800D02*
X157172800Y-94107800D01*
X157172800Y-94107800D02*
X157175000Y-94110000D01*
%TO.N,Net-(B10-A)*%
X148373600Y-91107800D02*
X157172800Y-91107800D01*
X157172800Y-91107800D02*
X157175000Y-91110000D01*
%TO.N,Net-(B11-A)*%
X148373600Y-88107800D02*
X157172800Y-88107800D01*
X157172800Y-88107800D02*
X157175000Y-88110000D01*
%TO.N,Net-(B12-A)*%
X148373600Y-85107800D02*
X157172800Y-85107800D01*
X157172800Y-85107800D02*
X157175000Y-85110000D01*
%TO.N,Net-(A1-A)*%
X177038100Y-85161200D02*
X185151500Y-85161200D01*
X185151500Y-85161200D02*
X185153800Y-85158900D01*
%TO.N,Net-(A2-A)*%
X177038100Y-88161200D02*
X185151500Y-88161200D01*
X185151500Y-88161200D02*
X185153800Y-88158900D01*
%TO.N,Net-(A3-A)*%
X177038000Y-91161200D02*
X185151600Y-91161200D01*
X185151600Y-91161200D02*
X185153900Y-91158900D01*
%TO.N,Net-(A4-A)*%
X177038000Y-94161200D02*
X185151600Y-94161200D01*
X185151600Y-94161200D02*
X185153900Y-94158900D01*
%TO.N,Net-(A5-A)*%
X177038000Y-97161200D02*
X185151600Y-97161200D01*
X185151600Y-97161200D02*
X185153900Y-97158900D01*
%TO.N,Net-(A6-A)*%
X177038000Y-100161200D02*
X185151600Y-100161200D01*
X185151600Y-100161200D02*
X185153900Y-100158900D01*
%TO.N,Net-(A7-A)*%
X177038000Y-103161200D02*
X185151500Y-103161200D01*
X185151500Y-103161200D02*
X185153800Y-103158900D01*
%TO.N,Net-(A8-A)*%
X177038000Y-106161200D02*
X185151600Y-106161200D01*
X185151600Y-106161200D02*
X185153900Y-106158900D01*
%TO.N,Net-(A9-A)*%
X177038000Y-109161200D02*
X185151600Y-109161200D01*
X185151600Y-109161200D02*
X185153900Y-109158900D01*
%TO.N,Net-(A10-A)*%
X177038100Y-112161200D02*
X185151600Y-112161200D01*
X185151600Y-112161200D02*
X185153900Y-112158900D01*
%TO.N,Net-(A11-A)*%
X177038000Y-115161200D02*
X185151500Y-115161200D01*
X185151500Y-115161200D02*
X185153800Y-115158900D01*
%TO.N,Net-(A12-A)*%
X177038100Y-118161200D02*
X185151500Y-118161200D01*
X185151500Y-118161200D02*
X185153800Y-118158900D01*
%TO.N,Net-(A1-K)*%
X175463100Y-85161200D02*
X175463100Y-118161200D01*
X158750000Y-85110000D02*
X158750000Y-118110000D01*
%TD*%
M02*
