%TF.GenerationSoftware,KiCad,Pcbnew,7.0.10*%
%TF.CreationDate,2024-02-08T12:53:37+00:00*%
%TF.ProjectId,USB-tester,5553422d-7465-4737-9465-722e6b696361,rev?*%
%TF.SameCoordinates,Original*%
%TF.FileFunction,Legend,Top*%
%TF.FilePolarity,Positive*%
%FSLAX46Y46*%
G04 Gerber Fmt 4.6, Leading zero omitted, Abs format (unit mm)*
G04 Created by KiCad (PCBNEW 7.0.10) date 2024-02-08 12:53:37*
%MOMM*%
%LPD*%
G01*
G04 APERTURE LIST*
%ADD10C,0.150000*%
%ADD11C,0.300000*%
%ADD12C,0.120000*%
%ADD13C,0.250000*%
G04 APERTURE END LIST*
D10*
X170756247Y-88728670D02*
X169486249Y-88728664D01*
X169486246Y-87458671D01*
X170756248Y-87458668D01*
X170756247Y-88728670D01*
G36*
X170756247Y-88728670D02*
G01*
X169486249Y-88728664D01*
X169486246Y-87458671D01*
X170756248Y-87458668D01*
X170756247Y-88728670D01*
G37*
X170756250Y-118816124D02*
X169486250Y-118816122D01*
X169486248Y-117546123D01*
X170756249Y-117546122D01*
X170756250Y-118816124D01*
G36*
X170756250Y-118816124D02*
G01*
X169486250Y-118816122D01*
X169486248Y-117546123D01*
X170756249Y-117546122D01*
X170756250Y-118816124D01*
G37*
X170756249Y-96484904D02*
X170756247Y-97754902D01*
X169486252Y-97754902D01*
X169486246Y-96484901D01*
X170756249Y-96484904D01*
G36*
X170756249Y-96484904D02*
G01*
X170756247Y-97754902D01*
X169486252Y-97754902D01*
X169486246Y-96484901D01*
X170756249Y-96484904D01*
G37*
X162933047Y-119330727D02*
X162933049Y-84367123D01*
X168807048Y-121330649D02*
G75*
G03*
X170807049Y-119330722I52J1999949D01*
G01*
X170756248Y-112798629D02*
X169486246Y-112798628D01*
X169486246Y-111528629D01*
X170756247Y-111528626D01*
X170756248Y-112798629D01*
G36*
X170756248Y-112798629D02*
G01*
X169486246Y-112798628D01*
X169486246Y-111528629D01*
X170756247Y-111528626D01*
X170756248Y-112798629D01*
G37*
X164253848Y-96484906D02*
X164253850Y-97754905D01*
X162983847Y-97754903D01*
X162983849Y-96484905D01*
X164253848Y-96484906D01*
G36*
X164253848Y-96484906D02*
G01*
X164253850Y-97754905D01*
X162983847Y-97754903D01*
X162983849Y-96484905D01*
X164253848Y-96484906D01*
G37*
X170807050Y-84367121D02*
X170807049Y-119330722D01*
X170756248Y-84449925D02*
X170756249Y-85719925D01*
X169486249Y-85719927D01*
X169486247Y-84449923D01*
X170756248Y-84449925D01*
G36*
X170756248Y-84449925D02*
G01*
X170756249Y-85719925D01*
X169486249Y-85719927D01*
X169486247Y-84449923D01*
X170756248Y-84449925D01*
G37*
X164253849Y-109789881D02*
X162983847Y-109789881D01*
X162983849Y-108519884D01*
X164253850Y-108519883D01*
X164253849Y-109789881D01*
G36*
X164253849Y-109789881D02*
G01*
X162983847Y-109789881D01*
X162983849Y-108519884D01*
X164253850Y-108519883D01*
X164253849Y-109789881D01*
G37*
X164253847Y-91737413D02*
X162983850Y-91737415D01*
X162983849Y-90467412D01*
X164253850Y-90467411D01*
X164253847Y-91737413D01*
G36*
X164253847Y-91737413D02*
G01*
X162983850Y-91737415D01*
X162983849Y-90467412D01*
X164253850Y-90467411D01*
X164253847Y-91737413D01*
G37*
X164253850Y-111528627D02*
X164253850Y-112798630D01*
X162983848Y-112798628D01*
X162983848Y-111528626D01*
X164253850Y-111528627D01*
G36*
X164253850Y-111528627D02*
G01*
X164253850Y-112798630D01*
X162983848Y-112798628D01*
X162983848Y-111528626D01*
X164253850Y-111528627D01*
G37*
X164253846Y-85719922D02*
X162983849Y-85719922D01*
X162983847Y-84449923D01*
X164253849Y-84449921D01*
X164253846Y-85719922D01*
G36*
X164253846Y-85719922D02*
G01*
X162983849Y-85719922D01*
X162983847Y-84449923D01*
X164253849Y-84449921D01*
X164253846Y-85719922D01*
G37*
X170756247Y-102502393D02*
X170756249Y-103772391D01*
X169486251Y-103772394D01*
X169486250Y-102502391D01*
X170756247Y-102502393D01*
G36*
X170756247Y-102502393D02*
G01*
X170756249Y-103772391D01*
X169486251Y-103772394D01*
X169486250Y-102502391D01*
X170756247Y-102502393D01*
G37*
X170756249Y-100763647D02*
X169486246Y-100763651D01*
X169486248Y-99493650D01*
X170756249Y-99493646D01*
X170756249Y-100763647D01*
G36*
X170756249Y-100763647D02*
G01*
X169486246Y-100763651D01*
X169486248Y-99493650D01*
X170756249Y-99493646D01*
X170756249Y-100763647D01*
G37*
X162933078Y-119330727D02*
G75*
G03*
X164933051Y-121330722I2000022J27D01*
G01*
X164933050Y-82367149D02*
G75*
G03*
X162933049Y-84367123I-50J-1999951D01*
G01*
X170756250Y-90467413D02*
X170756248Y-91737414D01*
X169486249Y-91737410D01*
X169486247Y-90467412D01*
X170756250Y-90467413D01*
G36*
X170756250Y-90467413D02*
G01*
X170756248Y-91737414D01*
X169486249Y-91737410D01*
X169486247Y-90467412D01*
X170756250Y-90467413D01*
G37*
X164253846Y-88728666D02*
X162983848Y-88728670D01*
X162983849Y-87458668D01*
X164253849Y-87458668D01*
X164253846Y-88728666D01*
G36*
X164253846Y-88728666D02*
G01*
X162983848Y-88728670D01*
X162983849Y-87458668D01*
X164253849Y-87458668D01*
X164253846Y-88728666D01*
G37*
X170756249Y-115807370D02*
X169486249Y-115807374D01*
X169486250Y-114537376D01*
X170756251Y-114537372D01*
X170756249Y-115807370D01*
G36*
X170756249Y-115807370D02*
G01*
X169486249Y-115807374D01*
X169486250Y-114537376D01*
X170756251Y-114537372D01*
X170756249Y-115807370D01*
G37*
X170756249Y-93476159D02*
X170756247Y-94746159D01*
X169486248Y-94746160D01*
X169486247Y-93476157D01*
X170756249Y-93476159D01*
G36*
X170756249Y-93476159D02*
G01*
X170756247Y-94746159D01*
X169486248Y-94746160D01*
X169486247Y-93476157D01*
X170756249Y-93476159D01*
G37*
X164253850Y-102502395D02*
X164253848Y-103772394D01*
X162983848Y-103772392D01*
X162983851Y-102502392D01*
X164253850Y-102502395D01*
G36*
X164253850Y-102502395D02*
G01*
X164253848Y-103772394D01*
X162983848Y-103772392D01*
X162983851Y-102502392D01*
X164253850Y-102502395D01*
G37*
X164253849Y-94746157D02*
X162983847Y-94746157D01*
X162983850Y-93476156D01*
X164253846Y-93476156D01*
X164253849Y-94746157D01*
G36*
X164253849Y-94746157D02*
G01*
X162983847Y-94746157D01*
X162983850Y-93476156D01*
X164253846Y-93476156D01*
X164253849Y-94746157D01*
G37*
X170756249Y-105511138D02*
X170756248Y-106781138D01*
X169486251Y-106781140D01*
X169486249Y-105511136D01*
X170756249Y-105511138D01*
G36*
X170756249Y-105511138D02*
G01*
X170756248Y-106781138D01*
X169486251Y-106781140D01*
X169486249Y-105511136D01*
X170756249Y-105511138D01*
G37*
X164253848Y-99493648D02*
X164253849Y-100763648D01*
X162983849Y-100763648D01*
X162983849Y-99493645D01*
X164253848Y-99493648D01*
G36*
X164253848Y-99493648D02*
G01*
X164253849Y-100763648D01*
X162983849Y-100763648D01*
X162983849Y-99493645D01*
X164253848Y-99493648D01*
G37*
X164253846Y-118816122D02*
X162983849Y-118816121D01*
X162983847Y-117546124D01*
X164253851Y-117546123D01*
X164253846Y-118816122D01*
G36*
X164253846Y-118816122D02*
G01*
X162983849Y-118816121D01*
X162983847Y-117546124D01*
X164253851Y-117546123D01*
X164253846Y-118816122D01*
G37*
X164253849Y-115807370D02*
X162983850Y-115807369D01*
X162983847Y-114537375D01*
X164253851Y-114537373D01*
X164253849Y-115807370D01*
G36*
X164253849Y-115807370D02*
G01*
X162983850Y-115807369D01*
X162983847Y-114537375D01*
X164253851Y-114537373D01*
X164253849Y-115807370D01*
G37*
X170807078Y-84367121D02*
G75*
G03*
X168807051Y-82367122I-1999978J21D01*
G01*
X164933050Y-82367121D02*
X168807051Y-82367122D01*
X164253851Y-106781136D02*
X162983852Y-106781136D01*
X162983847Y-105511137D01*
X164253850Y-105511136D01*
X164253851Y-106781136D01*
G36*
X164253851Y-106781136D02*
G01*
X162983852Y-106781136D01*
X162983847Y-105511137D01*
X164253850Y-105511136D01*
X164253851Y-106781136D01*
G37*
X170756247Y-109789885D02*
X169486250Y-109789883D01*
X169486248Y-108519886D01*
X170756245Y-108519884D01*
X170756247Y-109789885D01*
G36*
X170756247Y-109789885D02*
G01*
X169486250Y-109789883D01*
X169486248Y-108519886D01*
X170756245Y-108519884D01*
X170756247Y-109789885D01*
G37*
X168807048Y-121330721D02*
X164933051Y-121330722D01*
D11*
X152902025Y-117472857D02*
X152759168Y-117401428D01*
X152759168Y-117401428D02*
X152544882Y-117401428D01*
X152544882Y-117401428D02*
X152330596Y-117472857D01*
X152330596Y-117472857D02*
X152187739Y-117615714D01*
X152187739Y-117615714D02*
X152116310Y-117758571D01*
X152116310Y-117758571D02*
X152044882Y-118044285D01*
X152044882Y-118044285D02*
X152044882Y-118258571D01*
X152044882Y-118258571D02*
X152116310Y-118544285D01*
X152116310Y-118544285D02*
X152187739Y-118687142D01*
X152187739Y-118687142D02*
X152330596Y-118830000D01*
X152330596Y-118830000D02*
X152544882Y-118901428D01*
X152544882Y-118901428D02*
X152687739Y-118901428D01*
X152687739Y-118901428D02*
X152902025Y-118830000D01*
X152902025Y-118830000D02*
X152973453Y-118758571D01*
X152973453Y-118758571D02*
X152973453Y-118258571D01*
X152973453Y-118258571D02*
X152687739Y-118258571D01*
X153616310Y-118901428D02*
X153616310Y-117401428D01*
X153616310Y-117401428D02*
X154473453Y-118901428D01*
X154473453Y-118901428D02*
X154473453Y-117401428D01*
X155187739Y-118901428D02*
X155187739Y-117401428D01*
X155187739Y-117401428D02*
X155544882Y-117401428D01*
X155544882Y-117401428D02*
X155759168Y-117472857D01*
X155759168Y-117472857D02*
X155902025Y-117615714D01*
X155902025Y-117615714D02*
X155973454Y-117758571D01*
X155973454Y-117758571D02*
X156044882Y-118044285D01*
X156044882Y-118044285D02*
X156044882Y-118258571D01*
X156044882Y-118258571D02*
X155973454Y-118544285D01*
X155973454Y-118544285D02*
X155902025Y-118687142D01*
X155902025Y-118687142D02*
X155759168Y-118830000D01*
X155759168Y-118830000D02*
X155544882Y-118901428D01*
X155544882Y-118901428D02*
X155187739Y-118901428D01*
X150530425Y-114401426D02*
X151387568Y-114401426D01*
X150958996Y-115901426D02*
X150958996Y-114401426D01*
X151744710Y-114401426D02*
X152744710Y-115901426D01*
X152744710Y-114401426D02*
X151744710Y-115901426D01*
X153244710Y-114544283D02*
X153316138Y-114472855D01*
X153316138Y-114472855D02*
X153458996Y-114401426D01*
X153458996Y-114401426D02*
X153816138Y-114401426D01*
X153816138Y-114401426D02*
X153958996Y-114472855D01*
X153958996Y-114472855D02*
X154030424Y-114544283D01*
X154030424Y-114544283D02*
X154101853Y-114687140D01*
X154101853Y-114687140D02*
X154101853Y-114829998D01*
X154101853Y-114829998D02*
X154030424Y-115044283D01*
X154030424Y-115044283D02*
X153173281Y-115901426D01*
X153173281Y-115901426D02*
X154101853Y-115901426D01*
X154744709Y-115329998D02*
X155887567Y-115329998D01*
X155316138Y-115901426D02*
X155316138Y-114758569D01*
X150873397Y-91901426D02*
X150373397Y-91187140D01*
X150016254Y-91901426D02*
X150016254Y-90401426D01*
X150016254Y-90401426D02*
X150587683Y-90401426D01*
X150587683Y-90401426D02*
X150730540Y-90472855D01*
X150730540Y-90472855D02*
X150801969Y-90544283D01*
X150801969Y-90544283D02*
X150873397Y-90687140D01*
X150873397Y-90687140D02*
X150873397Y-90901426D01*
X150873397Y-90901426D02*
X150801969Y-91044283D01*
X150801969Y-91044283D02*
X150730540Y-91115712D01*
X150730540Y-91115712D02*
X150587683Y-91187140D01*
X150587683Y-91187140D02*
X150016254Y-91187140D01*
X151373397Y-90401426D02*
X152373397Y-91901426D01*
X152373397Y-90401426D02*
X151373397Y-91901426D01*
X153730540Y-91901426D02*
X152873397Y-91901426D01*
X153301968Y-91901426D02*
X153301968Y-90401426D01*
X153301968Y-90401426D02*
X153159111Y-90615712D01*
X153159111Y-90615712D02*
X153016254Y-90758569D01*
X153016254Y-90758569D02*
X152873397Y-90829998D01*
X154373396Y-91329998D02*
X155516254Y-91329998D01*
X179495825Y-84472855D02*
X179352968Y-84401426D01*
X179352968Y-84401426D02*
X179138682Y-84401426D01*
X179138682Y-84401426D02*
X178924396Y-84472855D01*
X178924396Y-84472855D02*
X178781539Y-84615712D01*
X178781539Y-84615712D02*
X178710110Y-84758569D01*
X178710110Y-84758569D02*
X178638682Y-85044283D01*
X178638682Y-85044283D02*
X178638682Y-85258569D01*
X178638682Y-85258569D02*
X178710110Y-85544283D01*
X178710110Y-85544283D02*
X178781539Y-85687140D01*
X178781539Y-85687140D02*
X178924396Y-85829998D01*
X178924396Y-85829998D02*
X179138682Y-85901426D01*
X179138682Y-85901426D02*
X179281539Y-85901426D01*
X179281539Y-85901426D02*
X179495825Y-85829998D01*
X179495825Y-85829998D02*
X179567253Y-85758569D01*
X179567253Y-85758569D02*
X179567253Y-85258569D01*
X179567253Y-85258569D02*
X179281539Y-85258569D01*
X180210110Y-85901426D02*
X180210110Y-84401426D01*
X180210110Y-84401426D02*
X181067253Y-85901426D01*
X181067253Y-85901426D02*
X181067253Y-84401426D01*
X181781539Y-85901426D02*
X181781539Y-84401426D01*
X181781539Y-84401426D02*
X182138682Y-84401426D01*
X182138682Y-84401426D02*
X182352968Y-84472855D01*
X182352968Y-84472855D02*
X182495825Y-84615712D01*
X182495825Y-84615712D02*
X182567254Y-84758569D01*
X182567254Y-84758569D02*
X182638682Y-85044283D01*
X182638682Y-85044283D02*
X182638682Y-85258569D01*
X182638682Y-85258569D02*
X182567254Y-85544283D01*
X182567254Y-85544283D02*
X182495825Y-85687140D01*
X182495825Y-85687140D02*
X182352968Y-85829998D01*
X182352968Y-85829998D02*
X182138682Y-85901426D01*
X182138682Y-85901426D02*
X181781539Y-85901426D01*
X150230540Y-108401426D02*
X150730540Y-109901426D01*
X150730540Y-109901426D02*
X151230540Y-108401426D01*
X152230539Y-109115712D02*
X152444825Y-109187140D01*
X152444825Y-109187140D02*
X152516254Y-109258569D01*
X152516254Y-109258569D02*
X152587682Y-109401426D01*
X152587682Y-109401426D02*
X152587682Y-109615712D01*
X152587682Y-109615712D02*
X152516254Y-109758569D01*
X152516254Y-109758569D02*
X152444825Y-109829998D01*
X152444825Y-109829998D02*
X152301968Y-109901426D01*
X152301968Y-109901426D02*
X151730539Y-109901426D01*
X151730539Y-109901426D02*
X151730539Y-108401426D01*
X151730539Y-108401426D02*
X152230539Y-108401426D01*
X152230539Y-108401426D02*
X152373397Y-108472855D01*
X152373397Y-108472855D02*
X152444825Y-108544283D01*
X152444825Y-108544283D02*
X152516254Y-108687140D01*
X152516254Y-108687140D02*
X152516254Y-108829998D01*
X152516254Y-108829998D02*
X152444825Y-108972855D01*
X152444825Y-108972855D02*
X152373397Y-109044283D01*
X152373397Y-109044283D02*
X152230539Y-109115712D01*
X152230539Y-109115712D02*
X151730539Y-109115712D01*
X153230539Y-108401426D02*
X153230539Y-109615712D01*
X153230539Y-109615712D02*
X153301968Y-109758569D01*
X153301968Y-109758569D02*
X153373397Y-109829998D01*
X153373397Y-109829998D02*
X153516254Y-109901426D01*
X153516254Y-109901426D02*
X153801968Y-109901426D01*
X153801968Y-109901426D02*
X153944825Y-109829998D01*
X153944825Y-109829998D02*
X154016254Y-109758569D01*
X154016254Y-109758569D02*
X154087682Y-109615712D01*
X154087682Y-109615712D02*
X154087682Y-108401426D01*
X154730540Y-109829998D02*
X154944826Y-109901426D01*
X154944826Y-109901426D02*
X155301968Y-109901426D01*
X155301968Y-109901426D02*
X155444826Y-109829998D01*
X155444826Y-109829998D02*
X155516254Y-109758569D01*
X155516254Y-109758569D02*
X155587683Y-109615712D01*
X155587683Y-109615712D02*
X155587683Y-109472855D01*
X155587683Y-109472855D02*
X155516254Y-109329998D01*
X155516254Y-109329998D02*
X155444826Y-109258569D01*
X155444826Y-109258569D02*
X155301968Y-109187140D01*
X155301968Y-109187140D02*
X155016254Y-109115712D01*
X155016254Y-109115712D02*
X154873397Y-109044283D01*
X154873397Y-109044283D02*
X154801968Y-108972855D01*
X154801968Y-108972855D02*
X154730540Y-108829998D01*
X154730540Y-108829998D02*
X154730540Y-108687140D01*
X154730540Y-108687140D02*
X154801968Y-108544283D01*
X154801968Y-108544283D02*
X154873397Y-108472855D01*
X154873397Y-108472855D02*
X155016254Y-108401426D01*
X155016254Y-108401426D02*
X155373397Y-108401426D01*
X155373397Y-108401426D02*
X155587683Y-108472855D01*
X193145891Y-95751083D02*
X193360177Y-95822511D01*
X193360177Y-95822511D02*
X193717319Y-95822511D01*
X193717319Y-95822511D02*
X193860177Y-95751083D01*
X193860177Y-95751083D02*
X193931605Y-95679654D01*
X193931605Y-95679654D02*
X194003034Y-95536797D01*
X194003034Y-95536797D02*
X194003034Y-95393940D01*
X194003034Y-95393940D02*
X193931605Y-95251083D01*
X193931605Y-95251083D02*
X193860177Y-95179654D01*
X193860177Y-95179654D02*
X193717319Y-95108225D01*
X193717319Y-95108225D02*
X193431605Y-95036797D01*
X193431605Y-95036797D02*
X193288748Y-94965368D01*
X193288748Y-94965368D02*
X193217319Y-94893940D01*
X193217319Y-94893940D02*
X193145891Y-94751083D01*
X193145891Y-94751083D02*
X193145891Y-94608225D01*
X193145891Y-94608225D02*
X193217319Y-94465368D01*
X193217319Y-94465368D02*
X193288748Y-94393940D01*
X193288748Y-94393940D02*
X193431605Y-94322511D01*
X193431605Y-94322511D02*
X193788748Y-94322511D01*
X193788748Y-94322511D02*
X194003034Y-94393940D01*
X194645890Y-95822511D02*
X194645890Y-94322511D01*
X194645890Y-95036797D02*
X195503033Y-95036797D01*
X195503033Y-95822511D02*
X195503033Y-94322511D01*
X196217319Y-95822511D02*
X196217319Y-94322511D01*
X196931605Y-95036797D02*
X197431605Y-95036797D01*
X197645891Y-95822511D02*
X196931605Y-95822511D01*
X196931605Y-95822511D02*
X196931605Y-94322511D01*
X196931605Y-94322511D02*
X197645891Y-94322511D01*
X199003034Y-95822511D02*
X198288748Y-95822511D01*
X198288748Y-95822511D02*
X198288748Y-94322511D01*
X199503034Y-95822511D02*
X199503034Y-94322511D01*
X199503034Y-94322511D02*
X199860177Y-94322511D01*
X199860177Y-94322511D02*
X200074463Y-94393940D01*
X200074463Y-94393940D02*
X200217320Y-94536797D01*
X200217320Y-94536797D02*
X200288749Y-94679654D01*
X200288749Y-94679654D02*
X200360177Y-94965368D01*
X200360177Y-94965368D02*
X200360177Y-95179654D01*
X200360177Y-95179654D02*
X200288749Y-95465368D01*
X200288749Y-95465368D02*
X200217320Y-95608225D01*
X200217320Y-95608225D02*
X200074463Y-95751083D01*
X200074463Y-95751083D02*
X199860177Y-95822511D01*
X199860177Y-95822511D02*
X199503034Y-95822511D01*
X178710110Y-100901426D02*
X178710110Y-99401426D01*
X178710110Y-99401426D02*
X179067253Y-99401426D01*
X179067253Y-99401426D02*
X179281539Y-99472855D01*
X179281539Y-99472855D02*
X179424396Y-99615712D01*
X179424396Y-99615712D02*
X179495825Y-99758569D01*
X179495825Y-99758569D02*
X179567253Y-100044283D01*
X179567253Y-100044283D02*
X179567253Y-100258569D01*
X179567253Y-100258569D02*
X179495825Y-100544283D01*
X179495825Y-100544283D02*
X179424396Y-100687140D01*
X179424396Y-100687140D02*
X179281539Y-100829998D01*
X179281539Y-100829998D02*
X179067253Y-100901426D01*
X179067253Y-100901426D02*
X178710110Y-100901426D01*
X180210110Y-100329998D02*
X181352968Y-100329998D01*
X180781539Y-100901426D02*
X180781539Y-99758569D01*
X152444825Y-84472855D02*
X152301968Y-84401426D01*
X152301968Y-84401426D02*
X152087682Y-84401426D01*
X152087682Y-84401426D02*
X151873396Y-84472855D01*
X151873396Y-84472855D02*
X151730539Y-84615712D01*
X151730539Y-84615712D02*
X151659110Y-84758569D01*
X151659110Y-84758569D02*
X151587682Y-85044283D01*
X151587682Y-85044283D02*
X151587682Y-85258569D01*
X151587682Y-85258569D02*
X151659110Y-85544283D01*
X151659110Y-85544283D02*
X151730539Y-85687140D01*
X151730539Y-85687140D02*
X151873396Y-85829998D01*
X151873396Y-85829998D02*
X152087682Y-85901426D01*
X152087682Y-85901426D02*
X152230539Y-85901426D01*
X152230539Y-85901426D02*
X152444825Y-85829998D01*
X152444825Y-85829998D02*
X152516253Y-85758569D01*
X152516253Y-85758569D02*
X152516253Y-85258569D01*
X152516253Y-85258569D02*
X152230539Y-85258569D01*
X153159110Y-85901426D02*
X153159110Y-84401426D01*
X153159110Y-84401426D02*
X154016253Y-85901426D01*
X154016253Y-85901426D02*
X154016253Y-84401426D01*
X154730539Y-85901426D02*
X154730539Y-84401426D01*
X154730539Y-84401426D02*
X155087682Y-84401426D01*
X155087682Y-84401426D02*
X155301968Y-84472855D01*
X155301968Y-84472855D02*
X155444825Y-84615712D01*
X155444825Y-84615712D02*
X155516254Y-84758569D01*
X155516254Y-84758569D02*
X155587682Y-85044283D01*
X155587682Y-85044283D02*
X155587682Y-85258569D01*
X155587682Y-85258569D02*
X155516254Y-85544283D01*
X155516254Y-85544283D02*
X155444825Y-85687140D01*
X155444825Y-85687140D02*
X155301968Y-85829998D01*
X155301968Y-85829998D02*
X155087682Y-85901426D01*
X155087682Y-85901426D02*
X154730539Y-85901426D01*
X150230540Y-97829998D02*
X150444826Y-97901426D01*
X150444826Y-97901426D02*
X150801968Y-97901426D01*
X150801968Y-97901426D02*
X150944826Y-97829998D01*
X150944826Y-97829998D02*
X151016254Y-97758569D01*
X151016254Y-97758569D02*
X151087683Y-97615712D01*
X151087683Y-97615712D02*
X151087683Y-97472855D01*
X151087683Y-97472855D02*
X151016254Y-97329998D01*
X151016254Y-97329998D02*
X150944826Y-97258569D01*
X150944826Y-97258569D02*
X150801968Y-97187140D01*
X150801968Y-97187140D02*
X150516254Y-97115712D01*
X150516254Y-97115712D02*
X150373397Y-97044283D01*
X150373397Y-97044283D02*
X150301968Y-96972855D01*
X150301968Y-96972855D02*
X150230540Y-96829998D01*
X150230540Y-96829998D02*
X150230540Y-96687140D01*
X150230540Y-96687140D02*
X150301968Y-96544283D01*
X150301968Y-96544283D02*
X150373397Y-96472855D01*
X150373397Y-96472855D02*
X150516254Y-96401426D01*
X150516254Y-96401426D02*
X150873397Y-96401426D01*
X150873397Y-96401426D02*
X151087683Y-96472855D01*
X152230539Y-97115712D02*
X152444825Y-97187140D01*
X152444825Y-97187140D02*
X152516254Y-97258569D01*
X152516254Y-97258569D02*
X152587682Y-97401426D01*
X152587682Y-97401426D02*
X152587682Y-97615712D01*
X152587682Y-97615712D02*
X152516254Y-97758569D01*
X152516254Y-97758569D02*
X152444825Y-97829998D01*
X152444825Y-97829998D02*
X152301968Y-97901426D01*
X152301968Y-97901426D02*
X151730539Y-97901426D01*
X151730539Y-97901426D02*
X151730539Y-96401426D01*
X151730539Y-96401426D02*
X152230539Y-96401426D01*
X152230539Y-96401426D02*
X152373397Y-96472855D01*
X152373397Y-96472855D02*
X152444825Y-96544283D01*
X152444825Y-96544283D02*
X152516254Y-96687140D01*
X152516254Y-96687140D02*
X152516254Y-96829998D01*
X152516254Y-96829998D02*
X152444825Y-96972855D01*
X152444825Y-96972855D02*
X152373397Y-97044283D01*
X152373397Y-97044283D02*
X152230539Y-97115712D01*
X152230539Y-97115712D02*
X151730539Y-97115712D01*
X153230539Y-96401426D02*
X153230539Y-97615712D01*
X153230539Y-97615712D02*
X153301968Y-97758569D01*
X153301968Y-97758569D02*
X153373397Y-97829998D01*
X153373397Y-97829998D02*
X153516254Y-97901426D01*
X153516254Y-97901426D02*
X153801968Y-97901426D01*
X153801968Y-97901426D02*
X153944825Y-97829998D01*
X153944825Y-97829998D02*
X154016254Y-97758569D01*
X154016254Y-97758569D02*
X154087682Y-97615712D01*
X154087682Y-97615712D02*
X154087682Y-96401426D01*
X154730540Y-96544283D02*
X154801968Y-96472855D01*
X154801968Y-96472855D02*
X154944826Y-96401426D01*
X154944826Y-96401426D02*
X155301968Y-96401426D01*
X155301968Y-96401426D02*
X155444826Y-96472855D01*
X155444826Y-96472855D02*
X155516254Y-96544283D01*
X155516254Y-96544283D02*
X155587683Y-96687140D01*
X155587683Y-96687140D02*
X155587683Y-96829998D01*
X155587683Y-96829998D02*
X155516254Y-97044283D01*
X155516254Y-97044283D02*
X154659111Y-97901426D01*
X154659111Y-97901426D02*
X155587683Y-97901426D01*
X150159112Y-111401426D02*
X151016255Y-111401426D01*
X150587683Y-112901426D02*
X150587683Y-111401426D01*
X151373397Y-111401426D02*
X152373397Y-112901426D01*
X152373397Y-111401426D02*
X151373397Y-112901426D01*
X152873397Y-111544283D02*
X152944825Y-111472855D01*
X152944825Y-111472855D02*
X153087683Y-111401426D01*
X153087683Y-111401426D02*
X153444825Y-111401426D01*
X153444825Y-111401426D02*
X153587683Y-111472855D01*
X153587683Y-111472855D02*
X153659111Y-111544283D01*
X153659111Y-111544283D02*
X153730540Y-111687140D01*
X153730540Y-111687140D02*
X153730540Y-111829998D01*
X153730540Y-111829998D02*
X153659111Y-112044283D01*
X153659111Y-112044283D02*
X152801968Y-112901426D01*
X152801968Y-112901426D02*
X153730540Y-112901426D01*
X154373396Y-112329998D02*
X155516254Y-112329998D01*
X150230540Y-93401426D02*
X150730540Y-94901426D01*
X150730540Y-94901426D02*
X151230540Y-93401426D01*
X152230539Y-94115712D02*
X152444825Y-94187140D01*
X152444825Y-94187140D02*
X152516254Y-94258569D01*
X152516254Y-94258569D02*
X152587682Y-94401426D01*
X152587682Y-94401426D02*
X152587682Y-94615712D01*
X152587682Y-94615712D02*
X152516254Y-94758569D01*
X152516254Y-94758569D02*
X152444825Y-94829998D01*
X152444825Y-94829998D02*
X152301968Y-94901426D01*
X152301968Y-94901426D02*
X151730539Y-94901426D01*
X151730539Y-94901426D02*
X151730539Y-93401426D01*
X151730539Y-93401426D02*
X152230539Y-93401426D01*
X152230539Y-93401426D02*
X152373397Y-93472855D01*
X152373397Y-93472855D02*
X152444825Y-93544283D01*
X152444825Y-93544283D02*
X152516254Y-93687140D01*
X152516254Y-93687140D02*
X152516254Y-93829998D01*
X152516254Y-93829998D02*
X152444825Y-93972855D01*
X152444825Y-93972855D02*
X152373397Y-94044283D01*
X152373397Y-94044283D02*
X152230539Y-94115712D01*
X152230539Y-94115712D02*
X151730539Y-94115712D01*
X153230539Y-93401426D02*
X153230539Y-94615712D01*
X153230539Y-94615712D02*
X153301968Y-94758569D01*
X153301968Y-94758569D02*
X153373397Y-94829998D01*
X153373397Y-94829998D02*
X153516254Y-94901426D01*
X153516254Y-94901426D02*
X153801968Y-94901426D01*
X153801968Y-94901426D02*
X153944825Y-94829998D01*
X153944825Y-94829998D02*
X154016254Y-94758569D01*
X154016254Y-94758569D02*
X154087682Y-94615712D01*
X154087682Y-94615712D02*
X154087682Y-93401426D01*
X154730540Y-94829998D02*
X154944826Y-94901426D01*
X154944826Y-94901426D02*
X155301968Y-94901426D01*
X155301968Y-94901426D02*
X155444826Y-94829998D01*
X155444826Y-94829998D02*
X155516254Y-94758569D01*
X155516254Y-94758569D02*
X155587683Y-94615712D01*
X155587683Y-94615712D02*
X155587683Y-94472855D01*
X155587683Y-94472855D02*
X155516254Y-94329998D01*
X155516254Y-94329998D02*
X155444826Y-94258569D01*
X155444826Y-94258569D02*
X155301968Y-94187140D01*
X155301968Y-94187140D02*
X155016254Y-94115712D01*
X155016254Y-94115712D02*
X154873397Y-94044283D01*
X154873397Y-94044283D02*
X154801968Y-93972855D01*
X154801968Y-93972855D02*
X154730540Y-93829998D01*
X154730540Y-93829998D02*
X154730540Y-93687140D01*
X154730540Y-93687140D02*
X154801968Y-93544283D01*
X154801968Y-93544283D02*
X154873397Y-93472855D01*
X154873397Y-93472855D02*
X155016254Y-93401426D01*
X155016254Y-93401426D02*
X155373397Y-93401426D01*
X155373397Y-93401426D02*
X155587683Y-93472855D01*
X178638682Y-106829998D02*
X178852968Y-106901426D01*
X178852968Y-106901426D02*
X179210110Y-106901426D01*
X179210110Y-106901426D02*
X179352968Y-106829998D01*
X179352968Y-106829998D02*
X179424396Y-106758569D01*
X179424396Y-106758569D02*
X179495825Y-106615712D01*
X179495825Y-106615712D02*
X179495825Y-106472855D01*
X179495825Y-106472855D02*
X179424396Y-106329998D01*
X179424396Y-106329998D02*
X179352968Y-106258569D01*
X179352968Y-106258569D02*
X179210110Y-106187140D01*
X179210110Y-106187140D02*
X178924396Y-106115712D01*
X178924396Y-106115712D02*
X178781539Y-106044283D01*
X178781539Y-106044283D02*
X178710110Y-105972855D01*
X178710110Y-105972855D02*
X178638682Y-105829998D01*
X178638682Y-105829998D02*
X178638682Y-105687140D01*
X178638682Y-105687140D02*
X178710110Y-105544283D01*
X178710110Y-105544283D02*
X178781539Y-105472855D01*
X178781539Y-105472855D02*
X178924396Y-105401426D01*
X178924396Y-105401426D02*
X179281539Y-105401426D01*
X179281539Y-105401426D02*
X179495825Y-105472855D01*
X180638681Y-106115712D02*
X180852967Y-106187140D01*
X180852967Y-106187140D02*
X180924396Y-106258569D01*
X180924396Y-106258569D02*
X180995824Y-106401426D01*
X180995824Y-106401426D02*
X180995824Y-106615712D01*
X180995824Y-106615712D02*
X180924396Y-106758569D01*
X180924396Y-106758569D02*
X180852967Y-106829998D01*
X180852967Y-106829998D02*
X180710110Y-106901426D01*
X180710110Y-106901426D02*
X180138681Y-106901426D01*
X180138681Y-106901426D02*
X180138681Y-105401426D01*
X180138681Y-105401426D02*
X180638681Y-105401426D01*
X180638681Y-105401426D02*
X180781539Y-105472855D01*
X180781539Y-105472855D02*
X180852967Y-105544283D01*
X180852967Y-105544283D02*
X180924396Y-105687140D01*
X180924396Y-105687140D02*
X180924396Y-105829998D01*
X180924396Y-105829998D02*
X180852967Y-105972855D01*
X180852967Y-105972855D02*
X180781539Y-106044283D01*
X180781539Y-106044283D02*
X180638681Y-106115712D01*
X180638681Y-106115712D02*
X180138681Y-106115712D01*
X181638681Y-105401426D02*
X181638681Y-106615712D01*
X181638681Y-106615712D02*
X181710110Y-106758569D01*
X181710110Y-106758569D02*
X181781539Y-106829998D01*
X181781539Y-106829998D02*
X181924396Y-106901426D01*
X181924396Y-106901426D02*
X182210110Y-106901426D01*
X182210110Y-106901426D02*
X182352967Y-106829998D01*
X182352967Y-106829998D02*
X182424396Y-106758569D01*
X182424396Y-106758569D02*
X182495824Y-106615712D01*
X182495824Y-106615712D02*
X182495824Y-105401426D01*
X183995825Y-106901426D02*
X183138682Y-106901426D01*
X183567253Y-106901426D02*
X183567253Y-105401426D01*
X183567253Y-105401426D02*
X183424396Y-105615712D01*
X183424396Y-105615712D02*
X183281539Y-105758569D01*
X183281539Y-105758569D02*
X183138682Y-105829998D01*
X178495825Y-108401426D02*
X178995825Y-109901426D01*
X178995825Y-109901426D02*
X179495825Y-108401426D01*
X180495824Y-109115712D02*
X180710110Y-109187140D01*
X180710110Y-109187140D02*
X180781539Y-109258569D01*
X180781539Y-109258569D02*
X180852967Y-109401426D01*
X180852967Y-109401426D02*
X180852967Y-109615712D01*
X180852967Y-109615712D02*
X180781539Y-109758569D01*
X180781539Y-109758569D02*
X180710110Y-109829998D01*
X180710110Y-109829998D02*
X180567253Y-109901426D01*
X180567253Y-109901426D02*
X179995824Y-109901426D01*
X179995824Y-109901426D02*
X179995824Y-108401426D01*
X179995824Y-108401426D02*
X180495824Y-108401426D01*
X180495824Y-108401426D02*
X180638682Y-108472855D01*
X180638682Y-108472855D02*
X180710110Y-108544283D01*
X180710110Y-108544283D02*
X180781539Y-108687140D01*
X180781539Y-108687140D02*
X180781539Y-108829998D01*
X180781539Y-108829998D02*
X180710110Y-108972855D01*
X180710110Y-108972855D02*
X180638682Y-109044283D01*
X180638682Y-109044283D02*
X180495824Y-109115712D01*
X180495824Y-109115712D02*
X179995824Y-109115712D01*
X181495824Y-108401426D02*
X181495824Y-109615712D01*
X181495824Y-109615712D02*
X181567253Y-109758569D01*
X181567253Y-109758569D02*
X181638682Y-109829998D01*
X181638682Y-109829998D02*
X181781539Y-109901426D01*
X181781539Y-109901426D02*
X182067253Y-109901426D01*
X182067253Y-109901426D02*
X182210110Y-109829998D01*
X182210110Y-109829998D02*
X182281539Y-109758569D01*
X182281539Y-109758569D02*
X182352967Y-109615712D01*
X182352967Y-109615712D02*
X182352967Y-108401426D01*
X182995825Y-109829998D02*
X183210111Y-109901426D01*
X183210111Y-109901426D02*
X183567253Y-109901426D01*
X183567253Y-109901426D02*
X183710111Y-109829998D01*
X183710111Y-109829998D02*
X183781539Y-109758569D01*
X183781539Y-109758569D02*
X183852968Y-109615712D01*
X183852968Y-109615712D02*
X183852968Y-109472855D01*
X183852968Y-109472855D02*
X183781539Y-109329998D01*
X183781539Y-109329998D02*
X183710111Y-109258569D01*
X183710111Y-109258569D02*
X183567253Y-109187140D01*
X183567253Y-109187140D02*
X183281539Y-109115712D01*
X183281539Y-109115712D02*
X183138682Y-109044283D01*
X183138682Y-109044283D02*
X183067253Y-108972855D01*
X183067253Y-108972855D02*
X182995825Y-108829998D01*
X182995825Y-108829998D02*
X182995825Y-108687140D01*
X182995825Y-108687140D02*
X183067253Y-108544283D01*
X183067253Y-108544283D02*
X183138682Y-108472855D01*
X183138682Y-108472855D02*
X183281539Y-108401426D01*
X183281539Y-108401426D02*
X183638682Y-108401426D01*
X183638682Y-108401426D02*
X183852968Y-108472855D01*
X179567253Y-97758569D02*
X179495825Y-97829998D01*
X179495825Y-97829998D02*
X179281539Y-97901426D01*
X179281539Y-97901426D02*
X179138682Y-97901426D01*
X179138682Y-97901426D02*
X178924396Y-97829998D01*
X178924396Y-97829998D02*
X178781539Y-97687140D01*
X178781539Y-97687140D02*
X178710110Y-97544283D01*
X178710110Y-97544283D02*
X178638682Y-97258569D01*
X178638682Y-97258569D02*
X178638682Y-97044283D01*
X178638682Y-97044283D02*
X178710110Y-96758569D01*
X178710110Y-96758569D02*
X178781539Y-96615712D01*
X178781539Y-96615712D02*
X178924396Y-96472855D01*
X178924396Y-96472855D02*
X179138682Y-96401426D01*
X179138682Y-96401426D02*
X179281539Y-96401426D01*
X179281539Y-96401426D02*
X179495825Y-96472855D01*
X179495825Y-96472855D02*
X179567253Y-96544283D01*
X181067253Y-97758569D02*
X180995825Y-97829998D01*
X180995825Y-97829998D02*
X180781539Y-97901426D01*
X180781539Y-97901426D02*
X180638682Y-97901426D01*
X180638682Y-97901426D02*
X180424396Y-97829998D01*
X180424396Y-97829998D02*
X180281539Y-97687140D01*
X180281539Y-97687140D02*
X180210110Y-97544283D01*
X180210110Y-97544283D02*
X180138682Y-97258569D01*
X180138682Y-97258569D02*
X180138682Y-97044283D01*
X180138682Y-97044283D02*
X180210110Y-96758569D01*
X180210110Y-96758569D02*
X180281539Y-96615712D01*
X180281539Y-96615712D02*
X180424396Y-96472855D01*
X180424396Y-96472855D02*
X180638682Y-96401426D01*
X180638682Y-96401426D02*
X180781539Y-96401426D01*
X180781539Y-96401426D02*
X180995825Y-96472855D01*
X180995825Y-96472855D02*
X181067253Y-96544283D01*
X182495825Y-97901426D02*
X181638682Y-97901426D01*
X182067253Y-97901426D02*
X182067253Y-96401426D01*
X182067253Y-96401426D02*
X181924396Y-96615712D01*
X181924396Y-96615712D02*
X181781539Y-96758569D01*
X181781539Y-96758569D02*
X181638682Y-96829998D01*
D10*
X173005979Y-120434219D02*
X173005979Y-121243742D01*
X173005979Y-121243742D02*
X173053598Y-121338980D01*
X173053598Y-121338980D02*
X173101217Y-121386600D01*
X173101217Y-121386600D02*
X173196455Y-121434219D01*
X173196455Y-121434219D02*
X173386931Y-121434219D01*
X173386931Y-121434219D02*
X173482169Y-121386600D01*
X173482169Y-121386600D02*
X173529788Y-121338980D01*
X173529788Y-121338980D02*
X173577407Y-121243742D01*
X173577407Y-121243742D02*
X173577407Y-120434219D01*
X174005979Y-121386600D02*
X174148836Y-121434219D01*
X174148836Y-121434219D02*
X174386931Y-121434219D01*
X174386931Y-121434219D02*
X174482169Y-121386600D01*
X174482169Y-121386600D02*
X174529788Y-121338980D01*
X174529788Y-121338980D02*
X174577407Y-121243742D01*
X174577407Y-121243742D02*
X174577407Y-121148504D01*
X174577407Y-121148504D02*
X174529788Y-121053266D01*
X174529788Y-121053266D02*
X174482169Y-121005647D01*
X174482169Y-121005647D02*
X174386931Y-120958028D01*
X174386931Y-120958028D02*
X174196455Y-120910409D01*
X174196455Y-120910409D02*
X174101217Y-120862790D01*
X174101217Y-120862790D02*
X174053598Y-120815171D01*
X174053598Y-120815171D02*
X174005979Y-120719933D01*
X174005979Y-120719933D02*
X174005979Y-120624695D01*
X174005979Y-120624695D02*
X174053598Y-120529457D01*
X174053598Y-120529457D02*
X174101217Y-120481838D01*
X174101217Y-120481838D02*
X174196455Y-120434219D01*
X174196455Y-120434219D02*
X174434550Y-120434219D01*
X174434550Y-120434219D02*
X174577407Y-120481838D01*
X175339312Y-120910409D02*
X175482169Y-120958028D01*
X175482169Y-120958028D02*
X175529788Y-121005647D01*
X175529788Y-121005647D02*
X175577407Y-121100885D01*
X175577407Y-121100885D02*
X175577407Y-121243742D01*
X175577407Y-121243742D02*
X175529788Y-121338980D01*
X175529788Y-121338980D02*
X175482169Y-121386600D01*
X175482169Y-121386600D02*
X175386931Y-121434219D01*
X175386931Y-121434219D02*
X175005979Y-121434219D01*
X175005979Y-121434219D02*
X175005979Y-120434219D01*
X175005979Y-120434219D02*
X175339312Y-120434219D01*
X175339312Y-120434219D02*
X175434550Y-120481838D01*
X175434550Y-120481838D02*
X175482169Y-120529457D01*
X175482169Y-120529457D02*
X175529788Y-120624695D01*
X175529788Y-120624695D02*
X175529788Y-120719933D01*
X175529788Y-120719933D02*
X175482169Y-120815171D01*
X175482169Y-120815171D02*
X175434550Y-120862790D01*
X175434550Y-120862790D02*
X175339312Y-120910409D01*
X175339312Y-120910409D02*
X175005979Y-120910409D01*
X176625027Y-120434219D02*
X177196455Y-120434219D01*
X176910741Y-121434219D02*
X176910741Y-120434219D01*
X177910741Y-121386600D02*
X177815503Y-121434219D01*
X177815503Y-121434219D02*
X177625027Y-121434219D01*
X177625027Y-121434219D02*
X177529789Y-121386600D01*
X177529789Y-121386600D02*
X177482170Y-121291361D01*
X177482170Y-121291361D02*
X177482170Y-120910409D01*
X177482170Y-120910409D02*
X177529789Y-120815171D01*
X177529789Y-120815171D02*
X177625027Y-120767552D01*
X177625027Y-120767552D02*
X177815503Y-120767552D01*
X177815503Y-120767552D02*
X177910741Y-120815171D01*
X177910741Y-120815171D02*
X177958360Y-120910409D01*
X177958360Y-120910409D02*
X177958360Y-121005647D01*
X177958360Y-121005647D02*
X177482170Y-121100885D01*
X178339313Y-121386600D02*
X178434551Y-121434219D01*
X178434551Y-121434219D02*
X178625027Y-121434219D01*
X178625027Y-121434219D02*
X178720265Y-121386600D01*
X178720265Y-121386600D02*
X178767884Y-121291361D01*
X178767884Y-121291361D02*
X178767884Y-121243742D01*
X178767884Y-121243742D02*
X178720265Y-121148504D01*
X178720265Y-121148504D02*
X178625027Y-121100885D01*
X178625027Y-121100885D02*
X178482170Y-121100885D01*
X178482170Y-121100885D02*
X178386932Y-121053266D01*
X178386932Y-121053266D02*
X178339313Y-120958028D01*
X178339313Y-120958028D02*
X178339313Y-120910409D01*
X178339313Y-120910409D02*
X178386932Y-120815171D01*
X178386932Y-120815171D02*
X178482170Y-120767552D01*
X178482170Y-120767552D02*
X178625027Y-120767552D01*
X178625027Y-120767552D02*
X178720265Y-120815171D01*
X179053599Y-120767552D02*
X179434551Y-120767552D01*
X179196456Y-120434219D02*
X179196456Y-121291361D01*
X179196456Y-121291361D02*
X179244075Y-121386600D01*
X179244075Y-121386600D02*
X179339313Y-121434219D01*
X179339313Y-121434219D02*
X179434551Y-121434219D01*
X180148837Y-121386600D02*
X180053599Y-121434219D01*
X180053599Y-121434219D02*
X179863123Y-121434219D01*
X179863123Y-121434219D02*
X179767885Y-121386600D01*
X179767885Y-121386600D02*
X179720266Y-121291361D01*
X179720266Y-121291361D02*
X179720266Y-120910409D01*
X179720266Y-120910409D02*
X179767885Y-120815171D01*
X179767885Y-120815171D02*
X179863123Y-120767552D01*
X179863123Y-120767552D02*
X180053599Y-120767552D01*
X180053599Y-120767552D02*
X180148837Y-120815171D01*
X180148837Y-120815171D02*
X180196456Y-120910409D01*
X180196456Y-120910409D02*
X180196456Y-121005647D01*
X180196456Y-121005647D02*
X179720266Y-121100885D01*
X180625028Y-121434219D02*
X180625028Y-120767552D01*
X180625028Y-120958028D02*
X180672647Y-120862790D01*
X180672647Y-120862790D02*
X180720266Y-120815171D01*
X180720266Y-120815171D02*
X180815504Y-120767552D01*
X180815504Y-120767552D02*
X180910742Y-120767552D01*
X181863124Y-120434219D02*
X182196457Y-121434219D01*
X182196457Y-121434219D02*
X182529790Y-120434219D01*
X183244076Y-121386600D02*
X183148838Y-121434219D01*
X183148838Y-121434219D02*
X182958362Y-121434219D01*
X182958362Y-121434219D02*
X182863124Y-121386600D01*
X182863124Y-121386600D02*
X182815505Y-121291361D01*
X182815505Y-121291361D02*
X182815505Y-120910409D01*
X182815505Y-120910409D02*
X182863124Y-120815171D01*
X182863124Y-120815171D02*
X182958362Y-120767552D01*
X182958362Y-120767552D02*
X183148838Y-120767552D01*
X183148838Y-120767552D02*
X183244076Y-120815171D01*
X183244076Y-120815171D02*
X183291695Y-120910409D01*
X183291695Y-120910409D02*
X183291695Y-121005647D01*
X183291695Y-121005647D02*
X182815505Y-121100885D01*
X183720267Y-121434219D02*
X183720267Y-120767552D01*
X183720267Y-120958028D02*
X183767886Y-120862790D01*
X183767886Y-120862790D02*
X183815505Y-120815171D01*
X183815505Y-120815171D02*
X183910743Y-120767552D01*
X183910743Y-120767552D02*
X184005981Y-120767552D01*
X184291696Y-121386600D02*
X184386934Y-121434219D01*
X184386934Y-121434219D02*
X184577410Y-121434219D01*
X184577410Y-121434219D02*
X184672648Y-121386600D01*
X184672648Y-121386600D02*
X184720267Y-121291361D01*
X184720267Y-121291361D02*
X184720267Y-121243742D01*
X184720267Y-121243742D02*
X184672648Y-121148504D01*
X184672648Y-121148504D02*
X184577410Y-121100885D01*
X184577410Y-121100885D02*
X184434553Y-121100885D01*
X184434553Y-121100885D02*
X184339315Y-121053266D01*
X184339315Y-121053266D02*
X184291696Y-120958028D01*
X184291696Y-120958028D02*
X184291696Y-120910409D01*
X184291696Y-120910409D02*
X184339315Y-120815171D01*
X184339315Y-120815171D02*
X184434553Y-120767552D01*
X184434553Y-120767552D02*
X184577410Y-120767552D01*
X184577410Y-120767552D02*
X184672648Y-120815171D01*
X185148839Y-121434219D02*
X185148839Y-120767552D01*
X185148839Y-120434219D02*
X185101220Y-120481838D01*
X185101220Y-120481838D02*
X185148839Y-120529457D01*
X185148839Y-120529457D02*
X185196458Y-120481838D01*
X185196458Y-120481838D02*
X185148839Y-120434219D01*
X185148839Y-120434219D02*
X185148839Y-120529457D01*
X185767886Y-121434219D02*
X185672648Y-121386600D01*
X185672648Y-121386600D02*
X185625029Y-121338980D01*
X185625029Y-121338980D02*
X185577410Y-121243742D01*
X185577410Y-121243742D02*
X185577410Y-120958028D01*
X185577410Y-120958028D02*
X185625029Y-120862790D01*
X185625029Y-120862790D02*
X185672648Y-120815171D01*
X185672648Y-120815171D02*
X185767886Y-120767552D01*
X185767886Y-120767552D02*
X185910743Y-120767552D01*
X185910743Y-120767552D02*
X186005981Y-120815171D01*
X186005981Y-120815171D02*
X186053600Y-120862790D01*
X186053600Y-120862790D02*
X186101219Y-120958028D01*
X186101219Y-120958028D02*
X186101219Y-121243742D01*
X186101219Y-121243742D02*
X186053600Y-121338980D01*
X186053600Y-121338980D02*
X186005981Y-121386600D01*
X186005981Y-121386600D02*
X185910743Y-121434219D01*
X185910743Y-121434219D02*
X185767886Y-121434219D01*
X186529791Y-120767552D02*
X186529791Y-121434219D01*
X186529791Y-120862790D02*
X186577410Y-120815171D01*
X186577410Y-120815171D02*
X186672648Y-120767552D01*
X186672648Y-120767552D02*
X186815505Y-120767552D01*
X186815505Y-120767552D02*
X186910743Y-120815171D01*
X186910743Y-120815171D02*
X186958362Y-120910409D01*
X186958362Y-120910409D02*
X186958362Y-121434219D01*
X188148839Y-120529457D02*
X188196458Y-120481838D01*
X188196458Y-120481838D02*
X188291696Y-120434219D01*
X188291696Y-120434219D02*
X188529791Y-120434219D01*
X188529791Y-120434219D02*
X188625029Y-120481838D01*
X188625029Y-120481838D02*
X188672648Y-120529457D01*
X188672648Y-120529457D02*
X188720267Y-120624695D01*
X188720267Y-120624695D02*
X188720267Y-120719933D01*
X188720267Y-120719933D02*
X188672648Y-120862790D01*
X188672648Y-120862790D02*
X188101220Y-121434219D01*
X188101220Y-121434219D02*
X188720267Y-121434219D01*
X189148839Y-121338980D02*
X189196458Y-121386600D01*
X189196458Y-121386600D02*
X189148839Y-121434219D01*
X189148839Y-121434219D02*
X189101220Y-121386600D01*
X189101220Y-121386600D02*
X189148839Y-121338980D01*
X189148839Y-121338980D02*
X189148839Y-121434219D01*
X189815505Y-120434219D02*
X189910743Y-120434219D01*
X189910743Y-120434219D02*
X190005981Y-120481838D01*
X190005981Y-120481838D02*
X190053600Y-120529457D01*
X190053600Y-120529457D02*
X190101219Y-120624695D01*
X190101219Y-120624695D02*
X190148838Y-120815171D01*
X190148838Y-120815171D02*
X190148838Y-121053266D01*
X190148838Y-121053266D02*
X190101219Y-121243742D01*
X190101219Y-121243742D02*
X190053600Y-121338980D01*
X190053600Y-121338980D02*
X190005981Y-121386600D01*
X190005981Y-121386600D02*
X189910743Y-121434219D01*
X189910743Y-121434219D02*
X189815505Y-121434219D01*
X189815505Y-121434219D02*
X189720267Y-121386600D01*
X189720267Y-121386600D02*
X189672648Y-121338980D01*
X189672648Y-121338980D02*
X189625029Y-121243742D01*
X189625029Y-121243742D02*
X189577410Y-121053266D01*
X189577410Y-121053266D02*
X189577410Y-120815171D01*
X189577410Y-120815171D02*
X189625029Y-120624695D01*
X189625029Y-120624695D02*
X189672648Y-120529457D01*
X189672648Y-120529457D02*
X189720267Y-120481838D01*
X189720267Y-120481838D02*
X189815505Y-120434219D01*
X134715407Y-112804580D02*
X134667788Y-112852200D01*
X134667788Y-112852200D02*
X134524931Y-112899819D01*
X134524931Y-112899819D02*
X134429693Y-112899819D01*
X134429693Y-112899819D02*
X134286836Y-112852200D01*
X134286836Y-112852200D02*
X134191598Y-112756961D01*
X134191598Y-112756961D02*
X134143979Y-112661723D01*
X134143979Y-112661723D02*
X134096360Y-112471247D01*
X134096360Y-112471247D02*
X134096360Y-112328390D01*
X134096360Y-112328390D02*
X134143979Y-112137914D01*
X134143979Y-112137914D02*
X134191598Y-112042676D01*
X134191598Y-112042676D02*
X134286836Y-111947438D01*
X134286836Y-111947438D02*
X134429693Y-111899819D01*
X134429693Y-111899819D02*
X134524931Y-111899819D01*
X134524931Y-111899819D02*
X134667788Y-111947438D01*
X134667788Y-111947438D02*
X134715407Y-111995057D01*
X135143979Y-112899819D02*
X135143979Y-111899819D01*
X135143979Y-112376009D02*
X135715407Y-112376009D01*
X135715407Y-112899819D02*
X135715407Y-111899819D01*
X136763026Y-112899819D02*
X136429693Y-112423628D01*
X136191598Y-112899819D02*
X136191598Y-111899819D01*
X136191598Y-111899819D02*
X136572550Y-111899819D01*
X136572550Y-111899819D02*
X136667788Y-111947438D01*
X136667788Y-111947438D02*
X136715407Y-111995057D01*
X136715407Y-111995057D02*
X136763026Y-112090295D01*
X136763026Y-112090295D02*
X136763026Y-112233152D01*
X136763026Y-112233152D02*
X136715407Y-112328390D01*
X136715407Y-112328390D02*
X136667788Y-112376009D01*
X136667788Y-112376009D02*
X136572550Y-112423628D01*
X136572550Y-112423628D02*
X136191598Y-112423628D01*
X137715407Y-111947438D02*
X137620169Y-111899819D01*
X137620169Y-111899819D02*
X137477312Y-111899819D01*
X137477312Y-111899819D02*
X137334455Y-111947438D01*
X137334455Y-111947438D02*
X137239217Y-112042676D01*
X137239217Y-112042676D02*
X137191598Y-112137914D01*
X137191598Y-112137914D02*
X137143979Y-112328390D01*
X137143979Y-112328390D02*
X137143979Y-112471247D01*
X137143979Y-112471247D02*
X137191598Y-112661723D01*
X137191598Y-112661723D02*
X137239217Y-112756961D01*
X137239217Y-112756961D02*
X137334455Y-112852200D01*
X137334455Y-112852200D02*
X137477312Y-112899819D01*
X137477312Y-112899819D02*
X137572550Y-112899819D01*
X137572550Y-112899819D02*
X137715407Y-112852200D01*
X137715407Y-112852200D02*
X137763026Y-112804580D01*
X137763026Y-112804580D02*
X137763026Y-112471247D01*
X137763026Y-112471247D02*
X137572550Y-112471247D01*
D11*
X178495825Y-90401426D02*
X179352968Y-90401426D01*
X178924396Y-91901426D02*
X178924396Y-90401426D01*
X179710110Y-90401426D02*
X180710110Y-91901426D01*
X180710110Y-90401426D02*
X179710110Y-91901426D01*
X182067253Y-91901426D02*
X181210110Y-91901426D01*
X181638681Y-91901426D02*
X181638681Y-90401426D01*
X181638681Y-90401426D02*
X181495824Y-90615712D01*
X181495824Y-90615712D02*
X181352967Y-90758569D01*
X181352967Y-90758569D02*
X181210110Y-90829998D01*
X182710109Y-91329998D02*
X183852967Y-91329998D01*
X150873397Y-88901426D02*
X150373397Y-88187140D01*
X150016254Y-88901426D02*
X150016254Y-87401426D01*
X150016254Y-87401426D02*
X150587683Y-87401426D01*
X150587683Y-87401426D02*
X150730540Y-87472855D01*
X150730540Y-87472855D02*
X150801969Y-87544283D01*
X150801969Y-87544283D02*
X150873397Y-87687140D01*
X150873397Y-87687140D02*
X150873397Y-87901426D01*
X150873397Y-87901426D02*
X150801969Y-88044283D01*
X150801969Y-88044283D02*
X150730540Y-88115712D01*
X150730540Y-88115712D02*
X150587683Y-88187140D01*
X150587683Y-88187140D02*
X150016254Y-88187140D01*
X151373397Y-87401426D02*
X152373397Y-88901426D01*
X152373397Y-87401426D02*
X151373397Y-88901426D01*
X153730540Y-88901426D02*
X152873397Y-88901426D01*
X153301968Y-88901426D02*
X153301968Y-87401426D01*
X153301968Y-87401426D02*
X153159111Y-87615712D01*
X153159111Y-87615712D02*
X153016254Y-87758569D01*
X153016254Y-87758569D02*
X152873397Y-87829998D01*
X154373396Y-88329998D02*
X155516254Y-88329998D01*
X154944825Y-88901426D02*
X154944825Y-87758569D01*
X179567253Y-115901426D02*
X179067253Y-115187140D01*
X178710110Y-115901426D02*
X178710110Y-114401426D01*
X178710110Y-114401426D02*
X179281539Y-114401426D01*
X179281539Y-114401426D02*
X179424396Y-114472855D01*
X179424396Y-114472855D02*
X179495825Y-114544283D01*
X179495825Y-114544283D02*
X179567253Y-114687140D01*
X179567253Y-114687140D02*
X179567253Y-114901426D01*
X179567253Y-114901426D02*
X179495825Y-115044283D01*
X179495825Y-115044283D02*
X179424396Y-115115712D01*
X179424396Y-115115712D02*
X179281539Y-115187140D01*
X179281539Y-115187140D02*
X178710110Y-115187140D01*
X180067253Y-114401426D02*
X181067253Y-115901426D01*
X181067253Y-114401426D02*
X180067253Y-115901426D01*
X181567253Y-114544283D02*
X181638681Y-114472855D01*
X181638681Y-114472855D02*
X181781539Y-114401426D01*
X181781539Y-114401426D02*
X182138681Y-114401426D01*
X182138681Y-114401426D02*
X182281539Y-114472855D01*
X182281539Y-114472855D02*
X182352967Y-114544283D01*
X182352967Y-114544283D02*
X182424396Y-114687140D01*
X182424396Y-114687140D02*
X182424396Y-114829998D01*
X182424396Y-114829998D02*
X182352967Y-115044283D01*
X182352967Y-115044283D02*
X181495824Y-115901426D01*
X181495824Y-115901426D02*
X182424396Y-115901426D01*
X183067252Y-115329998D02*
X184210110Y-115329998D01*
X183638681Y-115901426D02*
X183638681Y-114758569D01*
X178495825Y-87401426D02*
X179352968Y-87401426D01*
X178924396Y-88901426D02*
X178924396Y-87401426D01*
X179710110Y-87401426D02*
X180710110Y-88901426D01*
X180710110Y-87401426D02*
X179710110Y-88901426D01*
X182067253Y-88901426D02*
X181210110Y-88901426D01*
X181638681Y-88901426D02*
X181638681Y-87401426D01*
X181638681Y-87401426D02*
X181495824Y-87615712D01*
X181495824Y-87615712D02*
X181352967Y-87758569D01*
X181352967Y-87758569D02*
X181210110Y-87829998D01*
X182710109Y-88329998D02*
X183852967Y-88329998D01*
X183281538Y-88901426D02*
X183281538Y-87758569D01*
X178710110Y-103901426D02*
X178710110Y-102401426D01*
X178710110Y-102401426D02*
X179067253Y-102401426D01*
X179067253Y-102401426D02*
X179281539Y-102472855D01*
X179281539Y-102472855D02*
X179424396Y-102615712D01*
X179424396Y-102615712D02*
X179495825Y-102758569D01*
X179495825Y-102758569D02*
X179567253Y-103044283D01*
X179567253Y-103044283D02*
X179567253Y-103258569D01*
X179567253Y-103258569D02*
X179495825Y-103544283D01*
X179495825Y-103544283D02*
X179424396Y-103687140D01*
X179424396Y-103687140D02*
X179281539Y-103829998D01*
X179281539Y-103829998D02*
X179067253Y-103901426D01*
X179067253Y-103901426D02*
X178710110Y-103901426D01*
X180210110Y-103329998D02*
X181352968Y-103329998D01*
X152659111Y-106758569D02*
X152587683Y-106829998D01*
X152587683Y-106829998D02*
X152373397Y-106901426D01*
X152373397Y-106901426D02*
X152230540Y-106901426D01*
X152230540Y-106901426D02*
X152016254Y-106829998D01*
X152016254Y-106829998D02*
X151873397Y-106687140D01*
X151873397Y-106687140D02*
X151801968Y-106544283D01*
X151801968Y-106544283D02*
X151730540Y-106258569D01*
X151730540Y-106258569D02*
X151730540Y-106044283D01*
X151730540Y-106044283D02*
X151801968Y-105758569D01*
X151801968Y-105758569D02*
X151873397Y-105615712D01*
X151873397Y-105615712D02*
X152016254Y-105472855D01*
X152016254Y-105472855D02*
X152230540Y-105401426D01*
X152230540Y-105401426D02*
X152373397Y-105401426D01*
X152373397Y-105401426D02*
X152587683Y-105472855D01*
X152587683Y-105472855D02*
X152659111Y-105544283D01*
X154159111Y-106758569D02*
X154087683Y-106829998D01*
X154087683Y-106829998D02*
X153873397Y-106901426D01*
X153873397Y-106901426D02*
X153730540Y-106901426D01*
X153730540Y-106901426D02*
X153516254Y-106829998D01*
X153516254Y-106829998D02*
X153373397Y-106687140D01*
X153373397Y-106687140D02*
X153301968Y-106544283D01*
X153301968Y-106544283D02*
X153230540Y-106258569D01*
X153230540Y-106258569D02*
X153230540Y-106044283D01*
X153230540Y-106044283D02*
X153301968Y-105758569D01*
X153301968Y-105758569D02*
X153373397Y-105615712D01*
X153373397Y-105615712D02*
X153516254Y-105472855D01*
X153516254Y-105472855D02*
X153730540Y-105401426D01*
X153730540Y-105401426D02*
X153873397Y-105401426D01*
X153873397Y-105401426D02*
X154087683Y-105472855D01*
X154087683Y-105472855D02*
X154159111Y-105544283D01*
X154730540Y-105544283D02*
X154801968Y-105472855D01*
X154801968Y-105472855D02*
X154944826Y-105401426D01*
X154944826Y-105401426D02*
X155301968Y-105401426D01*
X155301968Y-105401426D02*
X155444826Y-105472855D01*
X155444826Y-105472855D02*
X155516254Y-105544283D01*
X155516254Y-105544283D02*
X155587683Y-105687140D01*
X155587683Y-105687140D02*
X155587683Y-105829998D01*
X155587683Y-105829998D02*
X155516254Y-106044283D01*
X155516254Y-106044283D02*
X154659111Y-106901426D01*
X154659111Y-106901426D02*
X155587683Y-106901426D01*
X179495825Y-117472857D02*
X179352968Y-117401428D01*
X179352968Y-117401428D02*
X179138682Y-117401428D01*
X179138682Y-117401428D02*
X178924396Y-117472857D01*
X178924396Y-117472857D02*
X178781539Y-117615714D01*
X178781539Y-117615714D02*
X178710110Y-117758571D01*
X178710110Y-117758571D02*
X178638682Y-118044285D01*
X178638682Y-118044285D02*
X178638682Y-118258571D01*
X178638682Y-118258571D02*
X178710110Y-118544285D01*
X178710110Y-118544285D02*
X178781539Y-118687142D01*
X178781539Y-118687142D02*
X178924396Y-118830000D01*
X178924396Y-118830000D02*
X179138682Y-118901428D01*
X179138682Y-118901428D02*
X179281539Y-118901428D01*
X179281539Y-118901428D02*
X179495825Y-118830000D01*
X179495825Y-118830000D02*
X179567253Y-118758571D01*
X179567253Y-118758571D02*
X179567253Y-118258571D01*
X179567253Y-118258571D02*
X179281539Y-118258571D01*
X180210110Y-118901428D02*
X180210110Y-117401428D01*
X180210110Y-117401428D02*
X181067253Y-118901428D01*
X181067253Y-118901428D02*
X181067253Y-117401428D01*
X181781539Y-118901428D02*
X181781539Y-117401428D01*
X181781539Y-117401428D02*
X182138682Y-117401428D01*
X182138682Y-117401428D02*
X182352968Y-117472857D01*
X182352968Y-117472857D02*
X182495825Y-117615714D01*
X182495825Y-117615714D02*
X182567254Y-117758571D01*
X182567254Y-117758571D02*
X182638682Y-118044285D01*
X182638682Y-118044285D02*
X182638682Y-118258571D01*
X182638682Y-118258571D02*
X182567254Y-118544285D01*
X182567254Y-118544285D02*
X182495825Y-118687142D01*
X182495825Y-118687142D02*
X182352968Y-118830000D01*
X182352968Y-118830000D02*
X182138682Y-118901428D01*
X182138682Y-118901428D02*
X181781539Y-118901428D01*
X179567253Y-112901426D02*
X179067253Y-112187140D01*
X178710110Y-112901426D02*
X178710110Y-111401426D01*
X178710110Y-111401426D02*
X179281539Y-111401426D01*
X179281539Y-111401426D02*
X179424396Y-111472855D01*
X179424396Y-111472855D02*
X179495825Y-111544283D01*
X179495825Y-111544283D02*
X179567253Y-111687140D01*
X179567253Y-111687140D02*
X179567253Y-111901426D01*
X179567253Y-111901426D02*
X179495825Y-112044283D01*
X179495825Y-112044283D02*
X179424396Y-112115712D01*
X179424396Y-112115712D02*
X179281539Y-112187140D01*
X179281539Y-112187140D02*
X178710110Y-112187140D01*
X180067253Y-111401426D02*
X181067253Y-112901426D01*
X181067253Y-111401426D02*
X180067253Y-112901426D01*
X181567253Y-111544283D02*
X181638681Y-111472855D01*
X181638681Y-111472855D02*
X181781539Y-111401426D01*
X181781539Y-111401426D02*
X182138681Y-111401426D01*
X182138681Y-111401426D02*
X182281539Y-111472855D01*
X182281539Y-111472855D02*
X182352967Y-111544283D01*
X182352967Y-111544283D02*
X182424396Y-111687140D01*
X182424396Y-111687140D02*
X182424396Y-111829998D01*
X182424396Y-111829998D02*
X182352967Y-112044283D01*
X182352967Y-112044283D02*
X181495824Y-112901426D01*
X181495824Y-112901426D02*
X182424396Y-112901426D01*
X183067252Y-112329998D02*
X184210110Y-112329998D01*
X152873396Y-103901426D02*
X152873396Y-102401426D01*
X152873396Y-102401426D02*
X153230539Y-102401426D01*
X153230539Y-102401426D02*
X153444825Y-102472855D01*
X153444825Y-102472855D02*
X153587682Y-102615712D01*
X153587682Y-102615712D02*
X153659111Y-102758569D01*
X153659111Y-102758569D02*
X153730539Y-103044283D01*
X153730539Y-103044283D02*
X153730539Y-103258569D01*
X153730539Y-103258569D02*
X153659111Y-103544283D01*
X153659111Y-103544283D02*
X153587682Y-103687140D01*
X153587682Y-103687140D02*
X153444825Y-103829998D01*
X153444825Y-103829998D02*
X153230539Y-103901426D01*
X153230539Y-103901426D02*
X152873396Y-103901426D01*
X154373396Y-103329998D02*
X155516254Y-103329998D01*
X154944825Y-103901426D02*
X154944825Y-102758569D01*
X152873396Y-100901426D02*
X152873396Y-99401426D01*
X152873396Y-99401426D02*
X153230539Y-99401426D01*
X153230539Y-99401426D02*
X153444825Y-99472855D01*
X153444825Y-99472855D02*
X153587682Y-99615712D01*
X153587682Y-99615712D02*
X153659111Y-99758569D01*
X153659111Y-99758569D02*
X153730539Y-100044283D01*
X153730539Y-100044283D02*
X153730539Y-100258569D01*
X153730539Y-100258569D02*
X153659111Y-100544283D01*
X153659111Y-100544283D02*
X153587682Y-100687140D01*
X153587682Y-100687140D02*
X153444825Y-100829998D01*
X153444825Y-100829998D02*
X153230539Y-100901426D01*
X153230539Y-100901426D02*
X152873396Y-100901426D01*
X154373396Y-100329998D02*
X155516254Y-100329998D01*
D10*
X134020160Y-107696000D02*
X134163017Y-107743619D01*
X134163017Y-107743619D02*
X134401112Y-107743619D01*
X134401112Y-107743619D02*
X134496350Y-107696000D01*
X134496350Y-107696000D02*
X134543969Y-107648380D01*
X134543969Y-107648380D02*
X134591588Y-107553142D01*
X134591588Y-107553142D02*
X134591588Y-107457904D01*
X134591588Y-107457904D02*
X134543969Y-107362666D01*
X134543969Y-107362666D02*
X134496350Y-107315047D01*
X134496350Y-107315047D02*
X134401112Y-107267428D01*
X134401112Y-107267428D02*
X134210636Y-107219809D01*
X134210636Y-107219809D02*
X134115398Y-107172190D01*
X134115398Y-107172190D02*
X134067779Y-107124571D01*
X134067779Y-107124571D02*
X134020160Y-107029333D01*
X134020160Y-107029333D02*
X134020160Y-106934095D01*
X134020160Y-106934095D02*
X134067779Y-106838857D01*
X134067779Y-106838857D02*
X134115398Y-106791238D01*
X134115398Y-106791238D02*
X134210636Y-106743619D01*
X134210636Y-106743619D02*
X134448731Y-106743619D01*
X134448731Y-106743619D02*
X134591588Y-106791238D01*
X134877303Y-106743619D02*
X135448731Y-106743619D01*
X135163017Y-107743619D02*
X135163017Y-106743619D01*
X135782065Y-107743619D02*
X135782065Y-106743619D01*
X135782065Y-106743619D02*
X136020160Y-106743619D01*
X136020160Y-106743619D02*
X136163017Y-106791238D01*
X136163017Y-106791238D02*
X136258255Y-106886476D01*
X136258255Y-106886476D02*
X136305874Y-106981714D01*
X136305874Y-106981714D02*
X136353493Y-107172190D01*
X136353493Y-107172190D02*
X136353493Y-107315047D01*
X136353493Y-107315047D02*
X136305874Y-107505523D01*
X136305874Y-107505523D02*
X136258255Y-107600761D01*
X136258255Y-107600761D02*
X136163017Y-107696000D01*
X136163017Y-107696000D02*
X136020160Y-107743619D01*
X136020160Y-107743619D02*
X135782065Y-107743619D01*
X137115398Y-107219809D02*
X137258255Y-107267428D01*
X137258255Y-107267428D02*
X137305874Y-107315047D01*
X137305874Y-107315047D02*
X137353493Y-107410285D01*
X137353493Y-107410285D02*
X137353493Y-107553142D01*
X137353493Y-107553142D02*
X137305874Y-107648380D01*
X137305874Y-107648380D02*
X137258255Y-107696000D01*
X137258255Y-107696000D02*
X137163017Y-107743619D01*
X137163017Y-107743619D02*
X136782065Y-107743619D01*
X136782065Y-107743619D02*
X136782065Y-106743619D01*
X136782065Y-106743619D02*
X137115398Y-106743619D01*
X137115398Y-106743619D02*
X137210636Y-106791238D01*
X137210636Y-106791238D02*
X137258255Y-106838857D01*
X137258255Y-106838857D02*
X137305874Y-106934095D01*
X137305874Y-106934095D02*
X137305874Y-107029333D01*
X137305874Y-107029333D02*
X137258255Y-107124571D01*
X137258255Y-107124571D02*
X137210636Y-107172190D01*
X137210636Y-107172190D02*
X137115398Y-107219809D01*
X137115398Y-107219809D02*
X136782065Y-107219809D01*
X137972541Y-107267428D02*
X137972541Y-107743619D01*
X137639208Y-106743619D02*
X137972541Y-107267428D01*
X137972541Y-107267428D02*
X138305874Y-106743619D01*
D11*
X178495825Y-93401426D02*
X178995825Y-94901426D01*
X178995825Y-94901426D02*
X179495825Y-93401426D01*
X180495824Y-94115712D02*
X180710110Y-94187140D01*
X180710110Y-94187140D02*
X180781539Y-94258569D01*
X180781539Y-94258569D02*
X180852967Y-94401426D01*
X180852967Y-94401426D02*
X180852967Y-94615712D01*
X180852967Y-94615712D02*
X180781539Y-94758569D01*
X180781539Y-94758569D02*
X180710110Y-94829998D01*
X180710110Y-94829998D02*
X180567253Y-94901426D01*
X180567253Y-94901426D02*
X179995824Y-94901426D01*
X179995824Y-94901426D02*
X179995824Y-93401426D01*
X179995824Y-93401426D02*
X180495824Y-93401426D01*
X180495824Y-93401426D02*
X180638682Y-93472855D01*
X180638682Y-93472855D02*
X180710110Y-93544283D01*
X180710110Y-93544283D02*
X180781539Y-93687140D01*
X180781539Y-93687140D02*
X180781539Y-93829998D01*
X180781539Y-93829998D02*
X180710110Y-93972855D01*
X180710110Y-93972855D02*
X180638682Y-94044283D01*
X180638682Y-94044283D02*
X180495824Y-94115712D01*
X180495824Y-94115712D02*
X179995824Y-94115712D01*
X181495824Y-93401426D02*
X181495824Y-94615712D01*
X181495824Y-94615712D02*
X181567253Y-94758569D01*
X181567253Y-94758569D02*
X181638682Y-94829998D01*
X181638682Y-94829998D02*
X181781539Y-94901426D01*
X181781539Y-94901426D02*
X182067253Y-94901426D01*
X182067253Y-94901426D02*
X182210110Y-94829998D01*
X182210110Y-94829998D02*
X182281539Y-94758569D01*
X182281539Y-94758569D02*
X182352967Y-94615712D01*
X182352967Y-94615712D02*
X182352967Y-93401426D01*
X182995825Y-94829998D02*
X183210111Y-94901426D01*
X183210111Y-94901426D02*
X183567253Y-94901426D01*
X183567253Y-94901426D02*
X183710111Y-94829998D01*
X183710111Y-94829998D02*
X183781539Y-94758569D01*
X183781539Y-94758569D02*
X183852968Y-94615712D01*
X183852968Y-94615712D02*
X183852968Y-94472855D01*
X183852968Y-94472855D02*
X183781539Y-94329998D01*
X183781539Y-94329998D02*
X183710111Y-94258569D01*
X183710111Y-94258569D02*
X183567253Y-94187140D01*
X183567253Y-94187140D02*
X183281539Y-94115712D01*
X183281539Y-94115712D02*
X183138682Y-94044283D01*
X183138682Y-94044283D02*
X183067253Y-93972855D01*
X183067253Y-93972855D02*
X182995825Y-93829998D01*
X182995825Y-93829998D02*
X182995825Y-93687140D01*
X182995825Y-93687140D02*
X183067253Y-93544283D01*
X183067253Y-93544283D02*
X183138682Y-93472855D01*
X183138682Y-93472855D02*
X183281539Y-93401426D01*
X183281539Y-93401426D02*
X183638682Y-93401426D01*
X183638682Y-93401426D02*
X183852968Y-93472855D01*
D10*
X147381933Y-95992619D02*
X147048600Y-95516428D01*
X146810505Y-95992619D02*
X146810505Y-94992619D01*
X146810505Y-94992619D02*
X147191457Y-94992619D01*
X147191457Y-94992619D02*
X147286695Y-95040238D01*
X147286695Y-95040238D02*
X147334314Y-95087857D01*
X147334314Y-95087857D02*
X147381933Y-95183095D01*
X147381933Y-95183095D02*
X147381933Y-95325952D01*
X147381933Y-95325952D02*
X147334314Y-95421190D01*
X147334314Y-95421190D02*
X147286695Y-95468809D01*
X147286695Y-95468809D02*
X147191457Y-95516428D01*
X147191457Y-95516428D02*
X146810505Y-95516428D01*
X147858124Y-95992619D02*
X148048600Y-95992619D01*
X148048600Y-95992619D02*
X148143838Y-95945000D01*
X148143838Y-95945000D02*
X148191457Y-95897380D01*
X148191457Y-95897380D02*
X148286695Y-95754523D01*
X148286695Y-95754523D02*
X148334314Y-95564047D01*
X148334314Y-95564047D02*
X148334314Y-95183095D01*
X148334314Y-95183095D02*
X148286695Y-95087857D01*
X148286695Y-95087857D02*
X148239076Y-95040238D01*
X148239076Y-95040238D02*
X148143838Y-94992619D01*
X148143838Y-94992619D02*
X147953362Y-94992619D01*
X147953362Y-94992619D02*
X147858124Y-95040238D01*
X147858124Y-95040238D02*
X147810505Y-95087857D01*
X147810505Y-95087857D02*
X147762886Y-95183095D01*
X147762886Y-95183095D02*
X147762886Y-95421190D01*
X147762886Y-95421190D02*
X147810505Y-95516428D01*
X147810505Y-95516428D02*
X147858124Y-95564047D01*
X147858124Y-95564047D02*
X147953362Y-95611666D01*
X147953362Y-95611666D02*
X148143838Y-95611666D01*
X148143838Y-95611666D02*
X148239076Y-95564047D01*
X148239076Y-95564047D02*
X148286695Y-95516428D01*
X148286695Y-95516428D02*
X148334314Y-95421190D01*
X161178519Y-87992661D02*
X161321376Y-88040280D01*
X161321376Y-88040280D02*
X161368995Y-88087899D01*
X161368995Y-88087899D02*
X161416614Y-88183137D01*
X161416614Y-88183137D02*
X161416614Y-88325994D01*
X161416614Y-88325994D02*
X161368995Y-88421232D01*
X161368995Y-88421232D02*
X161321376Y-88468852D01*
X161321376Y-88468852D02*
X161226138Y-88516471D01*
X161226138Y-88516471D02*
X160845186Y-88516471D01*
X160845186Y-88516471D02*
X160845186Y-87516471D01*
X160845186Y-87516471D02*
X161178519Y-87516471D01*
X161178519Y-87516471D02*
X161273757Y-87564090D01*
X161273757Y-87564090D02*
X161321376Y-87611709D01*
X161321376Y-87611709D02*
X161368995Y-87706947D01*
X161368995Y-87706947D02*
X161368995Y-87802185D01*
X161368995Y-87802185D02*
X161321376Y-87897423D01*
X161321376Y-87897423D02*
X161273757Y-87945042D01*
X161273757Y-87945042D02*
X161178519Y-87992661D01*
X161178519Y-87992661D02*
X160845186Y-87992661D01*
X161797567Y-87611709D02*
X161845186Y-87564090D01*
X161845186Y-87564090D02*
X161940424Y-87516471D01*
X161940424Y-87516471D02*
X162178519Y-87516471D01*
X162178519Y-87516471D02*
X162273757Y-87564090D01*
X162273757Y-87564090D02*
X162321376Y-87611709D01*
X162321376Y-87611709D02*
X162368995Y-87706947D01*
X162368995Y-87706947D02*
X162368995Y-87802185D01*
X162368995Y-87802185D02*
X162321376Y-87945042D01*
X162321376Y-87945042D02*
X161749948Y-88516471D01*
X161749948Y-88516471D02*
X162368995Y-88516471D01*
X147381933Y-104992619D02*
X147048600Y-104516428D01*
X146810505Y-104992619D02*
X146810505Y-103992619D01*
X146810505Y-103992619D02*
X147191457Y-103992619D01*
X147191457Y-103992619D02*
X147286695Y-104040238D01*
X147286695Y-104040238D02*
X147334314Y-104087857D01*
X147334314Y-104087857D02*
X147381933Y-104183095D01*
X147381933Y-104183095D02*
X147381933Y-104325952D01*
X147381933Y-104325952D02*
X147334314Y-104421190D01*
X147334314Y-104421190D02*
X147286695Y-104468809D01*
X147286695Y-104468809D02*
X147191457Y-104516428D01*
X147191457Y-104516428D02*
X146810505Y-104516428D01*
X148239076Y-103992619D02*
X148048600Y-103992619D01*
X148048600Y-103992619D02*
X147953362Y-104040238D01*
X147953362Y-104040238D02*
X147905743Y-104087857D01*
X147905743Y-104087857D02*
X147810505Y-104230714D01*
X147810505Y-104230714D02*
X147762886Y-104421190D01*
X147762886Y-104421190D02*
X147762886Y-104802142D01*
X147762886Y-104802142D02*
X147810505Y-104897380D01*
X147810505Y-104897380D02*
X147858124Y-104945000D01*
X147858124Y-104945000D02*
X147953362Y-104992619D01*
X147953362Y-104992619D02*
X148143838Y-104992619D01*
X148143838Y-104992619D02*
X148239076Y-104945000D01*
X148239076Y-104945000D02*
X148286695Y-104897380D01*
X148286695Y-104897380D02*
X148334314Y-104802142D01*
X148334314Y-104802142D02*
X148334314Y-104564047D01*
X148334314Y-104564047D02*
X148286695Y-104468809D01*
X148286695Y-104468809D02*
X148239076Y-104421190D01*
X148239076Y-104421190D02*
X148143838Y-104373571D01*
X148143838Y-104373571D02*
X147953362Y-104373571D01*
X147953362Y-104373571D02*
X147858124Y-104421190D01*
X147858124Y-104421190D02*
X147810505Y-104468809D01*
X147810505Y-104468809D02*
X147762886Y-104564047D01*
X189777019Y-103236494D02*
X190586542Y-103236494D01*
X190586542Y-103236494D02*
X190681780Y-103188875D01*
X190681780Y-103188875D02*
X190729400Y-103141256D01*
X190729400Y-103141256D02*
X190777019Y-103046018D01*
X190777019Y-103046018D02*
X190777019Y-102855542D01*
X190777019Y-102855542D02*
X190729400Y-102760304D01*
X190729400Y-102760304D02*
X190681780Y-102712685D01*
X190681780Y-102712685D02*
X190586542Y-102665066D01*
X190586542Y-102665066D02*
X189777019Y-102665066D01*
X190729400Y-102236494D02*
X190777019Y-102093637D01*
X190777019Y-102093637D02*
X190777019Y-101855542D01*
X190777019Y-101855542D02*
X190729400Y-101760304D01*
X190729400Y-101760304D02*
X190681780Y-101712685D01*
X190681780Y-101712685D02*
X190586542Y-101665066D01*
X190586542Y-101665066D02*
X190491304Y-101665066D01*
X190491304Y-101665066D02*
X190396066Y-101712685D01*
X190396066Y-101712685D02*
X190348447Y-101760304D01*
X190348447Y-101760304D02*
X190300828Y-101855542D01*
X190300828Y-101855542D02*
X190253209Y-102046018D01*
X190253209Y-102046018D02*
X190205590Y-102141256D01*
X190205590Y-102141256D02*
X190157971Y-102188875D01*
X190157971Y-102188875D02*
X190062733Y-102236494D01*
X190062733Y-102236494D02*
X189967495Y-102236494D01*
X189967495Y-102236494D02*
X189872257Y-102188875D01*
X189872257Y-102188875D02*
X189824638Y-102141256D01*
X189824638Y-102141256D02*
X189777019Y-102046018D01*
X189777019Y-102046018D02*
X189777019Y-101807923D01*
X189777019Y-101807923D02*
X189824638Y-101665066D01*
X190253209Y-100903161D02*
X190300828Y-100760304D01*
X190300828Y-100760304D02*
X190348447Y-100712685D01*
X190348447Y-100712685D02*
X190443685Y-100665066D01*
X190443685Y-100665066D02*
X190586542Y-100665066D01*
X190586542Y-100665066D02*
X190681780Y-100712685D01*
X190681780Y-100712685D02*
X190729400Y-100760304D01*
X190729400Y-100760304D02*
X190777019Y-100855542D01*
X190777019Y-100855542D02*
X190777019Y-101236494D01*
X190777019Y-101236494D02*
X189777019Y-101236494D01*
X189777019Y-101236494D02*
X189777019Y-100903161D01*
X189777019Y-100903161D02*
X189824638Y-100807923D01*
X189824638Y-100807923D02*
X189872257Y-100760304D01*
X189872257Y-100760304D02*
X189967495Y-100712685D01*
X189967495Y-100712685D02*
X190062733Y-100712685D01*
X190062733Y-100712685D02*
X190157971Y-100760304D01*
X190157971Y-100760304D02*
X190205590Y-100807923D01*
X190205590Y-100807923D02*
X190253209Y-100903161D01*
X190253209Y-100903161D02*
X190253209Y-101236494D01*
X190777019Y-99712685D02*
X190777019Y-100284113D01*
X190777019Y-99998399D02*
X189777019Y-99998399D01*
X189777019Y-99998399D02*
X189919876Y-100093637D01*
X189919876Y-100093637D02*
X190015114Y-100188875D01*
X190015114Y-100188875D02*
X190062733Y-100284113D01*
X141851142Y-109319219D02*
X141517809Y-108843028D01*
X141279714Y-109319219D02*
X141279714Y-108319219D01*
X141279714Y-108319219D02*
X141660666Y-108319219D01*
X141660666Y-108319219D02*
X141755904Y-108366838D01*
X141755904Y-108366838D02*
X141803523Y-108414457D01*
X141803523Y-108414457D02*
X141851142Y-108509695D01*
X141851142Y-108509695D02*
X141851142Y-108652552D01*
X141851142Y-108652552D02*
X141803523Y-108747790D01*
X141803523Y-108747790D02*
X141755904Y-108795409D01*
X141755904Y-108795409D02*
X141660666Y-108843028D01*
X141660666Y-108843028D02*
X141279714Y-108843028D01*
X142232095Y-108414457D02*
X142279714Y-108366838D01*
X142279714Y-108366838D02*
X142374952Y-108319219D01*
X142374952Y-108319219D02*
X142613047Y-108319219D01*
X142613047Y-108319219D02*
X142708285Y-108366838D01*
X142708285Y-108366838D02*
X142755904Y-108414457D01*
X142755904Y-108414457D02*
X142803523Y-108509695D01*
X142803523Y-108509695D02*
X142803523Y-108604933D01*
X142803523Y-108604933D02*
X142755904Y-108747790D01*
X142755904Y-108747790D02*
X142184476Y-109319219D01*
X142184476Y-109319219D02*
X142803523Y-109319219D01*
X143374952Y-108747790D02*
X143279714Y-108700171D01*
X143279714Y-108700171D02*
X143232095Y-108652552D01*
X143232095Y-108652552D02*
X143184476Y-108557314D01*
X143184476Y-108557314D02*
X143184476Y-108509695D01*
X143184476Y-108509695D02*
X143232095Y-108414457D01*
X143232095Y-108414457D02*
X143279714Y-108366838D01*
X143279714Y-108366838D02*
X143374952Y-108319219D01*
X143374952Y-108319219D02*
X143565428Y-108319219D01*
X143565428Y-108319219D02*
X143660666Y-108366838D01*
X143660666Y-108366838D02*
X143708285Y-108414457D01*
X143708285Y-108414457D02*
X143755904Y-108509695D01*
X143755904Y-108509695D02*
X143755904Y-108557314D01*
X143755904Y-108557314D02*
X143708285Y-108652552D01*
X143708285Y-108652552D02*
X143660666Y-108700171D01*
X143660666Y-108700171D02*
X143565428Y-108747790D01*
X143565428Y-108747790D02*
X143374952Y-108747790D01*
X143374952Y-108747790D02*
X143279714Y-108795409D01*
X143279714Y-108795409D02*
X143232095Y-108843028D01*
X143232095Y-108843028D02*
X143184476Y-108938266D01*
X143184476Y-108938266D02*
X143184476Y-109128742D01*
X143184476Y-109128742D02*
X143232095Y-109223980D01*
X143232095Y-109223980D02*
X143279714Y-109271600D01*
X143279714Y-109271600D02*
X143374952Y-109319219D01*
X143374952Y-109319219D02*
X143565428Y-109319219D01*
X143565428Y-109319219D02*
X143660666Y-109271600D01*
X143660666Y-109271600D02*
X143708285Y-109223980D01*
X143708285Y-109223980D02*
X143755904Y-109128742D01*
X143755904Y-109128742D02*
X143755904Y-108938266D01*
X143755904Y-108938266D02*
X143708285Y-108843028D01*
X143708285Y-108843028D02*
X143660666Y-108795409D01*
X143660666Y-108795409D02*
X143565428Y-108747790D01*
X161178519Y-106072839D02*
X161321376Y-106120458D01*
X161321376Y-106120458D02*
X161368995Y-106168077D01*
X161368995Y-106168077D02*
X161416614Y-106263315D01*
X161416614Y-106263315D02*
X161416614Y-106406172D01*
X161416614Y-106406172D02*
X161368995Y-106501410D01*
X161368995Y-106501410D02*
X161321376Y-106549030D01*
X161321376Y-106549030D02*
X161226138Y-106596649D01*
X161226138Y-106596649D02*
X160845186Y-106596649D01*
X160845186Y-106596649D02*
X160845186Y-105596649D01*
X160845186Y-105596649D02*
X161178519Y-105596649D01*
X161178519Y-105596649D02*
X161273757Y-105644268D01*
X161273757Y-105644268D02*
X161321376Y-105691887D01*
X161321376Y-105691887D02*
X161368995Y-105787125D01*
X161368995Y-105787125D02*
X161368995Y-105882363D01*
X161368995Y-105882363D02*
X161321376Y-105977601D01*
X161321376Y-105977601D02*
X161273757Y-106025220D01*
X161273757Y-106025220D02*
X161178519Y-106072839D01*
X161178519Y-106072839D02*
X160845186Y-106072839D01*
X161988043Y-106025220D02*
X161892805Y-105977601D01*
X161892805Y-105977601D02*
X161845186Y-105929982D01*
X161845186Y-105929982D02*
X161797567Y-105834744D01*
X161797567Y-105834744D02*
X161797567Y-105787125D01*
X161797567Y-105787125D02*
X161845186Y-105691887D01*
X161845186Y-105691887D02*
X161892805Y-105644268D01*
X161892805Y-105644268D02*
X161988043Y-105596649D01*
X161988043Y-105596649D02*
X162178519Y-105596649D01*
X162178519Y-105596649D02*
X162273757Y-105644268D01*
X162273757Y-105644268D02*
X162321376Y-105691887D01*
X162321376Y-105691887D02*
X162368995Y-105787125D01*
X162368995Y-105787125D02*
X162368995Y-105834744D01*
X162368995Y-105834744D02*
X162321376Y-105929982D01*
X162321376Y-105929982D02*
X162273757Y-105977601D01*
X162273757Y-105977601D02*
X162178519Y-106025220D01*
X162178519Y-106025220D02*
X161988043Y-106025220D01*
X161988043Y-106025220D02*
X161892805Y-106072839D01*
X161892805Y-106072839D02*
X161845186Y-106120458D01*
X161845186Y-106120458D02*
X161797567Y-106215696D01*
X161797567Y-106215696D02*
X161797567Y-106406172D01*
X161797567Y-106406172D02*
X161845186Y-106501410D01*
X161845186Y-106501410D02*
X161892805Y-106549030D01*
X161892805Y-106549030D02*
X161988043Y-106596649D01*
X161988043Y-106596649D02*
X162178519Y-106596649D01*
X162178519Y-106596649D02*
X162273757Y-106549030D01*
X162273757Y-106549030D02*
X162321376Y-106501410D01*
X162321376Y-106501410D02*
X162368995Y-106406172D01*
X162368995Y-106406172D02*
X162368995Y-106215696D01*
X162368995Y-106215696D02*
X162321376Y-106120458D01*
X162321376Y-106120458D02*
X162273757Y-106072839D01*
X162273757Y-106072839D02*
X162178519Y-106025220D01*
X194010114Y-91767819D02*
X194010114Y-90767819D01*
X194010114Y-90767819D02*
X194248209Y-90767819D01*
X194248209Y-90767819D02*
X194391066Y-90815438D01*
X194391066Y-90815438D02*
X194486304Y-90910676D01*
X194486304Y-90910676D02*
X194533923Y-91005914D01*
X194533923Y-91005914D02*
X194581542Y-91196390D01*
X194581542Y-91196390D02*
X194581542Y-91339247D01*
X194581542Y-91339247D02*
X194533923Y-91529723D01*
X194533923Y-91529723D02*
X194486304Y-91624961D01*
X194486304Y-91624961D02*
X194391066Y-91720200D01*
X194391066Y-91720200D02*
X194248209Y-91767819D01*
X194248209Y-91767819D02*
X194010114Y-91767819D01*
X194962495Y-90863057D02*
X195010114Y-90815438D01*
X195010114Y-90815438D02*
X195105352Y-90767819D01*
X195105352Y-90767819D02*
X195343447Y-90767819D01*
X195343447Y-90767819D02*
X195438685Y-90815438D01*
X195438685Y-90815438D02*
X195486304Y-90863057D01*
X195486304Y-90863057D02*
X195533923Y-90958295D01*
X195533923Y-90958295D02*
X195533923Y-91053533D01*
X195533923Y-91053533D02*
X195486304Y-91196390D01*
X195486304Y-91196390D02*
X194914876Y-91767819D01*
X194914876Y-91767819D02*
X195533923Y-91767819D01*
X196438685Y-90767819D02*
X195962495Y-90767819D01*
X195962495Y-90767819D02*
X195914876Y-91244009D01*
X195914876Y-91244009D02*
X195962495Y-91196390D01*
X195962495Y-91196390D02*
X196057733Y-91148771D01*
X196057733Y-91148771D02*
X196295828Y-91148771D01*
X196295828Y-91148771D02*
X196391066Y-91196390D01*
X196391066Y-91196390D02*
X196438685Y-91244009D01*
X196438685Y-91244009D02*
X196486304Y-91339247D01*
X196486304Y-91339247D02*
X196486304Y-91577342D01*
X196486304Y-91577342D02*
X196438685Y-91672580D01*
X196438685Y-91672580D02*
X196391066Y-91720200D01*
X196391066Y-91720200D02*
X196295828Y-91767819D01*
X196295828Y-91767819D02*
X196057733Y-91767819D01*
X196057733Y-91767819D02*
X195962495Y-91720200D01*
X195962495Y-91720200D02*
X195914876Y-91672580D01*
X185335942Y-102183719D02*
X185002609Y-101707528D01*
X184764514Y-102183719D02*
X184764514Y-101183719D01*
X184764514Y-101183719D02*
X185145466Y-101183719D01*
X185145466Y-101183719D02*
X185240704Y-101231338D01*
X185240704Y-101231338D02*
X185288323Y-101278957D01*
X185288323Y-101278957D02*
X185335942Y-101374195D01*
X185335942Y-101374195D02*
X185335942Y-101517052D01*
X185335942Y-101517052D02*
X185288323Y-101612290D01*
X185288323Y-101612290D02*
X185240704Y-101659909D01*
X185240704Y-101659909D02*
X185145466Y-101707528D01*
X185145466Y-101707528D02*
X184764514Y-101707528D01*
X186288323Y-102183719D02*
X185716895Y-102183719D01*
X186002609Y-102183719D02*
X186002609Y-101183719D01*
X186002609Y-101183719D02*
X185907371Y-101326576D01*
X185907371Y-101326576D02*
X185812133Y-101421814D01*
X185812133Y-101421814D02*
X185716895Y-101469433D01*
X186764514Y-102183719D02*
X186954990Y-102183719D01*
X186954990Y-102183719D02*
X187050228Y-102136100D01*
X187050228Y-102136100D02*
X187097847Y-102088480D01*
X187097847Y-102088480D02*
X187193085Y-101945623D01*
X187193085Y-101945623D02*
X187240704Y-101755147D01*
X187240704Y-101755147D02*
X187240704Y-101374195D01*
X187240704Y-101374195D02*
X187193085Y-101278957D01*
X187193085Y-101278957D02*
X187145466Y-101231338D01*
X187145466Y-101231338D02*
X187050228Y-101183719D01*
X187050228Y-101183719D02*
X186859752Y-101183719D01*
X186859752Y-101183719D02*
X186764514Y-101231338D01*
X186764514Y-101231338D02*
X186716895Y-101278957D01*
X186716895Y-101278957D02*
X186669276Y-101374195D01*
X186669276Y-101374195D02*
X186669276Y-101612290D01*
X186669276Y-101612290D02*
X186716895Y-101707528D01*
X186716895Y-101707528D02*
X186764514Y-101755147D01*
X186764514Y-101755147D02*
X186859752Y-101802766D01*
X186859752Y-101802766D02*
X187050228Y-101802766D01*
X187050228Y-101802766D02*
X187145466Y-101755147D01*
X187145466Y-101755147D02*
X187193085Y-101707528D01*
X187193085Y-101707528D02*
X187240704Y-101612290D01*
X171453324Y-109490704D02*
X171929514Y-109490704D01*
X171358086Y-109776419D02*
X171691419Y-108776419D01*
X171691419Y-108776419D02*
X172024752Y-109776419D01*
X172786657Y-109109752D02*
X172786657Y-109776419D01*
X172548562Y-108728800D02*
X172310467Y-109443085D01*
X172310467Y-109443085D02*
X172929514Y-109443085D01*
X147381833Y-113992619D02*
X147048500Y-113516428D01*
X146810405Y-113992619D02*
X146810405Y-112992619D01*
X146810405Y-112992619D02*
X147191357Y-112992619D01*
X147191357Y-112992619D02*
X147286595Y-113040238D01*
X147286595Y-113040238D02*
X147334214Y-113087857D01*
X147334214Y-113087857D02*
X147381833Y-113183095D01*
X147381833Y-113183095D02*
X147381833Y-113325952D01*
X147381833Y-113325952D02*
X147334214Y-113421190D01*
X147334214Y-113421190D02*
X147286595Y-113468809D01*
X147286595Y-113468809D02*
X147191357Y-113516428D01*
X147191357Y-113516428D02*
X146810405Y-113516428D01*
X147715167Y-112992619D02*
X148334214Y-112992619D01*
X148334214Y-112992619D02*
X148000881Y-113373571D01*
X148000881Y-113373571D02*
X148143738Y-113373571D01*
X148143738Y-113373571D02*
X148238976Y-113421190D01*
X148238976Y-113421190D02*
X148286595Y-113468809D01*
X148286595Y-113468809D02*
X148334214Y-113564047D01*
X148334214Y-113564047D02*
X148334214Y-113802142D01*
X148334214Y-113802142D02*
X148286595Y-113897380D01*
X148286595Y-113897380D02*
X148238976Y-113945000D01*
X148238976Y-113945000D02*
X148143738Y-113992619D01*
X148143738Y-113992619D02*
X147858024Y-113992619D01*
X147858024Y-113992619D02*
X147762786Y-113945000D01*
X147762786Y-113945000D02*
X147715167Y-113897380D01*
X147381933Y-101992619D02*
X147048600Y-101516428D01*
X146810505Y-101992619D02*
X146810505Y-100992619D01*
X146810505Y-100992619D02*
X147191457Y-100992619D01*
X147191457Y-100992619D02*
X147286695Y-101040238D01*
X147286695Y-101040238D02*
X147334314Y-101087857D01*
X147334314Y-101087857D02*
X147381933Y-101183095D01*
X147381933Y-101183095D02*
X147381933Y-101325952D01*
X147381933Y-101325952D02*
X147334314Y-101421190D01*
X147334314Y-101421190D02*
X147286695Y-101468809D01*
X147286695Y-101468809D02*
X147191457Y-101516428D01*
X147191457Y-101516428D02*
X146810505Y-101516428D01*
X147715267Y-100992619D02*
X148381933Y-100992619D01*
X148381933Y-100992619D02*
X147953362Y-101992619D01*
X171453324Y-91456704D02*
X171929514Y-91456704D01*
X171358086Y-91742419D02*
X171691419Y-90742419D01*
X171691419Y-90742419D02*
X172024752Y-91742419D01*
X172881895Y-91742419D02*
X172310467Y-91742419D01*
X172596181Y-91742419D02*
X172596181Y-90742419D01*
X172596181Y-90742419D02*
X172500943Y-90885276D01*
X172500943Y-90885276D02*
X172405705Y-90980514D01*
X172405705Y-90980514D02*
X172310467Y-91028133D01*
X173500943Y-90742419D02*
X173596181Y-90742419D01*
X173596181Y-90742419D02*
X173691419Y-90790038D01*
X173691419Y-90790038D02*
X173739038Y-90837657D01*
X173739038Y-90837657D02*
X173786657Y-90932895D01*
X173786657Y-90932895D02*
X173834276Y-91123371D01*
X173834276Y-91123371D02*
X173834276Y-91361466D01*
X173834276Y-91361466D02*
X173786657Y-91551942D01*
X173786657Y-91551942D02*
X173739038Y-91647180D01*
X173739038Y-91647180D02*
X173691419Y-91694800D01*
X173691419Y-91694800D02*
X173596181Y-91742419D01*
X173596181Y-91742419D02*
X173500943Y-91742419D01*
X173500943Y-91742419D02*
X173405705Y-91694800D01*
X173405705Y-91694800D02*
X173358086Y-91647180D01*
X173358086Y-91647180D02*
X173310467Y-91551942D01*
X173310467Y-91551942D02*
X173262848Y-91361466D01*
X173262848Y-91361466D02*
X173262848Y-91123371D01*
X173262848Y-91123371D02*
X173310467Y-90932895D01*
X173310467Y-90932895D02*
X173358086Y-90837657D01*
X173358086Y-90837657D02*
X173405705Y-90790038D01*
X173405705Y-90790038D02*
X173500943Y-90742419D01*
X171453324Y-94479304D02*
X171929514Y-94479304D01*
X171358086Y-94765019D02*
X171691419Y-93765019D01*
X171691419Y-93765019D02*
X172024752Y-94765019D01*
X172405705Y-94765019D02*
X172596181Y-94765019D01*
X172596181Y-94765019D02*
X172691419Y-94717400D01*
X172691419Y-94717400D02*
X172739038Y-94669780D01*
X172739038Y-94669780D02*
X172834276Y-94526923D01*
X172834276Y-94526923D02*
X172881895Y-94336447D01*
X172881895Y-94336447D02*
X172881895Y-93955495D01*
X172881895Y-93955495D02*
X172834276Y-93860257D01*
X172834276Y-93860257D02*
X172786657Y-93812638D01*
X172786657Y-93812638D02*
X172691419Y-93765019D01*
X172691419Y-93765019D02*
X172500943Y-93765019D01*
X172500943Y-93765019D02*
X172405705Y-93812638D01*
X172405705Y-93812638D02*
X172358086Y-93860257D01*
X172358086Y-93860257D02*
X172310467Y-93955495D01*
X172310467Y-93955495D02*
X172310467Y-94193590D01*
X172310467Y-94193590D02*
X172358086Y-94288828D01*
X172358086Y-94288828D02*
X172405705Y-94336447D01*
X172405705Y-94336447D02*
X172500943Y-94384066D01*
X172500943Y-94384066D02*
X172691419Y-94384066D01*
X172691419Y-94384066D02*
X172786657Y-94336447D01*
X172786657Y-94336447D02*
X172834276Y-94288828D01*
X172834276Y-94288828D02*
X172881895Y-94193590D01*
X141948819Y-102474494D02*
X142758342Y-102474494D01*
X142758342Y-102474494D02*
X142853580Y-102426875D01*
X142853580Y-102426875D02*
X142901200Y-102379256D01*
X142901200Y-102379256D02*
X142948819Y-102284018D01*
X142948819Y-102284018D02*
X142948819Y-102093542D01*
X142948819Y-102093542D02*
X142901200Y-101998304D01*
X142901200Y-101998304D02*
X142853580Y-101950685D01*
X142853580Y-101950685D02*
X142758342Y-101903066D01*
X142758342Y-101903066D02*
X141948819Y-101903066D01*
X142901200Y-101474494D02*
X142948819Y-101331637D01*
X142948819Y-101331637D02*
X142948819Y-101093542D01*
X142948819Y-101093542D02*
X142901200Y-100998304D01*
X142901200Y-100998304D02*
X142853580Y-100950685D01*
X142853580Y-100950685D02*
X142758342Y-100903066D01*
X142758342Y-100903066D02*
X142663104Y-100903066D01*
X142663104Y-100903066D02*
X142567866Y-100950685D01*
X142567866Y-100950685D02*
X142520247Y-100998304D01*
X142520247Y-100998304D02*
X142472628Y-101093542D01*
X142472628Y-101093542D02*
X142425009Y-101284018D01*
X142425009Y-101284018D02*
X142377390Y-101379256D01*
X142377390Y-101379256D02*
X142329771Y-101426875D01*
X142329771Y-101426875D02*
X142234533Y-101474494D01*
X142234533Y-101474494D02*
X142139295Y-101474494D01*
X142139295Y-101474494D02*
X142044057Y-101426875D01*
X142044057Y-101426875D02*
X141996438Y-101379256D01*
X141996438Y-101379256D02*
X141948819Y-101284018D01*
X141948819Y-101284018D02*
X141948819Y-101045923D01*
X141948819Y-101045923D02*
X141996438Y-100903066D01*
X142425009Y-100141161D02*
X142472628Y-99998304D01*
X142472628Y-99998304D02*
X142520247Y-99950685D01*
X142520247Y-99950685D02*
X142615485Y-99903066D01*
X142615485Y-99903066D02*
X142758342Y-99903066D01*
X142758342Y-99903066D02*
X142853580Y-99950685D01*
X142853580Y-99950685D02*
X142901200Y-99998304D01*
X142901200Y-99998304D02*
X142948819Y-100093542D01*
X142948819Y-100093542D02*
X142948819Y-100474494D01*
X142948819Y-100474494D02*
X141948819Y-100474494D01*
X141948819Y-100474494D02*
X141948819Y-100141161D01*
X141948819Y-100141161D02*
X141996438Y-100045923D01*
X141996438Y-100045923D02*
X142044057Y-99998304D01*
X142044057Y-99998304D02*
X142139295Y-99950685D01*
X142139295Y-99950685D02*
X142234533Y-99950685D01*
X142234533Y-99950685D02*
X142329771Y-99998304D01*
X142329771Y-99998304D02*
X142377390Y-100045923D01*
X142377390Y-100045923D02*
X142425009Y-100141161D01*
X142425009Y-100141161D02*
X142425009Y-100474494D01*
X142044057Y-99522113D02*
X141996438Y-99474494D01*
X141996438Y-99474494D02*
X141948819Y-99379256D01*
X141948819Y-99379256D02*
X141948819Y-99141161D01*
X141948819Y-99141161D02*
X141996438Y-99045923D01*
X141996438Y-99045923D02*
X142044057Y-98998304D01*
X142044057Y-98998304D02*
X142139295Y-98950685D01*
X142139295Y-98950685D02*
X142234533Y-98950685D01*
X142234533Y-98950685D02*
X142377390Y-98998304D01*
X142377390Y-98998304D02*
X142948819Y-99569732D01*
X142948819Y-99569732D02*
X142948819Y-98950685D01*
X132789705Y-109395419D02*
X132789705Y-108395419D01*
X132789705Y-108395419D02*
X133027800Y-108395419D01*
X133027800Y-108395419D02*
X133170657Y-108443038D01*
X133170657Y-108443038D02*
X133265895Y-108538276D01*
X133265895Y-108538276D02*
X133313514Y-108633514D01*
X133313514Y-108633514D02*
X133361133Y-108823990D01*
X133361133Y-108823990D02*
X133361133Y-108966847D01*
X133361133Y-108966847D02*
X133313514Y-109157323D01*
X133313514Y-109157323D02*
X133265895Y-109252561D01*
X133265895Y-109252561D02*
X133170657Y-109347800D01*
X133170657Y-109347800D02*
X133027800Y-109395419D01*
X133027800Y-109395419D02*
X132789705Y-109395419D01*
X133742086Y-108490657D02*
X133789705Y-108443038D01*
X133789705Y-108443038D02*
X133884943Y-108395419D01*
X133884943Y-108395419D02*
X134123038Y-108395419D01*
X134123038Y-108395419D02*
X134218276Y-108443038D01*
X134218276Y-108443038D02*
X134265895Y-108490657D01*
X134265895Y-108490657D02*
X134313514Y-108585895D01*
X134313514Y-108585895D02*
X134313514Y-108681133D01*
X134313514Y-108681133D02*
X134265895Y-108823990D01*
X134265895Y-108823990D02*
X133694467Y-109395419D01*
X133694467Y-109395419D02*
X134313514Y-109395419D01*
X146905742Y-89992619D02*
X146572409Y-89516428D01*
X146334314Y-89992619D02*
X146334314Y-88992619D01*
X146334314Y-88992619D02*
X146715266Y-88992619D01*
X146715266Y-88992619D02*
X146810504Y-89040238D01*
X146810504Y-89040238D02*
X146858123Y-89087857D01*
X146858123Y-89087857D02*
X146905742Y-89183095D01*
X146905742Y-89183095D02*
X146905742Y-89325952D01*
X146905742Y-89325952D02*
X146858123Y-89421190D01*
X146858123Y-89421190D02*
X146810504Y-89468809D01*
X146810504Y-89468809D02*
X146715266Y-89516428D01*
X146715266Y-89516428D02*
X146334314Y-89516428D01*
X147858123Y-89992619D02*
X147286695Y-89992619D01*
X147572409Y-89992619D02*
X147572409Y-88992619D01*
X147572409Y-88992619D02*
X147477171Y-89135476D01*
X147477171Y-89135476D02*
X147381933Y-89230714D01*
X147381933Y-89230714D02*
X147286695Y-89278333D01*
X148810504Y-89992619D02*
X148239076Y-89992619D01*
X148524790Y-89992619D02*
X148524790Y-88992619D01*
X148524790Y-88992619D02*
X148429552Y-89135476D01*
X148429552Y-89135476D02*
X148334314Y-89230714D01*
X148334314Y-89230714D02*
X148239076Y-89278333D01*
X160226138Y-118126298D02*
X160368995Y-118173917D01*
X160368995Y-118173917D02*
X160416614Y-118221536D01*
X160416614Y-118221536D02*
X160464233Y-118316774D01*
X160464233Y-118316774D02*
X160464233Y-118459631D01*
X160464233Y-118459631D02*
X160416614Y-118554869D01*
X160416614Y-118554869D02*
X160368995Y-118602489D01*
X160368995Y-118602489D02*
X160273757Y-118650108D01*
X160273757Y-118650108D02*
X159892805Y-118650108D01*
X159892805Y-118650108D02*
X159892805Y-117650108D01*
X159892805Y-117650108D02*
X160226138Y-117650108D01*
X160226138Y-117650108D02*
X160321376Y-117697727D01*
X160321376Y-117697727D02*
X160368995Y-117745346D01*
X160368995Y-117745346D02*
X160416614Y-117840584D01*
X160416614Y-117840584D02*
X160416614Y-117935822D01*
X160416614Y-117935822D02*
X160368995Y-118031060D01*
X160368995Y-118031060D02*
X160321376Y-118078679D01*
X160321376Y-118078679D02*
X160226138Y-118126298D01*
X160226138Y-118126298D02*
X159892805Y-118126298D01*
X161416614Y-118650108D02*
X160845186Y-118650108D01*
X161130900Y-118650108D02*
X161130900Y-117650108D01*
X161130900Y-117650108D02*
X161035662Y-117792965D01*
X161035662Y-117792965D02*
X160940424Y-117888203D01*
X160940424Y-117888203D02*
X160845186Y-117935822D01*
X161797567Y-117745346D02*
X161845186Y-117697727D01*
X161845186Y-117697727D02*
X161940424Y-117650108D01*
X161940424Y-117650108D02*
X162178519Y-117650108D01*
X162178519Y-117650108D02*
X162273757Y-117697727D01*
X162273757Y-117697727D02*
X162321376Y-117745346D01*
X162321376Y-117745346D02*
X162368995Y-117840584D01*
X162368995Y-117840584D02*
X162368995Y-117935822D01*
X162368995Y-117935822D02*
X162321376Y-118078679D01*
X162321376Y-118078679D02*
X161749948Y-118650108D01*
X161749948Y-118650108D02*
X162368995Y-118650108D01*
X171453324Y-115459704D02*
X171929514Y-115459704D01*
X171358086Y-115745419D02*
X171691419Y-114745419D01*
X171691419Y-114745419D02*
X172024752Y-115745419D01*
X172310467Y-114840657D02*
X172358086Y-114793038D01*
X172358086Y-114793038D02*
X172453324Y-114745419D01*
X172453324Y-114745419D02*
X172691419Y-114745419D01*
X172691419Y-114745419D02*
X172786657Y-114793038D01*
X172786657Y-114793038D02*
X172834276Y-114840657D01*
X172834276Y-114840657D02*
X172881895Y-114935895D01*
X172881895Y-114935895D02*
X172881895Y-115031133D01*
X172881895Y-115031133D02*
X172834276Y-115173990D01*
X172834276Y-115173990D02*
X172262848Y-115745419D01*
X172262848Y-115745419D02*
X172881895Y-115745419D01*
X185336042Y-90183719D02*
X185002709Y-89707528D01*
X184764614Y-90183719D02*
X184764614Y-89183719D01*
X184764614Y-89183719D02*
X185145566Y-89183719D01*
X185145566Y-89183719D02*
X185240804Y-89231338D01*
X185240804Y-89231338D02*
X185288423Y-89278957D01*
X185288423Y-89278957D02*
X185336042Y-89374195D01*
X185336042Y-89374195D02*
X185336042Y-89517052D01*
X185336042Y-89517052D02*
X185288423Y-89612290D01*
X185288423Y-89612290D02*
X185240804Y-89659909D01*
X185240804Y-89659909D02*
X185145566Y-89707528D01*
X185145566Y-89707528D02*
X184764614Y-89707528D01*
X186288423Y-90183719D02*
X185716995Y-90183719D01*
X186002709Y-90183719D02*
X186002709Y-89183719D01*
X186002709Y-89183719D02*
X185907471Y-89326576D01*
X185907471Y-89326576D02*
X185812233Y-89421814D01*
X185812233Y-89421814D02*
X185716995Y-89469433D01*
X187193185Y-89183719D02*
X186716995Y-89183719D01*
X186716995Y-89183719D02*
X186669376Y-89659909D01*
X186669376Y-89659909D02*
X186716995Y-89612290D01*
X186716995Y-89612290D02*
X186812233Y-89564671D01*
X186812233Y-89564671D02*
X187050328Y-89564671D01*
X187050328Y-89564671D02*
X187145566Y-89612290D01*
X187145566Y-89612290D02*
X187193185Y-89659909D01*
X187193185Y-89659909D02*
X187240804Y-89755147D01*
X187240804Y-89755147D02*
X187240804Y-89993242D01*
X187240804Y-89993242D02*
X187193185Y-90088480D01*
X187193185Y-90088480D02*
X187145566Y-90136100D01*
X187145566Y-90136100D02*
X187050328Y-90183719D01*
X187050328Y-90183719D02*
X186812233Y-90183719D01*
X186812233Y-90183719D02*
X186716995Y-90136100D01*
X186716995Y-90136100D02*
X186669376Y-90088480D01*
X161178519Y-84979298D02*
X161321376Y-85026917D01*
X161321376Y-85026917D02*
X161368995Y-85074536D01*
X161368995Y-85074536D02*
X161416614Y-85169774D01*
X161416614Y-85169774D02*
X161416614Y-85312631D01*
X161416614Y-85312631D02*
X161368995Y-85407869D01*
X161368995Y-85407869D02*
X161321376Y-85455489D01*
X161321376Y-85455489D02*
X161226138Y-85503108D01*
X161226138Y-85503108D02*
X160845186Y-85503108D01*
X160845186Y-85503108D02*
X160845186Y-84503108D01*
X160845186Y-84503108D02*
X161178519Y-84503108D01*
X161178519Y-84503108D02*
X161273757Y-84550727D01*
X161273757Y-84550727D02*
X161321376Y-84598346D01*
X161321376Y-84598346D02*
X161368995Y-84693584D01*
X161368995Y-84693584D02*
X161368995Y-84788822D01*
X161368995Y-84788822D02*
X161321376Y-84884060D01*
X161321376Y-84884060D02*
X161273757Y-84931679D01*
X161273757Y-84931679D02*
X161178519Y-84979298D01*
X161178519Y-84979298D02*
X160845186Y-84979298D01*
X162368995Y-85503108D02*
X161797567Y-85503108D01*
X162083281Y-85503108D02*
X162083281Y-84503108D01*
X162083281Y-84503108D02*
X161988043Y-84645965D01*
X161988043Y-84645965D02*
X161892805Y-84741203D01*
X161892805Y-84741203D02*
X161797567Y-84788822D01*
X194505342Y-93774419D02*
X194172009Y-93298228D01*
X193933914Y-93774419D02*
X193933914Y-92774419D01*
X193933914Y-92774419D02*
X194314866Y-92774419D01*
X194314866Y-92774419D02*
X194410104Y-92822038D01*
X194410104Y-92822038D02*
X194457723Y-92869657D01*
X194457723Y-92869657D02*
X194505342Y-92964895D01*
X194505342Y-92964895D02*
X194505342Y-93107752D01*
X194505342Y-93107752D02*
X194457723Y-93202990D01*
X194457723Y-93202990D02*
X194410104Y-93250609D01*
X194410104Y-93250609D02*
X194314866Y-93298228D01*
X194314866Y-93298228D02*
X193933914Y-93298228D01*
X194886295Y-92869657D02*
X194933914Y-92822038D01*
X194933914Y-92822038D02*
X195029152Y-92774419D01*
X195029152Y-92774419D02*
X195267247Y-92774419D01*
X195267247Y-92774419D02*
X195362485Y-92822038D01*
X195362485Y-92822038D02*
X195410104Y-92869657D01*
X195410104Y-92869657D02*
X195457723Y-92964895D01*
X195457723Y-92964895D02*
X195457723Y-93060133D01*
X195457723Y-93060133D02*
X195410104Y-93202990D01*
X195410104Y-93202990D02*
X194838676Y-93774419D01*
X194838676Y-93774419D02*
X195457723Y-93774419D01*
X196362485Y-92774419D02*
X195886295Y-92774419D01*
X195886295Y-92774419D02*
X195838676Y-93250609D01*
X195838676Y-93250609D02*
X195886295Y-93202990D01*
X195886295Y-93202990D02*
X195981533Y-93155371D01*
X195981533Y-93155371D02*
X196219628Y-93155371D01*
X196219628Y-93155371D02*
X196314866Y-93202990D01*
X196314866Y-93202990D02*
X196362485Y-93250609D01*
X196362485Y-93250609D02*
X196410104Y-93345847D01*
X196410104Y-93345847D02*
X196410104Y-93583942D01*
X196410104Y-93583942D02*
X196362485Y-93679180D01*
X196362485Y-93679180D02*
X196314866Y-93726800D01*
X196314866Y-93726800D02*
X196219628Y-93774419D01*
X196219628Y-93774419D02*
X195981533Y-93774419D01*
X195981533Y-93774419D02*
X195886295Y-93726800D01*
X195886295Y-93726800D02*
X195838676Y-93679180D01*
X146905742Y-92992619D02*
X146572409Y-92516428D01*
X146334314Y-92992619D02*
X146334314Y-91992619D01*
X146334314Y-91992619D02*
X146715266Y-91992619D01*
X146715266Y-91992619D02*
X146810504Y-92040238D01*
X146810504Y-92040238D02*
X146858123Y-92087857D01*
X146858123Y-92087857D02*
X146905742Y-92183095D01*
X146905742Y-92183095D02*
X146905742Y-92325952D01*
X146905742Y-92325952D02*
X146858123Y-92421190D01*
X146858123Y-92421190D02*
X146810504Y-92468809D01*
X146810504Y-92468809D02*
X146715266Y-92516428D01*
X146715266Y-92516428D02*
X146334314Y-92516428D01*
X147858123Y-92992619D02*
X147286695Y-92992619D01*
X147572409Y-92992619D02*
X147572409Y-91992619D01*
X147572409Y-91992619D02*
X147477171Y-92135476D01*
X147477171Y-92135476D02*
X147381933Y-92230714D01*
X147381933Y-92230714D02*
X147286695Y-92278333D01*
X148477171Y-91992619D02*
X148572409Y-91992619D01*
X148572409Y-91992619D02*
X148667647Y-92040238D01*
X148667647Y-92040238D02*
X148715266Y-92087857D01*
X148715266Y-92087857D02*
X148762885Y-92183095D01*
X148762885Y-92183095D02*
X148810504Y-92373571D01*
X148810504Y-92373571D02*
X148810504Y-92611666D01*
X148810504Y-92611666D02*
X148762885Y-92802142D01*
X148762885Y-92802142D02*
X148715266Y-92897380D01*
X148715266Y-92897380D02*
X148667647Y-92945000D01*
X148667647Y-92945000D02*
X148572409Y-92992619D01*
X148572409Y-92992619D02*
X148477171Y-92992619D01*
X148477171Y-92992619D02*
X148381933Y-92945000D01*
X148381933Y-92945000D02*
X148334314Y-92897380D01*
X148334314Y-92897380D02*
X148286695Y-92802142D01*
X148286695Y-92802142D02*
X148239076Y-92611666D01*
X148239076Y-92611666D02*
X148239076Y-92373571D01*
X148239076Y-92373571D02*
X148286695Y-92183095D01*
X148286695Y-92183095D02*
X148334314Y-92087857D01*
X148334314Y-92087857D02*
X148381933Y-92040238D01*
X148381933Y-92040238D02*
X148477171Y-91992619D01*
X185335942Y-117183719D02*
X185002609Y-116707528D01*
X184764514Y-117183719D02*
X184764514Y-116183719D01*
X184764514Y-116183719D02*
X185145466Y-116183719D01*
X185145466Y-116183719D02*
X185240704Y-116231338D01*
X185240704Y-116231338D02*
X185288323Y-116278957D01*
X185288323Y-116278957D02*
X185335942Y-116374195D01*
X185335942Y-116374195D02*
X185335942Y-116517052D01*
X185335942Y-116517052D02*
X185288323Y-116612290D01*
X185288323Y-116612290D02*
X185240704Y-116659909D01*
X185240704Y-116659909D02*
X185145466Y-116707528D01*
X185145466Y-116707528D02*
X184764514Y-116707528D01*
X185716895Y-116278957D02*
X185764514Y-116231338D01*
X185764514Y-116231338D02*
X185859752Y-116183719D01*
X185859752Y-116183719D02*
X186097847Y-116183719D01*
X186097847Y-116183719D02*
X186193085Y-116231338D01*
X186193085Y-116231338D02*
X186240704Y-116278957D01*
X186240704Y-116278957D02*
X186288323Y-116374195D01*
X186288323Y-116374195D02*
X186288323Y-116469433D01*
X186288323Y-116469433D02*
X186240704Y-116612290D01*
X186240704Y-116612290D02*
X185669276Y-117183719D01*
X185669276Y-117183719D02*
X186288323Y-117183719D01*
X187145466Y-116517052D02*
X187145466Y-117183719D01*
X186907371Y-116136100D02*
X186669276Y-116850385D01*
X186669276Y-116850385D02*
X187288323Y-116850385D01*
X171453324Y-112538704D02*
X171929514Y-112538704D01*
X171358086Y-112824419D02*
X171691419Y-111824419D01*
X171691419Y-111824419D02*
X172024752Y-112824419D01*
X172262848Y-111824419D02*
X172881895Y-111824419D01*
X172881895Y-111824419D02*
X172548562Y-112205371D01*
X172548562Y-112205371D02*
X172691419Y-112205371D01*
X172691419Y-112205371D02*
X172786657Y-112252990D01*
X172786657Y-112252990D02*
X172834276Y-112300609D01*
X172834276Y-112300609D02*
X172881895Y-112395847D01*
X172881895Y-112395847D02*
X172881895Y-112633942D01*
X172881895Y-112633942D02*
X172834276Y-112729180D01*
X172834276Y-112729180D02*
X172786657Y-112776800D01*
X172786657Y-112776800D02*
X172691419Y-112824419D01*
X172691419Y-112824419D02*
X172405705Y-112824419D01*
X172405705Y-112824419D02*
X172310467Y-112776800D01*
X172310467Y-112776800D02*
X172262848Y-112729180D01*
X161178519Y-100046113D02*
X161321376Y-100093732D01*
X161321376Y-100093732D02*
X161368995Y-100141351D01*
X161368995Y-100141351D02*
X161416614Y-100236589D01*
X161416614Y-100236589D02*
X161416614Y-100379446D01*
X161416614Y-100379446D02*
X161368995Y-100474684D01*
X161368995Y-100474684D02*
X161321376Y-100522304D01*
X161321376Y-100522304D02*
X161226138Y-100569923D01*
X161226138Y-100569923D02*
X160845186Y-100569923D01*
X160845186Y-100569923D02*
X160845186Y-99569923D01*
X160845186Y-99569923D02*
X161178519Y-99569923D01*
X161178519Y-99569923D02*
X161273757Y-99617542D01*
X161273757Y-99617542D02*
X161321376Y-99665161D01*
X161321376Y-99665161D02*
X161368995Y-99760399D01*
X161368995Y-99760399D02*
X161368995Y-99855637D01*
X161368995Y-99855637D02*
X161321376Y-99950875D01*
X161321376Y-99950875D02*
X161273757Y-99998494D01*
X161273757Y-99998494D02*
X161178519Y-100046113D01*
X161178519Y-100046113D02*
X160845186Y-100046113D01*
X162273757Y-99569923D02*
X162083281Y-99569923D01*
X162083281Y-99569923D02*
X161988043Y-99617542D01*
X161988043Y-99617542D02*
X161940424Y-99665161D01*
X161940424Y-99665161D02*
X161845186Y-99808018D01*
X161845186Y-99808018D02*
X161797567Y-99998494D01*
X161797567Y-99998494D02*
X161797567Y-100379446D01*
X161797567Y-100379446D02*
X161845186Y-100474684D01*
X161845186Y-100474684D02*
X161892805Y-100522304D01*
X161892805Y-100522304D02*
X161988043Y-100569923D01*
X161988043Y-100569923D02*
X162178519Y-100569923D01*
X162178519Y-100569923D02*
X162273757Y-100522304D01*
X162273757Y-100522304D02*
X162321376Y-100474684D01*
X162321376Y-100474684D02*
X162368995Y-100379446D01*
X162368995Y-100379446D02*
X162368995Y-100141351D01*
X162368995Y-100141351D02*
X162321376Y-100046113D01*
X162321376Y-100046113D02*
X162273757Y-99998494D01*
X162273757Y-99998494D02*
X162178519Y-99950875D01*
X162178519Y-99950875D02*
X161988043Y-99950875D01*
X161988043Y-99950875D02*
X161892805Y-99998494D01*
X161892805Y-99998494D02*
X161845186Y-100046113D01*
X161845186Y-100046113D02*
X161797567Y-100141351D01*
X147381933Y-116992619D02*
X147048600Y-116516428D01*
X146810505Y-116992619D02*
X146810505Y-115992619D01*
X146810505Y-115992619D02*
X147191457Y-115992619D01*
X147191457Y-115992619D02*
X147286695Y-116040238D01*
X147286695Y-116040238D02*
X147334314Y-116087857D01*
X147334314Y-116087857D02*
X147381933Y-116183095D01*
X147381933Y-116183095D02*
X147381933Y-116325952D01*
X147381933Y-116325952D02*
X147334314Y-116421190D01*
X147334314Y-116421190D02*
X147286695Y-116468809D01*
X147286695Y-116468809D02*
X147191457Y-116516428D01*
X147191457Y-116516428D02*
X146810505Y-116516428D01*
X147762886Y-116087857D02*
X147810505Y-116040238D01*
X147810505Y-116040238D02*
X147905743Y-115992619D01*
X147905743Y-115992619D02*
X148143838Y-115992619D01*
X148143838Y-115992619D02*
X148239076Y-116040238D01*
X148239076Y-116040238D02*
X148286695Y-116087857D01*
X148286695Y-116087857D02*
X148334314Y-116183095D01*
X148334314Y-116183095D02*
X148334314Y-116278333D01*
X148334314Y-116278333D02*
X148286695Y-116421190D01*
X148286695Y-116421190D02*
X147715267Y-116992619D01*
X147715267Y-116992619D02*
X148334314Y-116992619D01*
X185335942Y-84183719D02*
X185002609Y-83707528D01*
X184764514Y-84183719D02*
X184764514Y-83183719D01*
X184764514Y-83183719D02*
X185145466Y-83183719D01*
X185145466Y-83183719D02*
X185240704Y-83231338D01*
X185240704Y-83231338D02*
X185288323Y-83278957D01*
X185288323Y-83278957D02*
X185335942Y-83374195D01*
X185335942Y-83374195D02*
X185335942Y-83517052D01*
X185335942Y-83517052D02*
X185288323Y-83612290D01*
X185288323Y-83612290D02*
X185240704Y-83659909D01*
X185240704Y-83659909D02*
X185145466Y-83707528D01*
X185145466Y-83707528D02*
X184764514Y-83707528D01*
X186288323Y-84183719D02*
X185716895Y-84183719D01*
X186002609Y-84183719D02*
X186002609Y-83183719D01*
X186002609Y-83183719D02*
X185907371Y-83326576D01*
X185907371Y-83326576D02*
X185812133Y-83421814D01*
X185812133Y-83421814D02*
X185716895Y-83469433D01*
X186621657Y-83183719D02*
X187240704Y-83183719D01*
X187240704Y-83183719D02*
X186907371Y-83564671D01*
X186907371Y-83564671D02*
X187050228Y-83564671D01*
X187050228Y-83564671D02*
X187145466Y-83612290D01*
X187145466Y-83612290D02*
X187193085Y-83659909D01*
X187193085Y-83659909D02*
X187240704Y-83755147D01*
X187240704Y-83755147D02*
X187240704Y-83993242D01*
X187240704Y-83993242D02*
X187193085Y-84088480D01*
X187193085Y-84088480D02*
X187145466Y-84136100D01*
X187145466Y-84136100D02*
X187050228Y-84183719D01*
X187050228Y-84183719D02*
X186764514Y-84183719D01*
X186764514Y-84183719D02*
X186669276Y-84136100D01*
X186669276Y-84136100D02*
X186621657Y-84088480D01*
X185335942Y-87183719D02*
X185002609Y-86707528D01*
X184764514Y-87183719D02*
X184764514Y-86183719D01*
X184764514Y-86183719D02*
X185145466Y-86183719D01*
X185145466Y-86183719D02*
X185240704Y-86231338D01*
X185240704Y-86231338D02*
X185288323Y-86278957D01*
X185288323Y-86278957D02*
X185335942Y-86374195D01*
X185335942Y-86374195D02*
X185335942Y-86517052D01*
X185335942Y-86517052D02*
X185288323Y-86612290D01*
X185288323Y-86612290D02*
X185240704Y-86659909D01*
X185240704Y-86659909D02*
X185145466Y-86707528D01*
X185145466Y-86707528D02*
X184764514Y-86707528D01*
X186288323Y-87183719D02*
X185716895Y-87183719D01*
X186002609Y-87183719D02*
X186002609Y-86183719D01*
X186002609Y-86183719D02*
X185907371Y-86326576D01*
X185907371Y-86326576D02*
X185812133Y-86421814D01*
X185812133Y-86421814D02*
X185716895Y-86469433D01*
X187145466Y-86517052D02*
X187145466Y-87183719D01*
X186907371Y-86136100D02*
X186669276Y-86850385D01*
X186669276Y-86850385D02*
X187288323Y-86850385D01*
X147381933Y-98992619D02*
X147048600Y-98516428D01*
X146810505Y-98992619D02*
X146810505Y-97992619D01*
X146810505Y-97992619D02*
X147191457Y-97992619D01*
X147191457Y-97992619D02*
X147286695Y-98040238D01*
X147286695Y-98040238D02*
X147334314Y-98087857D01*
X147334314Y-98087857D02*
X147381933Y-98183095D01*
X147381933Y-98183095D02*
X147381933Y-98325952D01*
X147381933Y-98325952D02*
X147334314Y-98421190D01*
X147334314Y-98421190D02*
X147286695Y-98468809D01*
X147286695Y-98468809D02*
X147191457Y-98516428D01*
X147191457Y-98516428D02*
X146810505Y-98516428D01*
X147953362Y-98421190D02*
X147858124Y-98373571D01*
X147858124Y-98373571D02*
X147810505Y-98325952D01*
X147810505Y-98325952D02*
X147762886Y-98230714D01*
X147762886Y-98230714D02*
X147762886Y-98183095D01*
X147762886Y-98183095D02*
X147810505Y-98087857D01*
X147810505Y-98087857D02*
X147858124Y-98040238D01*
X147858124Y-98040238D02*
X147953362Y-97992619D01*
X147953362Y-97992619D02*
X148143838Y-97992619D01*
X148143838Y-97992619D02*
X148239076Y-98040238D01*
X148239076Y-98040238D02*
X148286695Y-98087857D01*
X148286695Y-98087857D02*
X148334314Y-98183095D01*
X148334314Y-98183095D02*
X148334314Y-98230714D01*
X148334314Y-98230714D02*
X148286695Y-98325952D01*
X148286695Y-98325952D02*
X148239076Y-98373571D01*
X148239076Y-98373571D02*
X148143838Y-98421190D01*
X148143838Y-98421190D02*
X147953362Y-98421190D01*
X147953362Y-98421190D02*
X147858124Y-98468809D01*
X147858124Y-98468809D02*
X147810505Y-98516428D01*
X147810505Y-98516428D02*
X147762886Y-98611666D01*
X147762886Y-98611666D02*
X147762886Y-98802142D01*
X147762886Y-98802142D02*
X147810505Y-98897380D01*
X147810505Y-98897380D02*
X147858124Y-98945000D01*
X147858124Y-98945000D02*
X147953362Y-98992619D01*
X147953362Y-98992619D02*
X148143838Y-98992619D01*
X148143838Y-98992619D02*
X148239076Y-98945000D01*
X148239076Y-98945000D02*
X148286695Y-98897380D01*
X148286695Y-98897380D02*
X148334314Y-98802142D01*
X148334314Y-98802142D02*
X148334314Y-98611666D01*
X148334314Y-98611666D02*
X148286695Y-98516428D01*
X148286695Y-98516428D02*
X148239076Y-98468809D01*
X148239076Y-98468809D02*
X148143838Y-98421190D01*
X161178519Y-97032750D02*
X161321376Y-97080369D01*
X161321376Y-97080369D02*
X161368995Y-97127988D01*
X161368995Y-97127988D02*
X161416614Y-97223226D01*
X161416614Y-97223226D02*
X161416614Y-97366083D01*
X161416614Y-97366083D02*
X161368995Y-97461321D01*
X161368995Y-97461321D02*
X161321376Y-97508941D01*
X161321376Y-97508941D02*
X161226138Y-97556560D01*
X161226138Y-97556560D02*
X160845186Y-97556560D01*
X160845186Y-97556560D02*
X160845186Y-96556560D01*
X160845186Y-96556560D02*
X161178519Y-96556560D01*
X161178519Y-96556560D02*
X161273757Y-96604179D01*
X161273757Y-96604179D02*
X161321376Y-96651798D01*
X161321376Y-96651798D02*
X161368995Y-96747036D01*
X161368995Y-96747036D02*
X161368995Y-96842274D01*
X161368995Y-96842274D02*
X161321376Y-96937512D01*
X161321376Y-96937512D02*
X161273757Y-96985131D01*
X161273757Y-96985131D02*
X161178519Y-97032750D01*
X161178519Y-97032750D02*
X160845186Y-97032750D01*
X162321376Y-96556560D02*
X161845186Y-96556560D01*
X161845186Y-96556560D02*
X161797567Y-97032750D01*
X161797567Y-97032750D02*
X161845186Y-96985131D01*
X161845186Y-96985131D02*
X161940424Y-96937512D01*
X161940424Y-96937512D02*
X162178519Y-96937512D01*
X162178519Y-96937512D02*
X162273757Y-96985131D01*
X162273757Y-96985131D02*
X162321376Y-97032750D01*
X162321376Y-97032750D02*
X162368995Y-97127988D01*
X162368995Y-97127988D02*
X162368995Y-97366083D01*
X162368995Y-97366083D02*
X162321376Y-97461321D01*
X162321376Y-97461321D02*
X162273757Y-97508941D01*
X162273757Y-97508941D02*
X162178519Y-97556560D01*
X162178519Y-97556560D02*
X161940424Y-97556560D01*
X161940424Y-97556560D02*
X161845186Y-97508941D01*
X161845186Y-97508941D02*
X161797567Y-97461321D01*
X171453324Y-118406104D02*
X171929514Y-118406104D01*
X171358086Y-118691819D02*
X171691419Y-117691819D01*
X171691419Y-117691819D02*
X172024752Y-118691819D01*
X172881895Y-118691819D02*
X172310467Y-118691819D01*
X172596181Y-118691819D02*
X172596181Y-117691819D01*
X172596181Y-117691819D02*
X172500943Y-117834676D01*
X172500943Y-117834676D02*
X172405705Y-117929914D01*
X172405705Y-117929914D02*
X172310467Y-117977533D01*
X185336042Y-108183719D02*
X185002709Y-107707528D01*
X184764614Y-108183719D02*
X184764614Y-107183719D01*
X184764614Y-107183719D02*
X185145566Y-107183719D01*
X185145566Y-107183719D02*
X185240804Y-107231338D01*
X185240804Y-107231338D02*
X185288423Y-107278957D01*
X185288423Y-107278957D02*
X185336042Y-107374195D01*
X185336042Y-107374195D02*
X185336042Y-107517052D01*
X185336042Y-107517052D02*
X185288423Y-107612290D01*
X185288423Y-107612290D02*
X185240804Y-107659909D01*
X185240804Y-107659909D02*
X185145566Y-107707528D01*
X185145566Y-107707528D02*
X184764614Y-107707528D01*
X185716995Y-107278957D02*
X185764614Y-107231338D01*
X185764614Y-107231338D02*
X185859852Y-107183719D01*
X185859852Y-107183719D02*
X186097947Y-107183719D01*
X186097947Y-107183719D02*
X186193185Y-107231338D01*
X186193185Y-107231338D02*
X186240804Y-107278957D01*
X186240804Y-107278957D02*
X186288423Y-107374195D01*
X186288423Y-107374195D02*
X186288423Y-107469433D01*
X186288423Y-107469433D02*
X186240804Y-107612290D01*
X186240804Y-107612290D02*
X185669376Y-108183719D01*
X185669376Y-108183719D02*
X186288423Y-108183719D01*
X187240804Y-108183719D02*
X186669376Y-108183719D01*
X186955090Y-108183719D02*
X186955090Y-107183719D01*
X186955090Y-107183719D02*
X186859852Y-107326576D01*
X186859852Y-107326576D02*
X186764614Y-107421814D01*
X186764614Y-107421814D02*
X186669376Y-107469433D01*
X171453324Y-100473704D02*
X171929514Y-100473704D01*
X171358086Y-100759419D02*
X171691419Y-99759419D01*
X171691419Y-99759419D02*
X172024752Y-100759419D01*
X172262848Y-99759419D02*
X172929514Y-99759419D01*
X172929514Y-99759419D02*
X172500943Y-100759419D01*
X185336042Y-93183719D02*
X185002709Y-92707528D01*
X184764614Y-93183719D02*
X184764614Y-92183719D01*
X184764614Y-92183719D02*
X185145566Y-92183719D01*
X185145566Y-92183719D02*
X185240804Y-92231338D01*
X185240804Y-92231338D02*
X185288423Y-92278957D01*
X185288423Y-92278957D02*
X185336042Y-92374195D01*
X185336042Y-92374195D02*
X185336042Y-92517052D01*
X185336042Y-92517052D02*
X185288423Y-92612290D01*
X185288423Y-92612290D02*
X185240804Y-92659909D01*
X185240804Y-92659909D02*
X185145566Y-92707528D01*
X185145566Y-92707528D02*
X184764614Y-92707528D01*
X186288423Y-93183719D02*
X185716995Y-93183719D01*
X186002709Y-93183719D02*
X186002709Y-92183719D01*
X186002709Y-92183719D02*
X185907471Y-92326576D01*
X185907471Y-92326576D02*
X185812233Y-92421814D01*
X185812233Y-92421814D02*
X185716995Y-92469433D01*
X187145566Y-92183719D02*
X186955090Y-92183719D01*
X186955090Y-92183719D02*
X186859852Y-92231338D01*
X186859852Y-92231338D02*
X186812233Y-92278957D01*
X186812233Y-92278957D02*
X186716995Y-92421814D01*
X186716995Y-92421814D02*
X186669376Y-92612290D01*
X186669376Y-92612290D02*
X186669376Y-92993242D01*
X186669376Y-92993242D02*
X186716995Y-93088480D01*
X186716995Y-93088480D02*
X186764614Y-93136100D01*
X186764614Y-93136100D02*
X186859852Y-93183719D01*
X186859852Y-93183719D02*
X187050328Y-93183719D01*
X187050328Y-93183719D02*
X187145566Y-93136100D01*
X187145566Y-93136100D02*
X187193185Y-93088480D01*
X187193185Y-93088480D02*
X187240804Y-92993242D01*
X187240804Y-92993242D02*
X187240804Y-92755147D01*
X187240804Y-92755147D02*
X187193185Y-92659909D01*
X187193185Y-92659909D02*
X187145566Y-92612290D01*
X187145566Y-92612290D02*
X187050328Y-92564671D01*
X187050328Y-92564671D02*
X186859852Y-92564671D01*
X186859852Y-92564671D02*
X186764614Y-92612290D01*
X186764614Y-92612290D02*
X186716995Y-92659909D01*
X186716995Y-92659909D02*
X186669376Y-92755147D01*
X185336042Y-96183719D02*
X185002709Y-95707528D01*
X184764614Y-96183719D02*
X184764614Y-95183719D01*
X184764614Y-95183719D02*
X185145566Y-95183719D01*
X185145566Y-95183719D02*
X185240804Y-95231338D01*
X185240804Y-95231338D02*
X185288423Y-95278957D01*
X185288423Y-95278957D02*
X185336042Y-95374195D01*
X185336042Y-95374195D02*
X185336042Y-95517052D01*
X185336042Y-95517052D02*
X185288423Y-95612290D01*
X185288423Y-95612290D02*
X185240804Y-95659909D01*
X185240804Y-95659909D02*
X185145566Y-95707528D01*
X185145566Y-95707528D02*
X184764614Y-95707528D01*
X186288423Y-96183719D02*
X185716995Y-96183719D01*
X186002709Y-96183719D02*
X186002709Y-95183719D01*
X186002709Y-95183719D02*
X185907471Y-95326576D01*
X185907471Y-95326576D02*
X185812233Y-95421814D01*
X185812233Y-95421814D02*
X185716995Y-95469433D01*
X186621757Y-95183719D02*
X187288423Y-95183719D01*
X187288423Y-95183719D02*
X186859852Y-96183719D01*
X160226138Y-112099565D02*
X160368995Y-112147184D01*
X160368995Y-112147184D02*
X160416614Y-112194803D01*
X160416614Y-112194803D02*
X160464233Y-112290041D01*
X160464233Y-112290041D02*
X160464233Y-112432898D01*
X160464233Y-112432898D02*
X160416614Y-112528136D01*
X160416614Y-112528136D02*
X160368995Y-112575756D01*
X160368995Y-112575756D02*
X160273757Y-112623375D01*
X160273757Y-112623375D02*
X159892805Y-112623375D01*
X159892805Y-112623375D02*
X159892805Y-111623375D01*
X159892805Y-111623375D02*
X160226138Y-111623375D01*
X160226138Y-111623375D02*
X160321376Y-111670994D01*
X160321376Y-111670994D02*
X160368995Y-111718613D01*
X160368995Y-111718613D02*
X160416614Y-111813851D01*
X160416614Y-111813851D02*
X160416614Y-111909089D01*
X160416614Y-111909089D02*
X160368995Y-112004327D01*
X160368995Y-112004327D02*
X160321376Y-112051946D01*
X160321376Y-112051946D02*
X160226138Y-112099565D01*
X160226138Y-112099565D02*
X159892805Y-112099565D01*
X161416614Y-112623375D02*
X160845186Y-112623375D01*
X161130900Y-112623375D02*
X161130900Y-111623375D01*
X161130900Y-111623375D02*
X161035662Y-111766232D01*
X161035662Y-111766232D02*
X160940424Y-111861470D01*
X160940424Y-111861470D02*
X160845186Y-111909089D01*
X162035662Y-111623375D02*
X162130900Y-111623375D01*
X162130900Y-111623375D02*
X162226138Y-111670994D01*
X162226138Y-111670994D02*
X162273757Y-111718613D01*
X162273757Y-111718613D02*
X162321376Y-111813851D01*
X162321376Y-111813851D02*
X162368995Y-112004327D01*
X162368995Y-112004327D02*
X162368995Y-112242422D01*
X162368995Y-112242422D02*
X162321376Y-112432898D01*
X162321376Y-112432898D02*
X162273757Y-112528136D01*
X162273757Y-112528136D02*
X162226138Y-112575756D01*
X162226138Y-112575756D02*
X162130900Y-112623375D01*
X162130900Y-112623375D02*
X162035662Y-112623375D01*
X162035662Y-112623375D02*
X161940424Y-112575756D01*
X161940424Y-112575756D02*
X161892805Y-112528136D01*
X161892805Y-112528136D02*
X161845186Y-112432898D01*
X161845186Y-112432898D02*
X161797567Y-112242422D01*
X161797567Y-112242422D02*
X161797567Y-112004327D01*
X161797567Y-112004327D02*
X161845186Y-111813851D01*
X161845186Y-111813851D02*
X161892805Y-111718613D01*
X161892805Y-111718613D02*
X161940424Y-111670994D01*
X161940424Y-111670994D02*
X162035662Y-111623375D01*
X161178519Y-109086202D02*
X161321376Y-109133821D01*
X161321376Y-109133821D02*
X161368995Y-109181440D01*
X161368995Y-109181440D02*
X161416614Y-109276678D01*
X161416614Y-109276678D02*
X161416614Y-109419535D01*
X161416614Y-109419535D02*
X161368995Y-109514773D01*
X161368995Y-109514773D02*
X161321376Y-109562393D01*
X161321376Y-109562393D02*
X161226138Y-109610012D01*
X161226138Y-109610012D02*
X160845186Y-109610012D01*
X160845186Y-109610012D02*
X160845186Y-108610012D01*
X160845186Y-108610012D02*
X161178519Y-108610012D01*
X161178519Y-108610012D02*
X161273757Y-108657631D01*
X161273757Y-108657631D02*
X161321376Y-108705250D01*
X161321376Y-108705250D02*
X161368995Y-108800488D01*
X161368995Y-108800488D02*
X161368995Y-108895726D01*
X161368995Y-108895726D02*
X161321376Y-108990964D01*
X161321376Y-108990964D02*
X161273757Y-109038583D01*
X161273757Y-109038583D02*
X161178519Y-109086202D01*
X161178519Y-109086202D02*
X160845186Y-109086202D01*
X161892805Y-109610012D02*
X162083281Y-109610012D01*
X162083281Y-109610012D02*
X162178519Y-109562393D01*
X162178519Y-109562393D02*
X162226138Y-109514773D01*
X162226138Y-109514773D02*
X162321376Y-109371916D01*
X162321376Y-109371916D02*
X162368995Y-109181440D01*
X162368995Y-109181440D02*
X162368995Y-108800488D01*
X162368995Y-108800488D02*
X162321376Y-108705250D01*
X162321376Y-108705250D02*
X162273757Y-108657631D01*
X162273757Y-108657631D02*
X162178519Y-108610012D01*
X162178519Y-108610012D02*
X161988043Y-108610012D01*
X161988043Y-108610012D02*
X161892805Y-108657631D01*
X161892805Y-108657631D02*
X161845186Y-108705250D01*
X161845186Y-108705250D02*
X161797567Y-108800488D01*
X161797567Y-108800488D02*
X161797567Y-109038583D01*
X161797567Y-109038583D02*
X161845186Y-109133821D01*
X161845186Y-109133821D02*
X161892805Y-109181440D01*
X161892805Y-109181440D02*
X161988043Y-109229059D01*
X161988043Y-109229059D02*
X162178519Y-109229059D01*
X162178519Y-109229059D02*
X162273757Y-109181440D01*
X162273757Y-109181440D02*
X162321376Y-109133821D01*
X162321376Y-109133821D02*
X162368995Y-109038583D01*
X147381933Y-110992619D02*
X147048600Y-110516428D01*
X146810505Y-110992619D02*
X146810505Y-109992619D01*
X146810505Y-109992619D02*
X147191457Y-109992619D01*
X147191457Y-109992619D02*
X147286695Y-110040238D01*
X147286695Y-110040238D02*
X147334314Y-110087857D01*
X147334314Y-110087857D02*
X147381933Y-110183095D01*
X147381933Y-110183095D02*
X147381933Y-110325952D01*
X147381933Y-110325952D02*
X147334314Y-110421190D01*
X147334314Y-110421190D02*
X147286695Y-110468809D01*
X147286695Y-110468809D02*
X147191457Y-110516428D01*
X147191457Y-110516428D02*
X146810505Y-110516428D01*
X148239076Y-110325952D02*
X148239076Y-110992619D01*
X148000981Y-109945000D02*
X147762886Y-110659285D01*
X147762886Y-110659285D02*
X148381933Y-110659285D01*
X171453324Y-88510304D02*
X171929514Y-88510304D01*
X171358086Y-88796019D02*
X171691419Y-87796019D01*
X171691419Y-87796019D02*
X172024752Y-88796019D01*
X172881895Y-88796019D02*
X172310467Y-88796019D01*
X172596181Y-88796019D02*
X172596181Y-87796019D01*
X172596181Y-87796019D02*
X172500943Y-87938876D01*
X172500943Y-87938876D02*
X172405705Y-88034114D01*
X172405705Y-88034114D02*
X172310467Y-88081733D01*
X173834276Y-88796019D02*
X173262848Y-88796019D01*
X173548562Y-88796019D02*
X173548562Y-87796019D01*
X173548562Y-87796019D02*
X173453324Y-87938876D01*
X173453324Y-87938876D02*
X173358086Y-88034114D01*
X173358086Y-88034114D02*
X173262848Y-88081733D01*
X185336042Y-99183719D02*
X185002709Y-98707528D01*
X184764614Y-99183719D02*
X184764614Y-98183719D01*
X184764614Y-98183719D02*
X185145566Y-98183719D01*
X185145566Y-98183719D02*
X185240804Y-98231338D01*
X185240804Y-98231338D02*
X185288423Y-98278957D01*
X185288423Y-98278957D02*
X185336042Y-98374195D01*
X185336042Y-98374195D02*
X185336042Y-98517052D01*
X185336042Y-98517052D02*
X185288423Y-98612290D01*
X185288423Y-98612290D02*
X185240804Y-98659909D01*
X185240804Y-98659909D02*
X185145566Y-98707528D01*
X185145566Y-98707528D02*
X184764614Y-98707528D01*
X186288423Y-99183719D02*
X185716995Y-99183719D01*
X186002709Y-99183719D02*
X186002709Y-98183719D01*
X186002709Y-98183719D02*
X185907471Y-98326576D01*
X185907471Y-98326576D02*
X185812233Y-98421814D01*
X185812233Y-98421814D02*
X185716995Y-98469433D01*
X186859852Y-98612290D02*
X186764614Y-98564671D01*
X186764614Y-98564671D02*
X186716995Y-98517052D01*
X186716995Y-98517052D02*
X186669376Y-98421814D01*
X186669376Y-98421814D02*
X186669376Y-98374195D01*
X186669376Y-98374195D02*
X186716995Y-98278957D01*
X186716995Y-98278957D02*
X186764614Y-98231338D01*
X186764614Y-98231338D02*
X186859852Y-98183719D01*
X186859852Y-98183719D02*
X187050328Y-98183719D01*
X187050328Y-98183719D02*
X187145566Y-98231338D01*
X187145566Y-98231338D02*
X187193185Y-98278957D01*
X187193185Y-98278957D02*
X187240804Y-98374195D01*
X187240804Y-98374195D02*
X187240804Y-98421814D01*
X187240804Y-98421814D02*
X187193185Y-98517052D01*
X187193185Y-98517052D02*
X187145566Y-98564671D01*
X187145566Y-98564671D02*
X187050328Y-98612290D01*
X187050328Y-98612290D02*
X186859852Y-98612290D01*
X186859852Y-98612290D02*
X186764614Y-98659909D01*
X186764614Y-98659909D02*
X186716995Y-98707528D01*
X186716995Y-98707528D02*
X186669376Y-98802766D01*
X186669376Y-98802766D02*
X186669376Y-98993242D01*
X186669376Y-98993242D02*
X186716995Y-99088480D01*
X186716995Y-99088480D02*
X186764614Y-99136100D01*
X186764614Y-99136100D02*
X186859852Y-99183719D01*
X186859852Y-99183719D02*
X187050328Y-99183719D01*
X187050328Y-99183719D02*
X187145566Y-99136100D01*
X187145566Y-99136100D02*
X187193185Y-99088480D01*
X187193185Y-99088480D02*
X187240804Y-98993242D01*
X187240804Y-98993242D02*
X187240804Y-98802766D01*
X187240804Y-98802766D02*
X187193185Y-98707528D01*
X187193185Y-98707528D02*
X187145566Y-98659909D01*
X187145566Y-98659909D02*
X187050328Y-98612290D01*
X171453324Y-103521704D02*
X171929514Y-103521704D01*
X171358086Y-103807419D02*
X171691419Y-102807419D01*
X171691419Y-102807419D02*
X172024752Y-103807419D01*
X172786657Y-102807419D02*
X172596181Y-102807419D01*
X172596181Y-102807419D02*
X172500943Y-102855038D01*
X172500943Y-102855038D02*
X172453324Y-102902657D01*
X172453324Y-102902657D02*
X172358086Y-103045514D01*
X172358086Y-103045514D02*
X172310467Y-103235990D01*
X172310467Y-103235990D02*
X172310467Y-103616942D01*
X172310467Y-103616942D02*
X172358086Y-103712180D01*
X172358086Y-103712180D02*
X172405705Y-103759800D01*
X172405705Y-103759800D02*
X172500943Y-103807419D01*
X172500943Y-103807419D02*
X172691419Y-103807419D01*
X172691419Y-103807419D02*
X172786657Y-103759800D01*
X172786657Y-103759800D02*
X172834276Y-103712180D01*
X172834276Y-103712180D02*
X172881895Y-103616942D01*
X172881895Y-103616942D02*
X172881895Y-103378847D01*
X172881895Y-103378847D02*
X172834276Y-103283609D01*
X172834276Y-103283609D02*
X172786657Y-103235990D01*
X172786657Y-103235990D02*
X172691419Y-103188371D01*
X172691419Y-103188371D02*
X172500943Y-103188371D01*
X172500943Y-103188371D02*
X172405705Y-103235990D01*
X172405705Y-103235990D02*
X172358086Y-103283609D01*
X172358086Y-103283609D02*
X172310467Y-103378847D01*
X171453324Y-85513104D02*
X171929514Y-85513104D01*
X171358086Y-85798819D02*
X171691419Y-84798819D01*
X171691419Y-84798819D02*
X172024752Y-85798819D01*
X172881895Y-85798819D02*
X172310467Y-85798819D01*
X172596181Y-85798819D02*
X172596181Y-84798819D01*
X172596181Y-84798819D02*
X172500943Y-84941676D01*
X172500943Y-84941676D02*
X172405705Y-85036914D01*
X172405705Y-85036914D02*
X172310467Y-85084533D01*
X173262848Y-84894057D02*
X173310467Y-84846438D01*
X173310467Y-84846438D02*
X173405705Y-84798819D01*
X173405705Y-84798819D02*
X173643800Y-84798819D01*
X173643800Y-84798819D02*
X173739038Y-84846438D01*
X173739038Y-84846438D02*
X173786657Y-84894057D01*
X173786657Y-84894057D02*
X173834276Y-84989295D01*
X173834276Y-84989295D02*
X173834276Y-85084533D01*
X173834276Y-85084533D02*
X173786657Y-85227390D01*
X173786657Y-85227390D02*
X173215229Y-85798819D01*
X173215229Y-85798819D02*
X173834276Y-85798819D01*
X146905742Y-86992619D02*
X146572409Y-86516428D01*
X146334314Y-86992619D02*
X146334314Y-85992619D01*
X146334314Y-85992619D02*
X146715266Y-85992619D01*
X146715266Y-85992619D02*
X146810504Y-86040238D01*
X146810504Y-86040238D02*
X146858123Y-86087857D01*
X146858123Y-86087857D02*
X146905742Y-86183095D01*
X146905742Y-86183095D02*
X146905742Y-86325952D01*
X146905742Y-86325952D02*
X146858123Y-86421190D01*
X146858123Y-86421190D02*
X146810504Y-86468809D01*
X146810504Y-86468809D02*
X146715266Y-86516428D01*
X146715266Y-86516428D02*
X146334314Y-86516428D01*
X147858123Y-86992619D02*
X147286695Y-86992619D01*
X147572409Y-86992619D02*
X147572409Y-85992619D01*
X147572409Y-85992619D02*
X147477171Y-86135476D01*
X147477171Y-86135476D02*
X147381933Y-86230714D01*
X147381933Y-86230714D02*
X147286695Y-86278333D01*
X148239076Y-86087857D02*
X148286695Y-86040238D01*
X148286695Y-86040238D02*
X148381933Y-85992619D01*
X148381933Y-85992619D02*
X148620028Y-85992619D01*
X148620028Y-85992619D02*
X148715266Y-86040238D01*
X148715266Y-86040238D02*
X148762885Y-86087857D01*
X148762885Y-86087857D02*
X148810504Y-86183095D01*
X148810504Y-86183095D02*
X148810504Y-86278333D01*
X148810504Y-86278333D02*
X148762885Y-86421190D01*
X148762885Y-86421190D02*
X148191457Y-86992619D01*
X148191457Y-86992619D02*
X148810504Y-86992619D01*
X185336042Y-105183719D02*
X185002709Y-104707528D01*
X184764614Y-105183719D02*
X184764614Y-104183719D01*
X184764614Y-104183719D02*
X185145566Y-104183719D01*
X185145566Y-104183719D02*
X185240804Y-104231338D01*
X185240804Y-104231338D02*
X185288423Y-104278957D01*
X185288423Y-104278957D02*
X185336042Y-104374195D01*
X185336042Y-104374195D02*
X185336042Y-104517052D01*
X185336042Y-104517052D02*
X185288423Y-104612290D01*
X185288423Y-104612290D02*
X185240804Y-104659909D01*
X185240804Y-104659909D02*
X185145566Y-104707528D01*
X185145566Y-104707528D02*
X184764614Y-104707528D01*
X185716995Y-104278957D02*
X185764614Y-104231338D01*
X185764614Y-104231338D02*
X185859852Y-104183719D01*
X185859852Y-104183719D02*
X186097947Y-104183719D01*
X186097947Y-104183719D02*
X186193185Y-104231338D01*
X186193185Y-104231338D02*
X186240804Y-104278957D01*
X186240804Y-104278957D02*
X186288423Y-104374195D01*
X186288423Y-104374195D02*
X186288423Y-104469433D01*
X186288423Y-104469433D02*
X186240804Y-104612290D01*
X186240804Y-104612290D02*
X185669376Y-105183719D01*
X185669376Y-105183719D02*
X186288423Y-105183719D01*
X186907471Y-104183719D02*
X187002709Y-104183719D01*
X187002709Y-104183719D02*
X187097947Y-104231338D01*
X187097947Y-104231338D02*
X187145566Y-104278957D01*
X187145566Y-104278957D02*
X187193185Y-104374195D01*
X187193185Y-104374195D02*
X187240804Y-104564671D01*
X187240804Y-104564671D02*
X187240804Y-104802766D01*
X187240804Y-104802766D02*
X187193185Y-104993242D01*
X187193185Y-104993242D02*
X187145566Y-105088480D01*
X187145566Y-105088480D02*
X187097947Y-105136100D01*
X187097947Y-105136100D02*
X187002709Y-105183719D01*
X187002709Y-105183719D02*
X186907471Y-105183719D01*
X186907471Y-105183719D02*
X186812233Y-105136100D01*
X186812233Y-105136100D02*
X186764614Y-105088480D01*
X186764614Y-105088480D02*
X186716995Y-104993242D01*
X186716995Y-104993242D02*
X186669376Y-104802766D01*
X186669376Y-104802766D02*
X186669376Y-104564671D01*
X186669376Y-104564671D02*
X186716995Y-104374195D01*
X186716995Y-104374195D02*
X186764614Y-104278957D01*
X186764614Y-104278957D02*
X186812233Y-104231338D01*
X186812233Y-104231338D02*
X186907471Y-104183719D01*
X132815105Y-111122619D02*
X132815105Y-110122619D01*
X132815105Y-110122619D02*
X133053200Y-110122619D01*
X133053200Y-110122619D02*
X133196057Y-110170238D01*
X133196057Y-110170238D02*
X133291295Y-110265476D01*
X133291295Y-110265476D02*
X133338914Y-110360714D01*
X133338914Y-110360714D02*
X133386533Y-110551190D01*
X133386533Y-110551190D02*
X133386533Y-110694047D01*
X133386533Y-110694047D02*
X133338914Y-110884523D01*
X133338914Y-110884523D02*
X133291295Y-110979761D01*
X133291295Y-110979761D02*
X133196057Y-111075000D01*
X133196057Y-111075000D02*
X133053200Y-111122619D01*
X133053200Y-111122619D02*
X132815105Y-111122619D01*
X134338914Y-111122619D02*
X133767486Y-111122619D01*
X134053200Y-111122619D02*
X134053200Y-110122619D01*
X134053200Y-110122619D02*
X133957962Y-110265476D01*
X133957962Y-110265476D02*
X133862724Y-110360714D01*
X133862724Y-110360714D02*
X133767486Y-110408333D01*
X160226138Y-115112928D02*
X160368995Y-115160547D01*
X160368995Y-115160547D02*
X160416614Y-115208166D01*
X160416614Y-115208166D02*
X160464233Y-115303404D01*
X160464233Y-115303404D02*
X160464233Y-115446261D01*
X160464233Y-115446261D02*
X160416614Y-115541499D01*
X160416614Y-115541499D02*
X160368995Y-115589119D01*
X160368995Y-115589119D02*
X160273757Y-115636738D01*
X160273757Y-115636738D02*
X159892805Y-115636738D01*
X159892805Y-115636738D02*
X159892805Y-114636738D01*
X159892805Y-114636738D02*
X160226138Y-114636738D01*
X160226138Y-114636738D02*
X160321376Y-114684357D01*
X160321376Y-114684357D02*
X160368995Y-114731976D01*
X160368995Y-114731976D02*
X160416614Y-114827214D01*
X160416614Y-114827214D02*
X160416614Y-114922452D01*
X160416614Y-114922452D02*
X160368995Y-115017690D01*
X160368995Y-115017690D02*
X160321376Y-115065309D01*
X160321376Y-115065309D02*
X160226138Y-115112928D01*
X160226138Y-115112928D02*
X159892805Y-115112928D01*
X161416614Y-115636738D02*
X160845186Y-115636738D01*
X161130900Y-115636738D02*
X161130900Y-114636738D01*
X161130900Y-114636738D02*
X161035662Y-114779595D01*
X161035662Y-114779595D02*
X160940424Y-114874833D01*
X160940424Y-114874833D02*
X160845186Y-114922452D01*
X162368995Y-115636738D02*
X161797567Y-115636738D01*
X162083281Y-115636738D02*
X162083281Y-114636738D01*
X162083281Y-114636738D02*
X161988043Y-114779595D01*
X161988043Y-114779595D02*
X161892805Y-114874833D01*
X161892805Y-114874833D02*
X161797567Y-114922452D01*
X141978142Y-111148019D02*
X141644809Y-110671828D01*
X141406714Y-111148019D02*
X141406714Y-110148019D01*
X141406714Y-110148019D02*
X141787666Y-110148019D01*
X141787666Y-110148019D02*
X141882904Y-110195638D01*
X141882904Y-110195638D02*
X141930523Y-110243257D01*
X141930523Y-110243257D02*
X141978142Y-110338495D01*
X141978142Y-110338495D02*
X141978142Y-110481352D01*
X141978142Y-110481352D02*
X141930523Y-110576590D01*
X141930523Y-110576590D02*
X141882904Y-110624209D01*
X141882904Y-110624209D02*
X141787666Y-110671828D01*
X141787666Y-110671828D02*
X141406714Y-110671828D01*
X142359095Y-110243257D02*
X142406714Y-110195638D01*
X142406714Y-110195638D02*
X142501952Y-110148019D01*
X142501952Y-110148019D02*
X142740047Y-110148019D01*
X142740047Y-110148019D02*
X142835285Y-110195638D01*
X142835285Y-110195638D02*
X142882904Y-110243257D01*
X142882904Y-110243257D02*
X142930523Y-110338495D01*
X142930523Y-110338495D02*
X142930523Y-110433733D01*
X142930523Y-110433733D02*
X142882904Y-110576590D01*
X142882904Y-110576590D02*
X142311476Y-111148019D01*
X142311476Y-111148019D02*
X142930523Y-111148019D01*
X143787666Y-110148019D02*
X143597190Y-110148019D01*
X143597190Y-110148019D02*
X143501952Y-110195638D01*
X143501952Y-110195638D02*
X143454333Y-110243257D01*
X143454333Y-110243257D02*
X143359095Y-110386114D01*
X143359095Y-110386114D02*
X143311476Y-110576590D01*
X143311476Y-110576590D02*
X143311476Y-110957542D01*
X143311476Y-110957542D02*
X143359095Y-111052780D01*
X143359095Y-111052780D02*
X143406714Y-111100400D01*
X143406714Y-111100400D02*
X143501952Y-111148019D01*
X143501952Y-111148019D02*
X143692428Y-111148019D01*
X143692428Y-111148019D02*
X143787666Y-111100400D01*
X143787666Y-111100400D02*
X143835285Y-111052780D01*
X143835285Y-111052780D02*
X143882904Y-110957542D01*
X143882904Y-110957542D02*
X143882904Y-110719447D01*
X143882904Y-110719447D02*
X143835285Y-110624209D01*
X143835285Y-110624209D02*
X143787666Y-110576590D01*
X143787666Y-110576590D02*
X143692428Y-110528971D01*
X143692428Y-110528971D02*
X143501952Y-110528971D01*
X143501952Y-110528971D02*
X143406714Y-110576590D01*
X143406714Y-110576590D02*
X143359095Y-110624209D01*
X143359095Y-110624209D02*
X143311476Y-110719447D01*
X161178519Y-91006024D02*
X161321376Y-91053643D01*
X161321376Y-91053643D02*
X161368995Y-91101262D01*
X161368995Y-91101262D02*
X161416614Y-91196500D01*
X161416614Y-91196500D02*
X161416614Y-91339357D01*
X161416614Y-91339357D02*
X161368995Y-91434595D01*
X161368995Y-91434595D02*
X161321376Y-91482215D01*
X161321376Y-91482215D02*
X161226138Y-91529834D01*
X161226138Y-91529834D02*
X160845186Y-91529834D01*
X160845186Y-91529834D02*
X160845186Y-90529834D01*
X160845186Y-90529834D02*
X161178519Y-90529834D01*
X161178519Y-90529834D02*
X161273757Y-90577453D01*
X161273757Y-90577453D02*
X161321376Y-90625072D01*
X161321376Y-90625072D02*
X161368995Y-90720310D01*
X161368995Y-90720310D02*
X161368995Y-90815548D01*
X161368995Y-90815548D02*
X161321376Y-90910786D01*
X161321376Y-90910786D02*
X161273757Y-90958405D01*
X161273757Y-90958405D02*
X161178519Y-91006024D01*
X161178519Y-91006024D02*
X160845186Y-91006024D01*
X161749948Y-90529834D02*
X162368995Y-90529834D01*
X162368995Y-90529834D02*
X162035662Y-90910786D01*
X162035662Y-90910786D02*
X162178519Y-90910786D01*
X162178519Y-90910786D02*
X162273757Y-90958405D01*
X162273757Y-90958405D02*
X162321376Y-91006024D01*
X162321376Y-91006024D02*
X162368995Y-91101262D01*
X162368995Y-91101262D02*
X162368995Y-91339357D01*
X162368995Y-91339357D02*
X162321376Y-91434595D01*
X162321376Y-91434595D02*
X162273757Y-91482215D01*
X162273757Y-91482215D02*
X162178519Y-91529834D01*
X162178519Y-91529834D02*
X161892805Y-91529834D01*
X161892805Y-91529834D02*
X161797567Y-91482215D01*
X161797567Y-91482215D02*
X161749948Y-91434595D01*
X171453324Y-106518904D02*
X171929514Y-106518904D01*
X171358086Y-106804619D02*
X171691419Y-105804619D01*
X171691419Y-105804619D02*
X172024752Y-106804619D01*
X172834276Y-105804619D02*
X172358086Y-105804619D01*
X172358086Y-105804619D02*
X172310467Y-106280809D01*
X172310467Y-106280809D02*
X172358086Y-106233190D01*
X172358086Y-106233190D02*
X172453324Y-106185571D01*
X172453324Y-106185571D02*
X172691419Y-106185571D01*
X172691419Y-106185571D02*
X172786657Y-106233190D01*
X172786657Y-106233190D02*
X172834276Y-106280809D01*
X172834276Y-106280809D02*
X172881895Y-106376047D01*
X172881895Y-106376047D02*
X172881895Y-106614142D01*
X172881895Y-106614142D02*
X172834276Y-106709380D01*
X172834276Y-106709380D02*
X172786657Y-106757000D01*
X172786657Y-106757000D02*
X172691419Y-106804619D01*
X172691419Y-106804619D02*
X172453324Y-106804619D01*
X172453324Y-106804619D02*
X172358086Y-106757000D01*
X172358086Y-106757000D02*
X172310467Y-106709380D01*
X171453324Y-97501904D02*
X171929514Y-97501904D01*
X171358086Y-97787619D02*
X171691419Y-96787619D01*
X171691419Y-96787619D02*
X172024752Y-97787619D01*
X172500943Y-97216190D02*
X172405705Y-97168571D01*
X172405705Y-97168571D02*
X172358086Y-97120952D01*
X172358086Y-97120952D02*
X172310467Y-97025714D01*
X172310467Y-97025714D02*
X172310467Y-96978095D01*
X172310467Y-96978095D02*
X172358086Y-96882857D01*
X172358086Y-96882857D02*
X172405705Y-96835238D01*
X172405705Y-96835238D02*
X172500943Y-96787619D01*
X172500943Y-96787619D02*
X172691419Y-96787619D01*
X172691419Y-96787619D02*
X172786657Y-96835238D01*
X172786657Y-96835238D02*
X172834276Y-96882857D01*
X172834276Y-96882857D02*
X172881895Y-96978095D01*
X172881895Y-96978095D02*
X172881895Y-97025714D01*
X172881895Y-97025714D02*
X172834276Y-97120952D01*
X172834276Y-97120952D02*
X172786657Y-97168571D01*
X172786657Y-97168571D02*
X172691419Y-97216190D01*
X172691419Y-97216190D02*
X172500943Y-97216190D01*
X172500943Y-97216190D02*
X172405705Y-97263809D01*
X172405705Y-97263809D02*
X172358086Y-97311428D01*
X172358086Y-97311428D02*
X172310467Y-97406666D01*
X172310467Y-97406666D02*
X172310467Y-97597142D01*
X172310467Y-97597142D02*
X172358086Y-97692380D01*
X172358086Y-97692380D02*
X172405705Y-97740000D01*
X172405705Y-97740000D02*
X172500943Y-97787619D01*
X172500943Y-97787619D02*
X172691419Y-97787619D01*
X172691419Y-97787619D02*
X172786657Y-97740000D01*
X172786657Y-97740000D02*
X172834276Y-97692380D01*
X172834276Y-97692380D02*
X172881895Y-97597142D01*
X172881895Y-97597142D02*
X172881895Y-97406666D01*
X172881895Y-97406666D02*
X172834276Y-97311428D01*
X172834276Y-97311428D02*
X172786657Y-97263809D01*
X172786657Y-97263809D02*
X172691419Y-97216190D01*
X147381933Y-119992519D02*
X147048600Y-119516328D01*
X146810505Y-119992519D02*
X146810505Y-118992519D01*
X146810505Y-118992519D02*
X147191457Y-118992519D01*
X147191457Y-118992519D02*
X147286695Y-119040138D01*
X147286695Y-119040138D02*
X147334314Y-119087757D01*
X147334314Y-119087757D02*
X147381933Y-119182995D01*
X147381933Y-119182995D02*
X147381933Y-119325852D01*
X147381933Y-119325852D02*
X147334314Y-119421090D01*
X147334314Y-119421090D02*
X147286695Y-119468709D01*
X147286695Y-119468709D02*
X147191457Y-119516328D01*
X147191457Y-119516328D02*
X146810505Y-119516328D01*
X148334314Y-119992519D02*
X147762886Y-119992519D01*
X148048600Y-119992519D02*
X148048600Y-118992519D01*
X148048600Y-118992519D02*
X147953362Y-119135376D01*
X147953362Y-119135376D02*
X147858124Y-119230614D01*
X147858124Y-119230614D02*
X147762886Y-119278233D01*
X161178519Y-94019387D02*
X161321376Y-94067006D01*
X161321376Y-94067006D02*
X161368995Y-94114625D01*
X161368995Y-94114625D02*
X161416614Y-94209863D01*
X161416614Y-94209863D02*
X161416614Y-94352720D01*
X161416614Y-94352720D02*
X161368995Y-94447958D01*
X161368995Y-94447958D02*
X161321376Y-94495578D01*
X161321376Y-94495578D02*
X161226138Y-94543197D01*
X161226138Y-94543197D02*
X160845186Y-94543197D01*
X160845186Y-94543197D02*
X160845186Y-93543197D01*
X160845186Y-93543197D02*
X161178519Y-93543197D01*
X161178519Y-93543197D02*
X161273757Y-93590816D01*
X161273757Y-93590816D02*
X161321376Y-93638435D01*
X161321376Y-93638435D02*
X161368995Y-93733673D01*
X161368995Y-93733673D02*
X161368995Y-93828911D01*
X161368995Y-93828911D02*
X161321376Y-93924149D01*
X161321376Y-93924149D02*
X161273757Y-93971768D01*
X161273757Y-93971768D02*
X161178519Y-94019387D01*
X161178519Y-94019387D02*
X160845186Y-94019387D01*
X162273757Y-93876530D02*
X162273757Y-94543197D01*
X162035662Y-93495578D02*
X161797567Y-94209863D01*
X161797567Y-94209863D02*
X162416614Y-94209863D01*
X185335942Y-114183719D02*
X185002609Y-113707528D01*
X184764514Y-114183719D02*
X184764514Y-113183719D01*
X184764514Y-113183719D02*
X185145466Y-113183719D01*
X185145466Y-113183719D02*
X185240704Y-113231338D01*
X185240704Y-113231338D02*
X185288323Y-113278957D01*
X185288323Y-113278957D02*
X185335942Y-113374195D01*
X185335942Y-113374195D02*
X185335942Y-113517052D01*
X185335942Y-113517052D02*
X185288323Y-113612290D01*
X185288323Y-113612290D02*
X185240704Y-113659909D01*
X185240704Y-113659909D02*
X185145466Y-113707528D01*
X185145466Y-113707528D02*
X184764514Y-113707528D01*
X185716895Y-113278957D02*
X185764514Y-113231338D01*
X185764514Y-113231338D02*
X185859752Y-113183719D01*
X185859752Y-113183719D02*
X186097847Y-113183719D01*
X186097847Y-113183719D02*
X186193085Y-113231338D01*
X186193085Y-113231338D02*
X186240704Y-113278957D01*
X186240704Y-113278957D02*
X186288323Y-113374195D01*
X186288323Y-113374195D02*
X186288323Y-113469433D01*
X186288323Y-113469433D02*
X186240704Y-113612290D01*
X186240704Y-113612290D02*
X185669276Y-114183719D01*
X185669276Y-114183719D02*
X186288323Y-114183719D01*
X186621657Y-113183719D02*
X187240704Y-113183719D01*
X187240704Y-113183719D02*
X186907371Y-113564671D01*
X186907371Y-113564671D02*
X187050228Y-113564671D01*
X187050228Y-113564671D02*
X187145466Y-113612290D01*
X187145466Y-113612290D02*
X187193085Y-113659909D01*
X187193085Y-113659909D02*
X187240704Y-113755147D01*
X187240704Y-113755147D02*
X187240704Y-113993242D01*
X187240704Y-113993242D02*
X187193085Y-114088480D01*
X187193085Y-114088480D02*
X187145466Y-114136100D01*
X187145466Y-114136100D02*
X187050228Y-114183719D01*
X187050228Y-114183719D02*
X186764514Y-114183719D01*
X186764514Y-114183719D02*
X186669276Y-114136100D01*
X186669276Y-114136100D02*
X186621657Y-114088480D01*
X185336042Y-111183719D02*
X185002709Y-110707528D01*
X184764614Y-111183719D02*
X184764614Y-110183719D01*
X184764614Y-110183719D02*
X185145566Y-110183719D01*
X185145566Y-110183719D02*
X185240804Y-110231338D01*
X185240804Y-110231338D02*
X185288423Y-110278957D01*
X185288423Y-110278957D02*
X185336042Y-110374195D01*
X185336042Y-110374195D02*
X185336042Y-110517052D01*
X185336042Y-110517052D02*
X185288423Y-110612290D01*
X185288423Y-110612290D02*
X185240804Y-110659909D01*
X185240804Y-110659909D02*
X185145566Y-110707528D01*
X185145566Y-110707528D02*
X184764614Y-110707528D01*
X185716995Y-110278957D02*
X185764614Y-110231338D01*
X185764614Y-110231338D02*
X185859852Y-110183719D01*
X185859852Y-110183719D02*
X186097947Y-110183719D01*
X186097947Y-110183719D02*
X186193185Y-110231338D01*
X186193185Y-110231338D02*
X186240804Y-110278957D01*
X186240804Y-110278957D02*
X186288423Y-110374195D01*
X186288423Y-110374195D02*
X186288423Y-110469433D01*
X186288423Y-110469433D02*
X186240804Y-110612290D01*
X186240804Y-110612290D02*
X185669376Y-111183719D01*
X185669376Y-111183719D02*
X186288423Y-111183719D01*
X186669376Y-110278957D02*
X186716995Y-110231338D01*
X186716995Y-110231338D02*
X186812233Y-110183719D01*
X186812233Y-110183719D02*
X187050328Y-110183719D01*
X187050328Y-110183719D02*
X187145566Y-110231338D01*
X187145566Y-110231338D02*
X187193185Y-110278957D01*
X187193185Y-110278957D02*
X187240804Y-110374195D01*
X187240804Y-110374195D02*
X187240804Y-110469433D01*
X187240804Y-110469433D02*
X187193185Y-110612290D01*
X187193185Y-110612290D02*
X186621757Y-111183719D01*
X186621757Y-111183719D02*
X187240804Y-111183719D01*
X161178519Y-103059476D02*
X161321376Y-103107095D01*
X161321376Y-103107095D02*
X161368995Y-103154714D01*
X161368995Y-103154714D02*
X161416614Y-103249952D01*
X161416614Y-103249952D02*
X161416614Y-103392809D01*
X161416614Y-103392809D02*
X161368995Y-103488047D01*
X161368995Y-103488047D02*
X161321376Y-103535667D01*
X161321376Y-103535667D02*
X161226138Y-103583286D01*
X161226138Y-103583286D02*
X160845186Y-103583286D01*
X160845186Y-103583286D02*
X160845186Y-102583286D01*
X160845186Y-102583286D02*
X161178519Y-102583286D01*
X161178519Y-102583286D02*
X161273757Y-102630905D01*
X161273757Y-102630905D02*
X161321376Y-102678524D01*
X161321376Y-102678524D02*
X161368995Y-102773762D01*
X161368995Y-102773762D02*
X161368995Y-102869000D01*
X161368995Y-102869000D02*
X161321376Y-102964238D01*
X161321376Y-102964238D02*
X161273757Y-103011857D01*
X161273757Y-103011857D02*
X161178519Y-103059476D01*
X161178519Y-103059476D02*
X160845186Y-103059476D01*
X161749948Y-102583286D02*
X162416614Y-102583286D01*
X162416614Y-102583286D02*
X161988043Y-103583286D01*
X147381833Y-107992619D02*
X147048500Y-107516428D01*
X146810405Y-107992619D02*
X146810405Y-106992619D01*
X146810405Y-106992619D02*
X147191357Y-106992619D01*
X147191357Y-106992619D02*
X147286595Y-107040238D01*
X147286595Y-107040238D02*
X147334214Y-107087857D01*
X147334214Y-107087857D02*
X147381833Y-107183095D01*
X147381833Y-107183095D02*
X147381833Y-107325952D01*
X147381833Y-107325952D02*
X147334214Y-107421190D01*
X147334214Y-107421190D02*
X147286595Y-107468809D01*
X147286595Y-107468809D02*
X147191357Y-107516428D01*
X147191357Y-107516428D02*
X146810405Y-107516428D01*
X148286595Y-106992619D02*
X147810405Y-106992619D01*
X147810405Y-106992619D02*
X147762786Y-107468809D01*
X147762786Y-107468809D02*
X147810405Y-107421190D01*
X147810405Y-107421190D02*
X147905643Y-107373571D01*
X147905643Y-107373571D02*
X148143738Y-107373571D01*
X148143738Y-107373571D02*
X148238976Y-107421190D01*
X148238976Y-107421190D02*
X148286595Y-107468809D01*
X148286595Y-107468809D02*
X148334214Y-107564047D01*
X148334214Y-107564047D02*
X148334214Y-107802142D01*
X148334214Y-107802142D02*
X148286595Y-107897380D01*
X148286595Y-107897380D02*
X148238976Y-107945000D01*
X148238976Y-107945000D02*
X148143738Y-107992619D01*
X148143738Y-107992619D02*
X147905643Y-107992619D01*
X147905643Y-107992619D02*
X147810405Y-107945000D01*
X147810405Y-107945000D02*
X147762786Y-107897380D01*
D12*
%TO.C,R9*%
X147785858Y-94630300D02*
X147311342Y-94630300D01*
X147785858Y-93585300D02*
X147311342Y-93585300D01*
%TO.C,B2*%
X159447400Y-115845000D02*
X159447400Y-114375000D01*
X159447400Y-114375000D02*
X157162400Y-114375000D01*
X157162400Y-115845000D02*
X159447400Y-115845000D01*
%TO.C,R6*%
X147785858Y-103630300D02*
X147311342Y-103630300D01*
X147785858Y-102585300D02*
X147311342Y-102585300D01*
D13*
%TO.C,USB1*%
X191955400Y-106453800D02*
X194195400Y-106453800D01*
X191955400Y-106453800D02*
X191955400Y-96593800D01*
X195835400Y-106023800D02*
X198255400Y-106023800D01*
X200325400Y-106023800D02*
X201795400Y-106023800D01*
X201795400Y-106023800D02*
X201795400Y-97023800D01*
X195835400Y-97023800D02*
X198255400Y-97023800D01*
X201795400Y-97023800D02*
X200325400Y-97023800D01*
X191955400Y-96593800D02*
X194195400Y-96593800D01*
D11*
X192805400Y-105263800D02*
G75*
G03*
X192505400Y-105263800I-150000J0D01*
G01*
X192505400Y-105263800D02*
G75*
G03*
X192805400Y-105263800I150000J0D01*
G01*
D12*
%TO.C,R28*%
X139708658Y-109386900D02*
X139234142Y-109386900D01*
X139708658Y-108341900D02*
X139234142Y-108341900D01*
%TO.C,B8*%
X159447400Y-97845000D02*
X159447400Y-96375000D01*
X159447400Y-96375000D02*
X157162400Y-96375000D01*
X157162400Y-97845000D02*
X159447400Y-97845000D01*
%TO.C,D25*%
X199706600Y-91997200D02*
X199706600Y-90527200D01*
X199706600Y-90527200D02*
X197421600Y-90527200D01*
X197421600Y-91997200D02*
X199706600Y-91997200D01*
%TO.C,R19*%
X185741542Y-102636400D02*
X186216058Y-102636400D01*
X185741542Y-103681400D02*
X186216058Y-103681400D01*
%TO.C,A4*%
X174765500Y-93426200D02*
X174765500Y-94896200D01*
X174765500Y-94896200D02*
X177050500Y-94896200D01*
X177050500Y-93426200D02*
X174765500Y-93426200D01*
%TO.C,R3*%
X147785758Y-112630300D02*
X147311242Y-112630300D01*
X147785758Y-111585300D02*
X147311242Y-111585300D01*
%TO.C,R7*%
X147785858Y-100630300D02*
X147311342Y-100630300D01*
X147785858Y-99585300D02*
X147311342Y-99585300D01*
%TO.C,A10*%
X174765600Y-111426200D02*
X174765600Y-112896200D01*
X174765600Y-112896200D02*
X177050600Y-112896200D01*
X177050600Y-111426200D02*
X174765600Y-111426200D01*
%TO.C,A9*%
X174765500Y-108426200D02*
X174765500Y-109896200D01*
X174765500Y-109896200D02*
X177050500Y-109896200D01*
X177050500Y-108426200D02*
X174765500Y-108426200D01*
D13*
%TO.C,USB2*%
X141089400Y-95755600D02*
X138849400Y-95755600D01*
X141089400Y-95755600D02*
X141089400Y-105615600D01*
X137209400Y-96185600D02*
X134789400Y-96185600D01*
X132719400Y-96185600D02*
X131249400Y-96185600D01*
X131249400Y-96185600D02*
X131249400Y-105185600D01*
X137209400Y-105185600D02*
X134789400Y-105185600D01*
X131249400Y-105185600D02*
X132719400Y-105185600D01*
X141089400Y-105615600D02*
X138849400Y-105615600D01*
D11*
X140539400Y-96945600D02*
G75*
G03*
X140239400Y-96945600I-150000J0D01*
G01*
X140239400Y-96945600D02*
G75*
G03*
X140539400Y-96945600I150000J0D01*
G01*
D12*
%TO.C,D2*%
X134659000Y-108129400D02*
X134659000Y-109599400D01*
X134659000Y-109599400D02*
X136944000Y-109599400D01*
X136944000Y-108129400D02*
X134659000Y-108129400D01*
%TO.C,R11*%
X147785858Y-88630300D02*
X147311342Y-88630300D01*
X147785858Y-87585300D02*
X147311342Y-87585300D01*
%TO.C,B12*%
X159447500Y-85845000D02*
X159447500Y-84375000D01*
X159447500Y-84375000D02*
X157162500Y-84375000D01*
X157162500Y-85845000D02*
X159447500Y-85845000D01*
%TO.C,A2*%
X174765600Y-87426200D02*
X174765600Y-88896200D01*
X174765600Y-88896200D02*
X177050600Y-88896200D01*
X177050600Y-87426200D02*
X174765600Y-87426200D01*
%TO.C,R15*%
X185741642Y-90636400D02*
X186216158Y-90636400D01*
X185741642Y-91681400D02*
X186216158Y-91681400D01*
%TO.C,B1*%
X159447500Y-118845000D02*
X159447500Y-117375000D01*
X159447500Y-117375000D02*
X157162500Y-117375000D01*
X157162500Y-118845000D02*
X159447500Y-118845000D01*
%TO.C,R25*%
X198009742Y-92797100D02*
X198484258Y-92797100D01*
X198009742Y-93842100D02*
X198484258Y-93842100D01*
%TO.C,R10*%
X147785858Y-91630300D02*
X147311342Y-91630300D01*
X147785858Y-90585300D02*
X147311342Y-90585300D01*
%TO.C,R24*%
X185741542Y-117636400D02*
X186216058Y-117636400D01*
X185741542Y-118681400D02*
X186216058Y-118681400D01*
%TO.C,A3*%
X174765500Y-90426200D02*
X174765500Y-91896200D01*
X174765500Y-91896200D02*
X177050500Y-91896200D01*
X177050500Y-90426200D02*
X174765500Y-90426200D01*
%TO.C,B6*%
X159447500Y-103845000D02*
X159447500Y-102375000D01*
X159447500Y-102375000D02*
X157162500Y-102375000D01*
X157162500Y-103845000D02*
X159447500Y-103845000D01*
%TO.C,R2*%
X147785858Y-115630300D02*
X147311342Y-115630300D01*
X147785858Y-114585300D02*
X147311342Y-114585300D01*
%TO.C,R13*%
X185741542Y-84636400D02*
X186216058Y-84636400D01*
X185741542Y-85681400D02*
X186216058Y-85681400D01*
%TO.C,R14*%
X185741542Y-87636400D02*
X186216058Y-87636400D01*
X185741542Y-88681400D02*
X186216058Y-88681400D01*
%TO.C,R8*%
X147785858Y-97630300D02*
X147311342Y-97630300D01*
X147785858Y-96585300D02*
X147311342Y-96585300D01*
%TO.C,B5*%
X159447500Y-106845000D02*
X159447500Y-105375000D01*
X159447500Y-105375000D02*
X157162500Y-105375000D01*
X157162500Y-106845000D02*
X159447500Y-106845000D01*
%TO.C,A1*%
X174765600Y-84426200D02*
X174765600Y-85896200D01*
X174765600Y-85896200D02*
X177050600Y-85896200D01*
X177050600Y-84426200D02*
X174765600Y-84426200D01*
%TO.C,R21*%
X185741642Y-108636400D02*
X186216158Y-108636400D01*
X185741642Y-109681400D02*
X186216158Y-109681400D01*
%TO.C,A7*%
X174765500Y-102426200D02*
X174765500Y-103896200D01*
X174765500Y-103896200D02*
X177050500Y-103896200D01*
X177050500Y-102426200D02*
X174765500Y-102426200D01*
%TO.C,R16*%
X185741642Y-93636400D02*
X186216158Y-93636400D01*
X185741642Y-94681400D02*
X186216158Y-94681400D01*
%TO.C,R17*%
X185741642Y-96636400D02*
X186216158Y-96636400D01*
X185741642Y-97681400D02*
X186216158Y-97681400D01*
%TO.C,B10*%
X159447500Y-91845000D02*
X159447500Y-90375000D01*
X159447500Y-90375000D02*
X157162500Y-90375000D01*
X157162500Y-91845000D02*
X159447500Y-91845000D01*
%TO.C,B9*%
X159447500Y-94845000D02*
X159447500Y-93375000D01*
X159447500Y-93375000D02*
X157162500Y-93375000D01*
X157162500Y-94845000D02*
X159447500Y-94845000D01*
%TO.C,R4*%
X147785858Y-109630300D02*
X147311342Y-109630300D01*
X147785858Y-108585300D02*
X147311342Y-108585300D01*
%TO.C,A11*%
X174765500Y-114426200D02*
X174765500Y-115896200D01*
X174765500Y-115896200D02*
X177050500Y-115896200D01*
X177050500Y-114426200D02*
X174765500Y-114426200D01*
%TO.C,R18*%
X185741642Y-99636400D02*
X186216158Y-99636400D01*
X185741642Y-100681400D02*
X186216158Y-100681400D01*
%TO.C,A6*%
X174765500Y-99426200D02*
X174765500Y-100896200D01*
X174765500Y-100896200D02*
X177050500Y-100896200D01*
X177050500Y-99426200D02*
X174765500Y-99426200D01*
%TO.C,A12*%
X174765600Y-117426200D02*
X174765600Y-118896200D01*
X174765600Y-118896200D02*
X177050600Y-118896200D01*
X177050600Y-117426200D02*
X174765600Y-117426200D01*
%TO.C,R12*%
X147785858Y-85630300D02*
X147311342Y-85630300D01*
X147785858Y-84585300D02*
X147311342Y-84585300D01*
%TO.C,R20*%
X185741642Y-105636400D02*
X186216158Y-105636400D01*
X185741642Y-106681400D02*
X186216158Y-106681400D01*
%TO.C,D1*%
X134659000Y-109958200D02*
X134659000Y-111428200D01*
X134659000Y-111428200D02*
X136944000Y-111428200D01*
X136944000Y-109958200D02*
X134659000Y-109958200D01*
%TO.C,B11*%
X159447500Y-88845000D02*
X159447500Y-87375000D01*
X159447500Y-87375000D02*
X157162500Y-87375000D01*
X157162500Y-88845000D02*
X159447500Y-88845000D01*
%TO.C,R26*%
X139734058Y-111241100D02*
X139259542Y-111241100D01*
X139734058Y-110196100D02*
X139259542Y-110196100D01*
%TO.C,B3*%
X159447500Y-112845000D02*
X159447500Y-111375000D01*
X159447500Y-111375000D02*
X157162500Y-111375000D01*
X157162500Y-112845000D02*
X159447500Y-112845000D01*
%TO.C,A5*%
X174765500Y-96426200D02*
X174765500Y-97896200D01*
X174765500Y-97896200D02*
X177050500Y-97896200D01*
X177050500Y-96426200D02*
X174765500Y-96426200D01*
%TO.C,A8*%
X174765500Y-105426200D02*
X174765500Y-106896200D01*
X174765500Y-106896200D02*
X177050500Y-106896200D01*
X177050500Y-105426200D02*
X174765500Y-105426200D01*
%TO.C,R1*%
X147785858Y-118630200D02*
X147311342Y-118630200D01*
X147785858Y-117585200D02*
X147311342Y-117585200D01*
%TO.C,B4*%
X159447500Y-109845000D02*
X159447500Y-108375000D01*
X159447500Y-108375000D02*
X157162500Y-108375000D01*
X157162500Y-109845000D02*
X159447500Y-109845000D01*
%TO.C,R23*%
X185741542Y-114636400D02*
X186216058Y-114636400D01*
X185741542Y-115681400D02*
X186216058Y-115681400D01*
%TO.C,R22*%
X185741642Y-111636400D02*
X186216158Y-111636400D01*
X185741642Y-112681400D02*
X186216158Y-112681400D01*
%TO.C,B7*%
X159447500Y-100845000D02*
X159447500Y-99375000D01*
X159447500Y-99375000D02*
X157162500Y-99375000D01*
X157162500Y-100845000D02*
X159447500Y-100845000D01*
%TO.C,R5*%
X147785758Y-106630300D02*
X147311242Y-106630300D01*
X147785758Y-105585300D02*
X147311242Y-105585300D01*
%TD*%
M02*
