%TF.GenerationSoftware,KiCad,Pcbnew,7.0.10*%
%TF.CreationDate,2024-02-08T12:53:37+00:00*%
%TF.ProjectId,USB-tester,5553422d-7465-4737-9465-722e6b696361,rev?*%
%TF.SameCoordinates,Original*%
%TF.FileFunction,Soldermask,Bot*%
%TF.FilePolarity,Negative*%
%FSLAX46Y46*%
G04 Gerber Fmt 4.6, Leading zero omitted, Abs format (unit mm)*
G04 Created by KiCad (PCBNEW 7.0.10) date 2024-02-08 12:53:37*
%MOMM*%
%LPD*%
G01*
G04 APERTURE LIST*
G04 Aperture macros list*
%AMRoundRect*
0 Rectangle with rounded corners*
0 $1 Rounding radius*
0 $2 $3 $4 $5 $6 $7 $8 $9 X,Y pos of 4 corners*
0 Add a 4 corners polygon primitive as box body*
4,1,4,$2,$3,$4,$5,$6,$7,$8,$9,$2,$3,0*
0 Add four circle primitives for the rounded corners*
1,1,$1+$1,$2,$3*
1,1,$1+$1,$4,$5*
1,1,$1+$1,$6,$7*
1,1,$1+$1,$8,$9*
0 Add four rect primitives between the rounded corners*
20,1,$1+$1,$2,$3,$4,$5,0*
20,1,$1+$1,$4,$5,$6,$7,0*
20,1,$1+$1,$6,$7,$8,$9,0*
20,1,$1+$1,$8,$9,$2,$3,0*%
G04 Aperture macros list end*
%ADD10C,0.010000*%
%ADD11RoundRect,0.200000X0.200000X0.275000X-0.200000X0.275000X-0.200000X-0.275000X0.200000X-0.275000X0*%
%ADD12C,0.600000*%
%ADD13O,0.900000X2.000000*%
%ADD14O,0.900000X1.700000*%
%ADD15C,0.700000*%
%ADD16O,1.600000X1.000000*%
%ADD17C,3.200000*%
%ADD18RoundRect,0.150000X-0.512500X-0.150000X0.512500X-0.150000X0.512500X0.150000X-0.512500X0.150000X0*%
%ADD19R,3.500000X4.500000*%
%ADD20RoundRect,0.225000X-0.250000X0.225000X-0.250000X-0.225000X0.250000X-0.225000X0.250000X0.225000X0*%
%ADD21RoundRect,0.200000X-0.200000X-0.275000X0.200000X-0.275000X0.200000X0.275000X-0.200000X0.275000X0*%
%ADD22RoundRect,0.102000X0.350000X1.250000X-0.350000X1.250000X-0.350000X-1.250000X0.350000X-1.250000X0*%
%ADD23RoundRect,0.102000X0.550000X0.950000X-0.550000X0.950000X-0.550000X-0.950000X0.550000X-0.950000X0*%
G04 APERTURE END LIST*
%TO.C,J1*%
D10*
X150438200Y-117155000D02*
X149738200Y-117155000D01*
X149738200Y-115915000D01*
X150438200Y-115915000D01*
X150438200Y-117155000D01*
G36*
X150438200Y-117155000D02*
G01*
X149738200Y-117155000D01*
X149738200Y-115915000D01*
X150438200Y-115915000D01*
X150438200Y-117155000D01*
G37*
X149638200Y-117155000D02*
X148938200Y-117155000D01*
X148938200Y-115915000D01*
X149638200Y-115915000D01*
X149638200Y-117155000D01*
G36*
X149638200Y-117155000D02*
G01*
X148938200Y-117155000D01*
X148938200Y-115915000D01*
X149638200Y-115915000D01*
X149638200Y-117155000D01*
G37*
X148838200Y-117155000D02*
X148438200Y-117155000D01*
X148438200Y-115915000D01*
X148838200Y-115915000D01*
X148838200Y-117155000D01*
G36*
X148838200Y-117155000D02*
G01*
X148438200Y-117155000D01*
X148438200Y-115915000D01*
X148838200Y-115915000D01*
X148838200Y-117155000D01*
G37*
X148338200Y-117155000D02*
X147938200Y-117155000D01*
X147938200Y-115915000D01*
X148338200Y-115915000D01*
X148338200Y-117155000D01*
G36*
X148338200Y-117155000D02*
G01*
X147938200Y-117155000D01*
X147938200Y-115915000D01*
X148338200Y-115915000D01*
X148338200Y-117155000D01*
G37*
X147838200Y-117155000D02*
X147438200Y-117155000D01*
X147438200Y-115915000D01*
X147838200Y-115915000D01*
X147838200Y-117155000D01*
G36*
X147838200Y-117155000D02*
G01*
X147438200Y-117155000D01*
X147438200Y-115915000D01*
X147838200Y-115915000D01*
X147838200Y-117155000D01*
G37*
X147338200Y-117155000D02*
X146938200Y-117155000D01*
X146938200Y-115915000D01*
X147338200Y-115915000D01*
X147338200Y-117155000D01*
G36*
X147338200Y-117155000D02*
G01*
X146938200Y-117155000D01*
X146938200Y-115915000D01*
X147338200Y-115915000D01*
X147338200Y-117155000D01*
G37*
X146838200Y-117155000D02*
X146438200Y-117155000D01*
X146438200Y-115915000D01*
X146838200Y-115915000D01*
X146838200Y-117155000D01*
G36*
X146838200Y-117155000D02*
G01*
X146438200Y-117155000D01*
X146438200Y-115915000D01*
X146838200Y-115915000D01*
X146838200Y-117155000D01*
G37*
X146338200Y-117155000D02*
X145938200Y-117155000D01*
X145938200Y-115915000D01*
X146338200Y-115915000D01*
X146338200Y-117155000D01*
G36*
X146338200Y-117155000D02*
G01*
X145938200Y-117155000D01*
X145938200Y-115915000D01*
X146338200Y-115915000D01*
X146338200Y-117155000D01*
G37*
X145838200Y-117155000D02*
X145438200Y-117155000D01*
X145438200Y-115915000D01*
X145838200Y-115915000D01*
X145838200Y-117155000D01*
G36*
X145838200Y-117155000D02*
G01*
X145438200Y-117155000D01*
X145438200Y-115915000D01*
X145838200Y-115915000D01*
X145838200Y-117155000D01*
G37*
X145338200Y-117155000D02*
X144938200Y-117155000D01*
X144938200Y-115915000D01*
X145338200Y-115915000D01*
X145338200Y-117155000D01*
G36*
X145338200Y-117155000D02*
G01*
X144938200Y-117155000D01*
X144938200Y-115915000D01*
X145338200Y-115915000D01*
X145338200Y-117155000D01*
G37*
X144838200Y-117155000D02*
X144138200Y-117155000D01*
X144138200Y-115915000D01*
X144838200Y-115915000D01*
X144838200Y-117155000D01*
G36*
X144838200Y-117155000D02*
G01*
X144138200Y-117155000D01*
X144138200Y-115915000D01*
X144838200Y-115915000D01*
X144838200Y-117155000D01*
G37*
X144038200Y-117155000D02*
X143338200Y-117155000D01*
X143338200Y-115915000D01*
X144038200Y-115915000D01*
X144038200Y-117155000D01*
G36*
X144038200Y-117155000D02*
G01*
X143338200Y-117155000D01*
X143338200Y-115915000D01*
X144038200Y-115915000D01*
X144038200Y-117155000D01*
G37*
%TD*%
D11*
%TO.C,R30*%
X154444200Y-117957600D03*
X152794200Y-117957600D03*
%TD*%
%TO.C,R29*%
X154444200Y-115447600D03*
X152794200Y-115447600D03*
%TD*%
D12*
%TO.C,J1*%
X149778200Y-117605000D03*
X143998200Y-117605000D03*
D13*
X151213200Y-117115000D03*
X142563200Y-117115000D03*
D14*
X151213200Y-121285000D03*
X142563200Y-121285000D03*
%TD*%
D15*
%TO.C,USB1*%
X193655400Y-105123800D03*
X193655400Y-97773800D03*
D16*
X194905400Y-105653800D03*
X199295400Y-106013800D03*
X199295400Y-97033800D03*
X194905400Y-97393800D03*
D12*
X194305400Y-98723800D03*
X195005400Y-99123800D03*
X195005400Y-99923800D03*
X194305400Y-100323800D03*
X195005400Y-100723800D03*
X194305400Y-101123800D03*
X194305400Y-101923800D03*
X195005400Y-102323800D03*
X194305400Y-102723800D03*
X195005400Y-103123800D03*
X195005400Y-103923800D03*
X194305400Y-104323800D03*
%TD*%
D15*
%TO.C,USB2*%
X139389400Y-97085600D03*
X139389400Y-104435600D03*
D16*
X138139400Y-96555600D03*
X133749400Y-96195600D03*
X133749400Y-105175600D03*
X138139400Y-104815600D03*
D12*
X138739400Y-103485600D03*
X138039400Y-103085600D03*
X138039400Y-102285600D03*
X138739400Y-101885600D03*
X138039400Y-101485600D03*
X138739400Y-101085600D03*
X138739400Y-100285600D03*
X138039400Y-99885600D03*
X138739400Y-99485600D03*
X138039400Y-99085600D03*
X138039400Y-98285600D03*
X138739400Y-97885600D03*
%TD*%
D17*
%TO.C,H3*%
X196113400Y-86360000D03*
%TD*%
%TO.C,H4*%
X195834000Y-117271800D03*
%TD*%
%TO.C,H1*%
X137287000Y-86410800D03*
%TD*%
%TO.C,H2*%
X137058400Y-117271800D03*
%TD*%
D18*
%TO.C,U1*%
X166538858Y-101270600D03*
X166538858Y-100320600D03*
X166538858Y-99370600D03*
X168813858Y-99370600D03*
X168813858Y-100320600D03*
X168813858Y-101270600D03*
%TD*%
D19*
%TO.C,BT2*%
X152357400Y-101047400D03*
X181957400Y-101107400D03*
%TD*%
D20*
%TO.C,C2*%
X170955200Y-99592800D03*
X170955200Y-101142800D03*
%TD*%
D21*
%TO.C,R27*%
X162852600Y-102844600D03*
X164502600Y-102844600D03*
%TD*%
D22*
%TO.C,BAT1*%
X165637800Y-118230200D03*
X167137800Y-118230200D03*
D23*
X163687800Y-114630200D03*
X169087800Y-114630200D03*
%TD*%
D20*
%TO.C,C1*%
X164503600Y-99682000D03*
X164503600Y-101232000D03*
%TD*%
M02*
