%TF.GenerationSoftware,KiCad,Pcbnew,7.0.10*%
%TF.CreationDate,2024-02-08T12:53:37+00:00*%
%TF.ProjectId,USB-tester,5553422d-7465-4737-9465-722e6b696361,rev?*%
%TF.SameCoordinates,Original*%
%TF.FileFunction,Soldermask,Top*%
%TF.FilePolarity,Negative*%
%FSLAX46Y46*%
G04 Gerber Fmt 4.6, Leading zero omitted, Abs format (unit mm)*
G04 Created by KiCad (PCBNEW 7.0.10) date 2024-02-08 12:53:37*
%MOMM*%
%LPD*%
G01*
G04 APERTURE LIST*
G04 Aperture macros list*
%AMRoundRect*
0 Rectangle with rounded corners*
0 $1 Rounding radius*
0 $2 $3 $4 $5 $6 $7 $8 $9 X,Y pos of 4 corners*
0 Add a 4 corners polygon primitive as box body*
4,1,4,$2,$3,$4,$5,$6,$7,$8,$9,$2,$3,0*
0 Add four circle primitives for the rounded corners*
1,1,$1+$1,$2,$3*
1,1,$1+$1,$4,$5*
1,1,$1+$1,$6,$7*
1,1,$1+$1,$8,$9*
0 Add four rect primitives between the rounded corners*
20,1,$1+$1,$2,$3,$4,$5,0*
20,1,$1+$1,$4,$5,$6,$7,0*
20,1,$1+$1,$6,$7,$8,$9,0*
20,1,$1+$1,$8,$9,$2,$3,0*%
G04 Aperture macros list end*
%ADD10C,0.600000*%
%ADD11O,0.900000X2.000000*%
%ADD12O,0.900000X1.700000*%
%ADD13RoundRect,0.200000X0.200000X0.275000X-0.200000X0.275000X-0.200000X-0.275000X0.200000X-0.275000X0*%
%ADD14RoundRect,0.218750X0.218750X0.256250X-0.218750X0.256250X-0.218750X-0.256250X0.218750X-0.256250X0*%
%ADD15C,0.700000*%
%ADD16O,1.600000X1.000000*%
%ADD17R,1.010000X0.300000*%
%ADD18RoundRect,0.200000X-0.200000X-0.275000X0.200000X-0.275000X0.200000X0.275000X-0.200000X0.275000X0*%
%ADD19RoundRect,0.218750X-0.218750X-0.256250X0.218750X-0.256250X0.218750X0.256250X-0.218750X0.256250X0*%
%ADD20C,3.200000*%
G04 APERTURE END LIST*
D10*
%TO.C,J1*%
X149778200Y-117605000D03*
X143998200Y-117605000D03*
D11*
X151213200Y-117115000D03*
X142563200Y-117115000D03*
D12*
X151213200Y-121285000D03*
X142563200Y-121285000D03*
%TD*%
D13*
%TO.C,R9*%
X148373600Y-94107800D03*
X146723600Y-94107800D03*
%TD*%
D14*
%TO.C,B2*%
X158749900Y-115110000D03*
X157174900Y-115110000D03*
%TD*%
D13*
%TO.C,R6*%
X148373600Y-103107800D03*
X146723600Y-103107800D03*
%TD*%
D15*
%TO.C,USB1*%
X193655400Y-105123800D03*
X193655400Y-97773800D03*
D16*
X194905400Y-105653800D03*
X199295400Y-106013800D03*
X199295400Y-97033800D03*
X194905400Y-97393800D03*
D17*
X193095400Y-104273800D03*
X193095400Y-103773800D03*
X193095400Y-103273800D03*
X193095400Y-102773800D03*
X193095400Y-102273800D03*
X193095400Y-101773800D03*
X193095400Y-101273800D03*
X193095400Y-100773800D03*
X193095400Y-100273800D03*
X193095400Y-99773800D03*
X193095400Y-99273800D03*
X193095400Y-98773800D03*
D10*
X194305400Y-98723800D03*
X195005400Y-99123800D03*
X195005400Y-99923800D03*
X194305400Y-100323800D03*
X195005400Y-100723800D03*
X194305400Y-101123800D03*
X194305400Y-101923800D03*
X195005400Y-102323800D03*
X194305400Y-102723800D03*
X195005400Y-103123800D03*
X195005400Y-103923800D03*
X194305400Y-104323800D03*
%TD*%
D13*
%TO.C,R28*%
X140296400Y-108864400D03*
X138646400Y-108864400D03*
%TD*%
D14*
%TO.C,B8*%
X158749900Y-97110000D03*
X157174900Y-97110000D03*
%TD*%
%TO.C,D25*%
X199009100Y-91262200D03*
X197434100Y-91262200D03*
%TD*%
D18*
%TO.C,R19*%
X185153800Y-103158900D03*
X186803800Y-103158900D03*
%TD*%
D19*
%TO.C,A4*%
X175463000Y-94161200D03*
X177038000Y-94161200D03*
%TD*%
D13*
%TO.C,R3*%
X148373500Y-112107800D03*
X146723500Y-112107800D03*
%TD*%
%TO.C,R7*%
X148373600Y-100107800D03*
X146723600Y-100107800D03*
%TD*%
D19*
%TO.C,A10*%
X175463100Y-112161200D03*
X177038100Y-112161200D03*
%TD*%
%TO.C,A9*%
X175463000Y-109161200D03*
X177038000Y-109161200D03*
%TD*%
D15*
%TO.C,USB2*%
X139389400Y-97085600D03*
X139389400Y-104435600D03*
D16*
X138139400Y-96555600D03*
X133749400Y-96195600D03*
X133749400Y-105175600D03*
X138139400Y-104815600D03*
D17*
X139949400Y-97935600D03*
X139949400Y-98435600D03*
X139949400Y-98935600D03*
X139949400Y-99435600D03*
X139949400Y-99935600D03*
X139949400Y-100435600D03*
X139949400Y-100935600D03*
X139949400Y-101435600D03*
X139949400Y-101935600D03*
X139949400Y-102435600D03*
X139949400Y-102935600D03*
X139949400Y-103435600D03*
D10*
X138739400Y-103485600D03*
X138039400Y-103085600D03*
X138039400Y-102285600D03*
X138739400Y-101885600D03*
X138039400Y-101485600D03*
X138739400Y-101085600D03*
X138739400Y-100285600D03*
X138039400Y-99885600D03*
X138739400Y-99485600D03*
X138039400Y-99085600D03*
X138039400Y-98285600D03*
X138739400Y-97885600D03*
%TD*%
D20*
%TO.C,H3*%
X196113400Y-86360000D03*
%TD*%
D19*
%TO.C,D2*%
X135356500Y-108864400D03*
X136931500Y-108864400D03*
%TD*%
D13*
%TO.C,R11*%
X148373600Y-88107800D03*
X146723600Y-88107800D03*
%TD*%
D14*
%TO.C,B12*%
X158750000Y-85110000D03*
X157175000Y-85110000D03*
%TD*%
D19*
%TO.C,A2*%
X175463100Y-88161200D03*
X177038100Y-88161200D03*
%TD*%
D18*
%TO.C,R15*%
X185153900Y-91158900D03*
X186803900Y-91158900D03*
%TD*%
D14*
%TO.C,B1*%
X158750000Y-118110000D03*
X157175000Y-118110000D03*
%TD*%
D18*
%TO.C,R25*%
X197422000Y-93319600D03*
X199072000Y-93319600D03*
%TD*%
D13*
%TO.C,R10*%
X148373600Y-91107800D03*
X146723600Y-91107800D03*
%TD*%
D18*
%TO.C,R24*%
X185153800Y-118158900D03*
X186803800Y-118158900D03*
%TD*%
D19*
%TO.C,A3*%
X175463000Y-91161200D03*
X177038000Y-91161200D03*
%TD*%
D14*
%TO.C,B6*%
X158750000Y-103110000D03*
X157175000Y-103110000D03*
%TD*%
D13*
%TO.C,R2*%
X148373600Y-115107800D03*
X146723600Y-115107800D03*
%TD*%
D18*
%TO.C,R13*%
X185153800Y-85158900D03*
X186803800Y-85158900D03*
%TD*%
%TO.C,R14*%
X185153800Y-88158900D03*
X186803800Y-88158900D03*
%TD*%
D13*
%TO.C,R8*%
X148373600Y-97107800D03*
X146723600Y-97107800D03*
%TD*%
D14*
%TO.C,B5*%
X158750000Y-106110000D03*
X157175000Y-106110000D03*
%TD*%
D19*
%TO.C,A1*%
X175463100Y-85161200D03*
X177038100Y-85161200D03*
%TD*%
D18*
%TO.C,R21*%
X185153900Y-109158900D03*
X186803900Y-109158900D03*
%TD*%
D19*
%TO.C,A7*%
X175463000Y-103161200D03*
X177038000Y-103161200D03*
%TD*%
D18*
%TO.C,R16*%
X185153900Y-94158900D03*
X186803900Y-94158900D03*
%TD*%
%TO.C,R17*%
X185153900Y-97158900D03*
X186803900Y-97158900D03*
%TD*%
D14*
%TO.C,B10*%
X158750000Y-91110000D03*
X157175000Y-91110000D03*
%TD*%
%TO.C,B9*%
X158750000Y-94110000D03*
X157175000Y-94110000D03*
%TD*%
D13*
%TO.C,R4*%
X148373600Y-109107800D03*
X146723600Y-109107800D03*
%TD*%
D19*
%TO.C,A11*%
X175463000Y-115161200D03*
X177038000Y-115161200D03*
%TD*%
D18*
%TO.C,R18*%
X185153900Y-100158900D03*
X186803900Y-100158900D03*
%TD*%
D20*
%TO.C,H4*%
X195834000Y-117271800D03*
%TD*%
D19*
%TO.C,A6*%
X175463000Y-100161200D03*
X177038000Y-100161200D03*
%TD*%
%TO.C,A12*%
X175463100Y-118161200D03*
X177038100Y-118161200D03*
%TD*%
D13*
%TO.C,R12*%
X148373600Y-85107800D03*
X146723600Y-85107800D03*
%TD*%
D20*
%TO.C,H1*%
X137287000Y-86410800D03*
%TD*%
D18*
%TO.C,R20*%
X185153900Y-106158900D03*
X186803900Y-106158900D03*
%TD*%
D19*
%TO.C,D1*%
X135356500Y-110693200D03*
X136931500Y-110693200D03*
%TD*%
D14*
%TO.C,B11*%
X158750000Y-88110000D03*
X157175000Y-88110000D03*
%TD*%
D13*
%TO.C,R26*%
X140321800Y-110718600D03*
X138671800Y-110718600D03*
%TD*%
D14*
%TO.C,B3*%
X158750000Y-112110000D03*
X157175000Y-112110000D03*
%TD*%
D20*
%TO.C,H2*%
X137058400Y-117271800D03*
%TD*%
D19*
%TO.C,A5*%
X175463000Y-97161200D03*
X177038000Y-97161200D03*
%TD*%
%TO.C,A8*%
X175463000Y-106161200D03*
X177038000Y-106161200D03*
%TD*%
D13*
%TO.C,R1*%
X148373600Y-118107700D03*
X146723600Y-118107700D03*
%TD*%
D14*
%TO.C,B4*%
X158750000Y-109110000D03*
X157175000Y-109110000D03*
%TD*%
D18*
%TO.C,R23*%
X185153800Y-115158900D03*
X186803800Y-115158900D03*
%TD*%
%TO.C,R22*%
X185153900Y-112158900D03*
X186803900Y-112158900D03*
%TD*%
D14*
%TO.C,B7*%
X158750000Y-100110000D03*
X157175000Y-100110000D03*
%TD*%
D13*
%TO.C,R5*%
X148373500Y-106107800D03*
X146723500Y-106107800D03*
%TD*%
M02*
