%TF.GenerationSoftware,KiCad,Pcbnew,7.0.10*%
%TF.CreationDate,2024-01-25T20:05:25+00:00*%
%TF.ProjectId,USB-tester,5553422d-7465-4737-9465-722e6b696361,rev?*%
%TF.SameCoordinates,Original*%
%TF.FileFunction,Paste,Top*%
%TF.FilePolarity,Positive*%
%FSLAX46Y46*%
G04 Gerber Fmt 4.6, Leading zero omitted, Abs format (unit mm)*
G04 Created by KiCad (PCBNEW 7.0.10) date 2024-01-25 20:05:25*
%MOMM*%
%LPD*%
G01*
G04 APERTURE LIST*
G04 Aperture macros list*
%AMRoundRect*
0 Rectangle with rounded corners*
0 $1 Rounding radius*
0 $2 $3 $4 $5 $6 $7 $8 $9 X,Y pos of 4 corners*
0 Add a 4 corners polygon primitive as box body*
4,1,4,$2,$3,$4,$5,$6,$7,$8,$9,$2,$3,0*
0 Add four circle primitives for the rounded corners*
1,1,$1+$1,$2,$3*
1,1,$1+$1,$4,$5*
1,1,$1+$1,$6,$7*
1,1,$1+$1,$8,$9*
0 Add four rect primitives between the rounded corners*
20,1,$1+$1,$2,$3,$4,$5,0*
20,1,$1+$1,$4,$5,$6,$7,0*
20,1,$1+$1,$6,$7,$8,$9,0*
20,1,$1+$1,$8,$9,$2,$3,0*%
G04 Aperture macros list end*
%ADD10RoundRect,0.200000X0.200000X0.275000X-0.200000X0.275000X-0.200000X-0.275000X0.200000X-0.275000X0*%
%ADD11RoundRect,0.218750X0.218750X0.256250X-0.218750X0.256250X-0.218750X-0.256250X0.218750X-0.256250X0*%
%ADD12RoundRect,0.200000X-0.200000X-0.275000X0.200000X-0.275000X0.200000X0.275000X-0.200000X0.275000X0*%
%ADD13RoundRect,0.218750X-0.218750X-0.256250X0.218750X-0.256250X0.218750X0.256250X-0.218750X0.256250X0*%
%ADD14R,0.800000X0.300000*%
%ADD15R,0.700000X1.000000*%
%ADD16R,0.700000X0.300000*%
G04 APERTURE END LIST*
D10*
%TO.C,R9*%
X148373600Y-94107800D03*
X146723600Y-94107800D03*
%TD*%
D11*
%TO.C,B2*%
X157174900Y-115110000D03*
X158749900Y-115110000D03*
%TD*%
D10*
%TO.C,R6*%
X148373600Y-103107800D03*
X146723600Y-103107800D03*
%TD*%
D11*
%TO.C,B8*%
X157174900Y-97110000D03*
X158749900Y-97110000D03*
%TD*%
D12*
%TO.C,R19*%
X185153800Y-103158900D03*
X186803800Y-103158900D03*
%TD*%
D13*
%TO.C,A4*%
X175463000Y-94161200D03*
X177038000Y-94161200D03*
%TD*%
D10*
%TO.C,R3*%
X148373500Y-112107800D03*
X146723500Y-112107800D03*
%TD*%
%TO.C,R7*%
X148373600Y-100107800D03*
X146723600Y-100107800D03*
%TD*%
D13*
%TO.C,A10*%
X177038100Y-112161200D03*
X175463100Y-112161200D03*
%TD*%
%TO.C,A9*%
X175463000Y-109161200D03*
X177038000Y-109161200D03*
%TD*%
D14*
%TO.C,USBC1*%
X139957900Y-98092000D03*
X139957900Y-98592000D03*
X139957900Y-99092000D03*
X139957900Y-99592000D03*
X139957900Y-100092000D03*
X139957900Y-100592000D03*
X139957900Y-101592000D03*
X139957900Y-102092000D03*
X139957900Y-102592000D03*
X139957900Y-103092000D03*
X139957900Y-103592000D03*
X139957900Y-104092000D03*
D15*
X138607900Y-104192000D03*
D16*
X138607900Y-103342000D03*
X138607900Y-102842000D03*
X138607900Y-102342000D03*
X138607900Y-101842000D03*
X138607900Y-101342000D03*
X138607900Y-100842000D03*
X138607900Y-100342000D03*
X138607900Y-99842000D03*
X138607900Y-99342000D03*
X138607900Y-98842000D03*
D15*
X138607900Y-97992000D03*
%TD*%
D10*
%TO.C,R11*%
X148373600Y-88107800D03*
X146723600Y-88107800D03*
%TD*%
D11*
%TO.C,B12*%
X157175000Y-85110000D03*
X158750000Y-85110000D03*
%TD*%
D13*
%TO.C,A2*%
X175463100Y-88161200D03*
X177038100Y-88161200D03*
%TD*%
D12*
%TO.C,R15*%
X185153900Y-91158900D03*
X186803900Y-91158900D03*
%TD*%
D11*
%TO.C,B1*%
X157175000Y-118110000D03*
X158750000Y-118110000D03*
%TD*%
D10*
%TO.C,R10*%
X148373600Y-91107800D03*
X146723600Y-91107800D03*
%TD*%
D12*
%TO.C,R24*%
X185153800Y-118158900D03*
X186803800Y-118158900D03*
%TD*%
D13*
%TO.C,A3*%
X175463000Y-91161200D03*
X177038000Y-91161200D03*
%TD*%
D11*
%TO.C,B6*%
X157175000Y-103110000D03*
X158750000Y-103110000D03*
%TD*%
D10*
%TO.C,R2*%
X148373600Y-115107800D03*
X146723600Y-115107800D03*
%TD*%
D12*
%TO.C,R13*%
X185153800Y-85158900D03*
X186803800Y-85158900D03*
%TD*%
%TO.C,R14*%
X185153800Y-88158900D03*
X186803800Y-88158900D03*
%TD*%
D10*
%TO.C,R8*%
X148373600Y-97107800D03*
X146723600Y-97107800D03*
%TD*%
D11*
%TO.C,B5*%
X157175000Y-106110000D03*
X158750000Y-106110000D03*
%TD*%
D10*
%TO.C,R25*%
X135801500Y-108153200D03*
X137451500Y-108153200D03*
%TD*%
D13*
%TO.C,A1*%
X177038100Y-85161200D03*
X175463100Y-85161200D03*
%TD*%
D12*
%TO.C,R21*%
X185153900Y-109158900D03*
X186803900Y-109158900D03*
%TD*%
D13*
%TO.C,A7*%
X175463000Y-103161200D03*
X177038000Y-103161200D03*
%TD*%
D12*
%TO.C,R16*%
X185153900Y-94158900D03*
X186803900Y-94158900D03*
%TD*%
%TO.C,R17*%
X185153900Y-97158900D03*
X186803900Y-97158900D03*
%TD*%
D11*
%TO.C,B10*%
X157175000Y-91110000D03*
X158750000Y-91110000D03*
%TD*%
%TO.C,B9*%
X157175000Y-94110000D03*
X158750000Y-94110000D03*
%TD*%
D10*
%TO.C,R4*%
X148373600Y-109107800D03*
X146723600Y-109107800D03*
%TD*%
D13*
%TO.C,A11*%
X175463000Y-115161200D03*
X177038000Y-115161200D03*
%TD*%
D14*
%TO.C,USBC2*%
X193112400Y-104478400D03*
X193112400Y-103978400D03*
X193112400Y-103478400D03*
X193112400Y-102978400D03*
X193112400Y-102478400D03*
X193112400Y-101978400D03*
X193112400Y-100978400D03*
X193112400Y-100478400D03*
X193112400Y-99978400D03*
X193112400Y-99478400D03*
X193112400Y-98978400D03*
X193112400Y-98478400D03*
D15*
X194462400Y-98378400D03*
D16*
X194462400Y-99228400D03*
X194462400Y-99728400D03*
X194462400Y-100228400D03*
X194462400Y-100728400D03*
X194462400Y-101228400D03*
X194462400Y-101728400D03*
X194462400Y-102228400D03*
X194462400Y-102728400D03*
X194462400Y-103228400D03*
X194462400Y-103728400D03*
D15*
X194462400Y-104578400D03*
%TD*%
D12*
%TO.C,R18*%
X185153900Y-100158900D03*
X186803900Y-100158900D03*
%TD*%
D13*
%TO.C,A6*%
X175463000Y-100161200D03*
X177038000Y-100161200D03*
%TD*%
%TO.C,A12*%
X175463100Y-118161200D03*
X177038100Y-118161200D03*
%TD*%
D10*
%TO.C,R12*%
X148373600Y-85107800D03*
X146723600Y-85107800D03*
%TD*%
D12*
%TO.C,R20*%
X185153900Y-106158900D03*
X186803900Y-106158900D03*
%TD*%
D11*
%TO.C,B11*%
X157175000Y-88110000D03*
X158750000Y-88110000D03*
%TD*%
%TO.C,B3*%
X157175000Y-112110000D03*
X158750000Y-112110000D03*
%TD*%
D13*
%TO.C,A5*%
X175463000Y-97161200D03*
X177038000Y-97161200D03*
%TD*%
%TO.C,A8*%
X175463000Y-106161200D03*
X177038000Y-106161200D03*
%TD*%
D10*
%TO.C,R1*%
X148373600Y-118107700D03*
X146723600Y-118107700D03*
%TD*%
D11*
%TO.C,B4*%
X157175000Y-109110000D03*
X158750000Y-109110000D03*
%TD*%
D12*
%TO.C,R23*%
X185153800Y-115158900D03*
X186803800Y-115158900D03*
%TD*%
%TO.C,R22*%
X185153900Y-112158900D03*
X186803900Y-112158900D03*
%TD*%
D11*
%TO.C,B7*%
X157175000Y-100110000D03*
X158750000Y-100110000D03*
%TD*%
D13*
%TO.C,D25*%
X137439400Y-109855000D03*
X135864400Y-109855000D03*
%TD*%
D10*
%TO.C,R5*%
X148373500Y-106107800D03*
X146723500Y-106107800D03*
%TD*%
M02*
